<svg width="326" height="79" viewBox="0 0 326 79" fill="none" xmlns="http://www.w3.org/2000/svg">
<path d="M59.2741 30.5296C59.2741 62.0488 64.9829 60.3745 55.6353 54.8198C41.541 46.4444 0 63.021 0 35.2608C0 21.3807 15.6087 9 31.9832 9C41.0802 15.9401 59.2741 -0.989539 59.2741 30.5296Z" fill="white"/>
<ellipse cx="66" cy="64.5" rx="8" ry="6.5" fill="white"/>
<ellipse cx="77" cy="73.5" rx="3" ry="2.5" fill="white"/>
<path d="M90.1992 78.0273C90.069 77.7018 90.0039 76.5299 90.0039 74.5117C90.0039 72.4935 90.0039 69.9544 90.0039 66.8945C90.069 63.8346 90.1341 60.4167 90.1992 56.6406C90.3294 52.7995 90.4271 48.9258 90.4922 45.0195C90.6224 41.0482 90.7526 37.207 90.8828 33.4961C91.013 29.7201 91.1107 26.3672 91.1758 23.4375C91.306 20.5078 91.4036 18.1315 91.4688 16.3086C91.5339 14.4206 91.599 13.4115 91.6641 13.2812C91.7292 13.0208 92.0221 12.3698 92.543 11.3281C93.0638 10.2865 93.6497 9.21224 94.3008 8.10547C95.0169 6.93359 95.7331 5.92448 96.4492 5.07812C97.1654 4.16667 97.7839 3.74349 98.3047 3.80859C98.5 3.8737 98.6628 5.17578 98.793 7.71484C98.9883 10.1888 99.151 13.3789 99.2812 17.2852C99.4766 21.1914 99.6068 25.5208 99.6719 30.2734C99.8021 34.9609 99.8997 39.5508 99.9648 44.043C100.095 48.4701 100.193 52.5065 100.258 56.1523C100.323 59.7331 100.388 62.3698 100.453 64.0625C102.536 64.2578 104.62 64.4206 106.703 64.5508C108.852 64.681 110.772 64.8438 112.465 65.0391C114.158 65.1693 115.525 65.2995 116.566 65.4297C117.673 65.5599 118.259 65.6576 118.324 65.7227C118.52 65.9831 118.78 66.6016 119.105 67.5781C119.496 68.4896 119.854 69.4987 120.18 70.6055C120.505 71.6471 120.733 72.6237 120.863 73.5352C121.059 74.4466 121.026 75 120.766 75.1953C113.279 76.5625 107.484 77.474 103.383 77.9297C99.2812 78.3854 96.2539 78.6133 94.3008 78.6133C92.0221 78.6133 90.6549 78.418 90.1992 78.0273ZM128.188 46.7773C129.229 46.3867 130.401 45.9635 131.703 45.5078C133.07 44.987 134.372 44.5312 135.609 44.1406C136.846 43.6849 137.953 43.2943 138.93 42.9688C139.906 42.6432 140.622 42.3828 141.078 42.1875C141.013 41.4714 140.915 40.6576 140.785 39.7461C140.72 38.7695 140.622 37.8581 140.492 37.0117C140.362 36.1003 140.199 35.319 140.004 34.668C139.809 34.0169 139.613 33.6263 139.418 33.4961C138.897 33.3008 138.018 33.138 136.781 33.0078C135.609 32.8125 134.372 32.8451 133.07 33.1055C131.833 33.3659 130.694 33.8542 129.652 34.5703C128.611 35.2865 128.025 36.4258 127.895 37.9883C127.764 39.0299 127.732 40.332 127.797 41.8945C127.862 43.457 127.992 45.0846 128.188 46.7773ZM149.379 48.3398C149.314 48.4701 148.533 48.7305 147.035 49.1211C145.538 49.5117 143.747 49.9349 141.664 50.3906C139.581 50.7812 137.367 51.2044 135.023 51.6602C132.68 52.0508 130.661 52.3763 128.969 52.6367C129.294 55.2409 129.685 57.5846 130.141 59.668C130.596 61.6862 130.987 62.9557 131.312 63.4766C131.638 63.9323 132.061 64.3555 132.582 64.7461C133.038 65.0716 133.591 65.3971 134.242 65.7227C134.958 65.9831 135.805 66.1784 136.781 66.3086C137.497 66.5039 138.181 66.2435 138.832 65.5273C139.353 64.8763 139.809 63.737 140.199 62.1094C140.655 60.4818 140.883 57.9102 140.883 54.3945C142.901 54.069 144.464 53.8737 145.57 53.8086C146.742 53.7435 147.589 53.7435 148.109 53.8086C148.76 53.8737 149.151 53.9714 149.281 54.1016C149.346 54.2969 149.346 54.7852 149.281 55.5664C149.216 56.3477 149.053 57.3242 148.793 58.4961C148.598 59.6029 148.337 60.8398 148.012 62.207C147.751 63.5091 147.426 64.7786 147.035 66.0156C146.645 67.1875 146.221 68.2617 145.766 69.2383C145.31 70.1497 144.822 70.8008 144.301 71.1914C142.738 72.3633 140.785 72.9492 138.441 72.9492C136.098 72.8841 133.786 72.5586 131.508 71.9727C129.229 71.3216 127.178 70.5729 125.355 69.7266C123.533 68.8151 122.393 68.0664 121.938 67.4805C121.612 67.0898 121.319 66.1133 121.059 64.5508C120.798 62.9232 120.57 60.9701 120.375 58.6914C120.245 56.4128 120.147 53.9062 120.082 51.1719C120.017 48.4375 120.049 45.7682 120.18 43.1641C120.375 40.5599 120.635 38.151 120.961 35.9375C121.352 33.724 121.872 31.9336 122.523 30.5664C123.5 28.6133 125.095 27.0182 127.309 25.7812C129.522 24.5443 131.866 23.6979 134.34 23.2422C136.814 22.7865 139.158 22.7214 141.371 23.0469C143.65 23.3724 145.342 24.0885 146.449 25.1953C147.1 25.8464 147.686 27.1484 148.207 29.1016C148.728 30.9896 149.053 33.3008 149.184 36.0352C149.184 36.2956 149.216 37.0443 149.281 38.2812C149.346 39.5182 149.379 40.8529 149.379 42.2852C149.444 43.6523 149.477 44.9544 149.477 46.1914C149.477 47.4284 149.444 48.1445 149.379 48.3398ZM183.852 19.043C184.047 19.1732 183.786 20.0195 183.07 21.582C182.354 23.0794 181.345 25.0326 180.043 27.4414C178.806 29.7852 177.309 32.4544 175.551 35.4492C173.858 38.3789 172.1 41.3737 170.277 44.4336C171.579 47.4284 172.816 50.3581 173.988 53.2227C175.225 56.0221 176.267 58.5286 177.113 60.7422C177.96 62.9557 178.578 64.7461 178.969 66.1133C179.359 67.4154 179.457 68.0664 179.262 68.0664C178.806 68.0664 178.188 67.8711 177.406 67.4805C176.69 67.0898 175.941 66.6341 175.16 66.1133C174.379 65.5273 173.63 64.9414 172.914 64.3555C172.263 63.7044 171.807 63.1836 171.547 62.793C170.831 61.6862 170.115 60.5143 169.398 59.2773C168.747 58.0404 168.129 56.901 167.543 55.8594C166.827 54.6875 166.176 53.5156 165.59 52.3438C164.288 54.4271 163.051 56.3802 161.879 58.2031C160.772 59.9609 159.763 61.5234 158.852 62.8906C157.94 64.2578 157.191 65.332 156.605 66.1133C156.02 66.8945 155.629 67.2852 155.434 67.2852C154.913 67.2852 154.424 67.1224 153.969 66.7969C153.578 66.4062 153.22 65.9505 152.895 65.4297C152.634 64.8438 152.471 64.2578 152.406 63.6719C152.276 63.0859 152.276 62.5977 152.406 62.207C153.448 59.9284 154.457 57.6823 155.434 55.4688C156.41 53.2552 157.322 51.2695 158.168 49.5117C159.079 47.4284 159.991 45.4753 160.902 43.6523C159.73 41.5039 158.591 39.4206 157.484 37.4023C156.443 35.319 155.499 33.431 154.652 31.7383C153.806 29.9805 153.09 28.4831 152.504 27.2461C151.918 26.0091 151.592 25.1302 151.527 24.6094C151.332 23.763 151.495 22.9818 152.016 22.2656C152.536 21.4844 153.155 20.8659 153.871 20.4102C154.652 19.8893 155.401 19.5312 156.117 19.3359C156.898 19.0755 157.484 19.043 157.875 19.2383C158.135 19.3685 158.493 19.8242 158.949 20.6055C159.47 21.3867 160.056 22.4284 160.707 23.7305C161.423 25.0326 162.172 26.5625 162.953 28.3203C163.799 30.013 164.678 31.8685 165.59 33.8867C166.827 31.543 167.934 29.4922 168.91 27.7344C169.887 25.9115 170.668 24.6745 171.254 24.0234C171.97 23.1771 172.979 22.3958 174.281 21.6797C175.583 20.9635 176.885 20.3776 178.188 19.9219C179.555 19.4661 180.759 19.1732 181.801 19.043C182.908 18.8477 183.591 18.8477 183.852 19.043ZM209.145 23.6328C209.535 24.0885 209.893 24.5768 210.219 25.0977C210.544 25.5534 210.837 26.2044 211.098 27.0508C211.358 27.832 211.553 28.8737 211.684 30.1758C211.879 31.4779 211.977 33.1706 211.977 35.2539C211.977 38.5742 211.879 41.9271 211.684 45.3125C211.553 48.6328 211.423 51.5625 211.293 54.1016C211.228 56.3802 211.163 58.4961 211.098 60.4492C211.033 62.4023 210.967 64.1276 210.902 65.625C210.837 67.0573 210.74 68.1966 210.609 69.043C210.544 69.8893 210.479 70.3451 210.414 70.4102C210.154 70.6055 209.73 70.5404 209.145 70.2148C208.624 69.8242 208.038 69.3359 207.387 68.75C206.801 68.1641 206.247 67.5456 205.727 66.8945C205.206 66.2435 204.88 65.7227 204.75 65.332C204.75 65.0065 204.652 64.0625 204.457 62.5C202.895 63.4115 201.169 64.0625 199.281 64.4531C197.393 64.7786 195.505 64.9089 193.617 64.8438C191.794 64.7135 190.102 64.3555 188.539 63.7695C186.977 63.1836 185.805 62.4023 185.023 61.4258C184.698 61.0352 184.405 60.4492 184.145 59.668C183.949 58.8867 183.754 58.0078 183.559 57.0312C183.428 55.9896 183.298 54.9154 183.168 53.8086C183.038 52.6367 182.94 51.5625 182.875 50.5859C182.745 48.0469 183.07 45.8659 183.852 44.043C184.633 42.1549 186.065 40.7552 188.148 39.8438C189.06 39.4531 190.264 39.2578 191.762 39.2578C193.324 39.1927 194.854 39.2578 196.352 39.4531C197.914 39.5833 199.314 39.7786 200.551 40.0391C201.788 40.2344 202.569 40.3971 202.895 40.5273C202.634 37.207 202.439 34.3424 202.309 31.9336C202.178 29.4596 201.918 27.8646 201.527 27.1484C201.202 26.6927 200.811 26.237 200.355 25.7812C199.965 25.4557 199.444 25.0977 198.793 24.707C198.142 24.3164 197.361 24.0234 196.449 23.8281C195.733 23.6979 195.082 23.9909 194.496 24.707C193.975 25.3581 193.487 26.5299 193.031 28.2227C192.641 29.8503 192.413 32.3568 192.348 35.7422C190.069 35.8073 188.311 35.8073 187.074 35.7422C185.902 35.612 185.023 35.4818 184.438 35.3516C183.721 35.2214 183.298 35.0586 183.168 34.8633C183.038 34.6029 183.103 33.6589 183.363 32.0312C183.624 30.3385 183.982 28.5156 184.438 26.5625C184.958 24.6094 185.544 22.7539 186.195 20.9961C186.911 19.2383 187.66 18.1315 188.441 17.6758C190.004 16.7643 191.859 16.4388 194.008 16.6992C196.221 16.9596 198.37 17.513 200.453 18.3594C202.536 19.2057 204.392 20.1497 206.02 21.1914C207.647 22.2331 208.689 23.0469 209.145 23.6328ZM203.09 52.1484C203.09 51.8229 203.122 51.3997 203.188 50.8789C203.253 50.293 203.285 49.707 203.285 49.1211C203.285 48.5352 203.253 47.9818 203.188 47.4609C203.188 46.9401 203.122 46.5495 202.992 46.2891C202.797 45.8984 202.211 45.5729 201.234 45.3125C200.323 45.0521 199.281 44.8893 198.109 44.8242C196.938 44.694 195.831 44.6615 194.789 44.7266C193.747 44.7266 193.031 44.8568 192.641 45.1172C192.12 45.4427 191.729 45.8984 191.469 46.4844C191.273 47.0703 191.143 47.9818 191.078 49.2188C191.078 49.8047 191.111 50.4232 191.176 51.0742C191.241 51.7253 191.306 52.3763 191.371 53.0273C191.501 53.6133 191.632 54.1341 191.762 54.5898C191.957 55.0456 192.152 55.3385 192.348 55.4688C192.803 55.7943 193.585 56.0872 194.691 56.3477C195.863 56.543 197.035 56.6081 198.207 56.543C199.379 56.4128 200.453 56.0221 201.43 55.3711C202.406 54.7201 202.96 53.6458 203.09 52.1484Z" fill="#FF5858"/>
<path d="M227.895 65.625C226.658 61.3932 225.323 56.4128 223.891 50.6836C222.654 45.8008 221.221 39.8438 219.594 32.8125C217.966 25.7812 216.241 17.7083 214.418 8.59375C214.418 7.94271 214.776 7.19401 215.492 6.34766C216.208 5.4362 217.055 4.58984 218.031 3.80859C219.073 3.02734 220.147 2.34375 221.254 1.75781C222.361 1.17188 223.305 0.878906 224.086 0.878906C224.542 1.39974 225.16 3.61328 225.941 7.51953C226.267 9.21224 226.658 11.3281 227.113 13.8672C227.634 16.4062 228.188 19.5638 228.773 23.3398C229.359 27.0508 230.01 31.4128 230.727 36.4258C231.443 41.4388 232.257 47.2656 233.168 53.9062C233.819 49.4141 234.47 45.1823 235.121 41.2109C235.772 37.1745 236.358 33.5938 236.879 30.4688C237.53 26.888 238.116 23.5677 238.637 20.5078C238.897 18.6198 239.19 16.6341 239.516 14.5508C239.906 12.4023 240.297 10.4492 240.688 8.69141C241.078 6.93359 241.469 5.46875 241.859 4.29688C242.315 3.125 242.803 2.53906 243.324 2.53906C243.78 2.47396 244.529 2.53906 245.57 2.73438C246.677 2.92969 247.751 3.22266 248.793 3.61328C249.835 3.9388 250.746 4.32943 251.527 4.78516C252.374 5.24089 252.797 5.69661 252.797 6.15234C252.797 6.41276 252.536 7.64974 252.016 9.86328C251.56 12.0768 250.876 14.9089 249.965 18.3594C249.118 21.7448 248.142 25.5859 247.035 29.8828C245.993 34.1797 244.854 38.5742 243.617 43.0664C242.445 47.4935 241.273 51.8229 240.102 56.0547C238.93 60.2865 237.855 64.0625 236.879 67.3828C235.902 70.638 235.056 73.2747 234.34 75.293C233.689 77.3112 233.233 78.3203 232.973 78.3203C232.712 78.3203 232.029 77.181 230.922 74.9023C229.815 72.5586 228.806 69.4661 227.895 65.625ZM263.539 33.0078C263.669 33.3333 263.734 34.375 263.734 36.1328C263.799 37.8255 263.799 39.9089 263.734 42.3828C263.734 44.7917 263.669 47.3958 263.539 50.1953C263.409 52.9297 263.246 55.5339 263.051 58.0078C262.921 60.4167 262.758 62.5 262.562 64.2578C262.367 65.9505 262.172 66.9596 261.977 67.2852C261.391 68.1966 260.512 68.7826 259.34 69.043C258.168 69.2383 257.322 69.2708 256.801 69.1406C256.54 69.1406 256.247 68.3919 255.922 66.8945C255.661 65.3971 255.401 63.5091 255.141 61.2305C254.88 58.9518 254.652 56.4779 254.457 53.8086C254.262 51.1393 254.099 48.6003 253.969 46.1914C253.839 43.7174 253.773 41.569 253.773 39.7461C253.773 37.9232 253.839 36.7513 253.969 36.2305C254.164 35.3841 254.717 34.6354 255.629 33.9844C256.605 33.3333 257.615 32.8451 258.656 32.5195C259.763 32.194 260.772 32.0638 261.684 32.1289C262.66 32.1289 263.279 32.4219 263.539 33.0078ZM264.027 17.1875C264.288 17.7083 264.385 18.4245 264.32 19.3359C264.32 20.2474 264.223 21.1914 264.027 22.168C263.832 23.1445 263.572 24.0885 263.246 25C262.921 25.9115 262.595 26.6276 262.27 27.1484C261.618 28.0599 260.642 28.6458 259.34 28.9062C258.103 29.1016 257.191 29.1341 256.605 29.0039C256.15 28.9388 255.694 28.6458 255.238 28.125C254.783 27.5391 254.392 26.8555 254.066 26.0742C253.741 25.2279 253.513 24.3164 253.383 23.3398C253.253 22.3633 253.285 21.4518 253.48 20.6055C253.676 19.7591 254.294 19.0104 255.336 18.3594C256.378 17.6432 257.484 17.1224 258.656 16.7969C259.828 16.4062 260.935 16.2435 261.977 16.3086C263.018 16.3086 263.702 16.6016 264.027 17.1875ZM277.211 62.793C276.299 59.4727 275.29 55.5664 274.184 51.0742C273.272 47.2331 272.165 42.5781 270.863 37.1094C269.626 31.5755 268.292 25.2604 266.859 18.1641C266.859 17.7083 267.152 17.1549 267.738 16.5039C268.259 15.7878 268.91 15.1367 269.691 14.5508C270.473 13.8997 271.286 13.3789 272.133 12.9883C272.979 12.5326 273.728 12.3047 274.379 12.3047C274.639 12.6953 275.095 14.4206 275.746 17.4805C276.007 18.7826 276.299 20.4427 276.625 22.4609C277.016 24.4141 277.439 26.8555 277.895 29.7852C278.35 32.7148 278.839 36.1654 279.359 40.1367C279.945 44.043 280.596 48.5677 281.312 53.7109C281.833 50.1953 282.322 46.875 282.777 43.75C283.298 40.625 283.754 37.8581 284.145 35.4492C284.6 32.6497 285.023 30.0456 285.414 27.6367C285.609 26.1393 285.837 24.5768 286.098 22.9492C286.358 21.2565 286.618 19.7266 286.879 18.3594C287.204 16.9922 287.53 15.8529 287.855 14.9414C288.246 13.9648 288.637 13.4766 289.027 13.4766C289.418 13.4766 290.004 13.5742 290.785 13.7695C291.566 13.8997 292.348 14.0951 293.129 14.3555C293.975 14.6159 294.724 14.9414 295.375 15.332C296.026 15.6576 296.352 16.0156 296.352 16.4062C296.352 16.6016 296.156 17.5781 295.766 19.3359C295.375 21.0286 294.854 23.2096 294.203 25.8789C293.552 28.5482 292.803 31.5755 291.957 34.9609C291.111 38.2812 290.232 41.6667 289.32 45.1172C288.474 48.5677 287.595 51.9531 286.684 55.2734C285.772 58.5938 284.926 61.556 284.145 64.1602C283.428 66.6992 282.81 68.7826 282.289 70.4102C281.768 71.9727 281.41 72.7539 281.215 72.7539C281.02 72.7539 280.466 71.875 279.555 70.1172C278.708 68.2943 277.927 65.8529 277.211 62.793ZM323.109 23.6328C323.5 24.0885 323.858 24.5768 324.184 25.0977C324.509 25.5534 324.802 26.2044 325.062 27.0508C325.323 27.832 325.518 28.8737 325.648 30.1758C325.844 31.4779 325.941 33.1706 325.941 35.2539C325.941 38.5742 325.844 41.9271 325.648 45.3125C325.518 48.6328 325.388 51.5625 325.258 54.1016C325.193 56.3802 325.128 58.4961 325.062 60.4492C324.997 62.4023 324.932 64.1276 324.867 65.625C324.802 67.0573 324.704 68.1966 324.574 69.043C324.509 69.8893 324.444 70.3451 324.379 70.4102C324.118 70.6055 323.695 70.5404 323.109 70.2148C322.589 69.8242 322.003 69.3359 321.352 68.75C320.766 68.1641 320.212 67.5456 319.691 66.8945C319.171 66.2435 318.845 65.7227 318.715 65.332C318.715 65.0065 318.617 64.0625 318.422 62.5C316.859 63.4115 315.134 64.0625 313.246 64.4531C311.358 64.7786 309.47 64.9089 307.582 64.8438C305.759 64.7135 304.066 64.3555 302.504 63.7695C300.941 63.1836 299.77 62.4023 298.988 61.4258C298.663 61.0352 298.37 60.4492 298.109 59.668C297.914 58.8867 297.719 58.0078 297.523 57.0312C297.393 55.9896 297.263 54.9154 297.133 53.8086C297.003 52.6367 296.905 51.5625 296.84 50.5859C296.71 48.0469 297.035 45.8659 297.816 44.043C298.598 42.1549 300.03 40.7552 302.113 39.8438C303.025 39.4531 304.229 39.2578 305.727 39.2578C307.289 39.1927 308.819 39.2578 310.316 39.4531C311.879 39.5833 313.279 39.7786 314.516 40.0391C315.753 40.2344 316.534 40.3971 316.859 40.5273C316.599 37.207 316.404 34.3424 316.273 31.9336C316.143 29.4596 315.883 27.8646 315.492 27.1484C315.167 26.6927 314.776 26.237 314.32 25.7812C313.93 25.4557 313.409 25.0977 312.758 24.707C312.107 24.3164 311.326 24.0234 310.414 23.8281C309.698 23.6979 309.047 23.9909 308.461 24.707C307.94 25.3581 307.452 26.5299 306.996 28.2227C306.605 29.8503 306.378 32.3568 306.312 35.7422C304.034 35.8073 302.276 35.8073 301.039 35.7422C299.867 35.612 298.988 35.4818 298.402 35.3516C297.686 35.2214 297.263 35.0586 297.133 34.8633C297.003 34.6029 297.068 33.6589 297.328 32.0312C297.589 30.3385 297.947 28.5156 298.402 26.5625C298.923 24.6094 299.509 22.7539 300.16 20.9961C300.876 19.2383 301.625 18.1315 302.406 17.6758C303.969 16.7643 305.824 16.4388 307.973 16.6992C310.186 16.9596 312.335 17.513 314.418 18.3594C316.501 19.2057 318.357 20.1497 319.984 21.1914C321.612 22.2331 322.654 23.0469 323.109 23.6328ZM317.055 52.1484C317.055 51.8229 317.087 51.3997 317.152 50.8789C317.217 50.293 317.25 49.707 317.25 49.1211C317.25 48.5352 317.217 47.9818 317.152 47.4609C317.152 46.9401 317.087 46.5495 316.957 46.2891C316.762 45.8984 316.176 45.5729 315.199 45.3125C314.288 45.0521 313.246 44.8893 312.074 44.8242C310.902 44.694 309.796 44.6615 308.754 44.7266C307.712 44.7266 306.996 44.8568 306.605 45.1172C306.085 45.4427 305.694 45.8984 305.434 46.4844C305.238 47.0703 305.108 47.9818 305.043 49.2188C305.043 49.8047 305.076 50.4232 305.141 51.0742C305.206 51.7253 305.271 52.3763 305.336 53.0273C305.466 53.6133 305.596 54.1341 305.727 54.5898C305.922 55.0456 306.117 55.3385 306.312 55.4688C306.768 55.7943 307.549 56.0872 308.656 56.3477C309.828 56.543 311 56.6081 312.172 56.543C313.344 56.4128 314.418 56.0221 315.395 55.3711C316.371 54.7201 316.924 53.6458 317.055 52.1484Z" fill="#FFFEF7"/>
</svg>
