<svg width="513" height="564" viewBox="0 0 513 564" fill="none" xmlns="http://www.w3.org/2000/svg">
<g filter="url(#filter0_d_0_1)">
<rect x="4" width="505" height="556" fill="#E2E1E0"/>
<rect x="4.5" y="0.5" width="504" height="555" stroke="#1C1C8C"/>
</g>
<path d="M475.5 22.6409C471 647.641 496 509.141 238.5 529.141C-59.8578 552.314 35.5002 476.141 21.0002 145.141C16.8823 51.1409 54.5002 42.6409 54.5002 33.6409C63.5002 8.14092 453.5 33.6409 475.5 22.6409Z" fill="#42FC14"/>
<path d="M475.5 22.6409C471 647.641 496 509.141 238.5 529.141C-59.8578 552.314 35.5002 476.141 21.0002 145.141C16.8823 51.1409 54.5002 42.6409 54.5002 33.6409C63.5002 8.14092 453.5 33.6409 475.5 22.6409Z" fill="url(#paint0_linear_0_1)" fill-opacity="0.5"/>
<path d="M482 87V88" stroke="#3C3B3B" stroke-width="3" stroke-linecap="round"/>
<path d="M482 81V84" stroke="#3C3B3B" stroke-width="3" stroke-linecap="round"/>
<path d="M482 73V76" stroke="#3C3B3B" stroke-width="3" stroke-linecap="round"/>
<path d="M482 64V68" stroke="#3C3B3B" stroke-width="3" stroke-linecap="round"/>
<path d="M214 532H218" stroke="#3C3B3B" stroke-width="3" stroke-linecap="round"/>
<path d="M201 532H206" stroke="#3C3B3B" stroke-width="3" stroke-linecap="round"/>
<path d="M182 532H189" stroke="#3C3B3B" stroke-width="3" stroke-linecap="round"/>
<path d="M164 532H171" stroke="#3C3B3B" stroke-width="3" stroke-linecap="round"/>
<path d="M35 421V424" stroke="#3C3B3B" stroke-width="3" stroke-linecap="round"/>
<path d="M35 413V416" stroke="#3C3B3B" stroke-width="3" stroke-linecap="round"/>
<path d="M35 401V406" stroke="#3C3B3B" stroke-width="3" stroke-linecap="round"/>
<path d="M35 390V394" stroke="#3C3B3B" stroke-width="3" stroke-linecap="round"/>
<path d="M307 23H311" stroke="#3C3B3B" stroke-width="3" stroke-linecap="round"/>
<path d="M296 23H300" stroke="#3C3B3B" stroke-width="3" stroke-linecap="round"/>
<path d="M279 23H286" stroke="#3C3B3B" stroke-width="3" stroke-linecap="round"/>
<path d="M263 23H269" stroke="#3C3B3B" stroke-width="3" stroke-linecap="round"/>
<path d="M256 23.1712C207.441 23.1712 158.883 23.1712 110.324 23.1712C99.2581 23.1712 87.3938 21.9357 76.7657 26.1032C61.3176 32.1607 48.0289 51.4923 41.2458 67.2726C22.226 111.52 30.2978 160.291 33.1829 207.273C36.8263 266.603 34.3815 326.568 34.3815 386" stroke="#3C3B3B" stroke-width="3" stroke-linecap="round"/>
<path d="M226 530.835C258.319 530.835 290.539 529.339 322.91 531.466C363.418 534.128 405.598 535.89 445.899 530.429C459.037 528.649 472.147 520.494 476.333 509.736C484.479 488.803 481.726 463.661 481.778 442.02C481.828 420.621 481.778 399.221 481.778 377.821C481.778 282.18 484.528 186.65 481.778 91" stroke="#3C3B3B" stroke-width="3" stroke-linecap="round"/>
<ellipse cx="46" cy="496" rx="18" ry="15" fill="#F50D0D"/>
<path d="M36.3265 483.399C33.8646 485.468 31.3633 487.516 29.788 490.147C28.2505 492.714 27.8117 495.599 27.6375 498.447C27.4896 500.865 28.0886 503.154 29.4085 505.297C31.2346 508.261 34.3749 511.302 38.012 512.811C41.2154 514.14 44.8974 514.206 48.3967 513.832C49.8819 513.674 51.0941 513.614 52.5021 513.08C55.3772 511.99 58.0179 510.412 60.2357 508.549C62.3599 506.763 63.5652 504.519 64.5179 502.165C65.711 499.217 66.1668 496.289 64.9671 493.319C63.5829 489.892 60.816 486.697 56.8934 484.985C51.9791 482.841 46.1709 483.202 40.9183 482.203" stroke="#3C3B3B" stroke-linecap="round"/>
<ellipse cx="76" cy="523.5" rx="10" ry="8.5" fill="#FCE514"/>
<path d="M80.2172 517C79.9592 517.023 79.8455 517.259 79.5657 517.296C78.2833 517.467 77.0691 517.628 75.8035 517.88C72.1383 518.608 68.7901 520.832 67.5631 523.776C66.7885 525.635 66.6677 527.961 68.1383 529.625C69.1484 530.767 70.8637 531.745 72.3994 532.355C77.9752 534.57 86.4563 530.783 85.9808 525.498C85.6807 522.161 84.4103 519.409 80.4051 518.052C76.8965 516.863 73.0067 517.26 69.3356 517.516" stroke="#3C3B3B" stroke-linecap="round"/>
<ellipse cx="37" cy="479.5" rx="8" ry="6.5" fill="#3AF44C"/>
<path d="M40.4438 486.261C40.2005 486.469 39.9294 486.589 39.5722 486.606C37.0879 486.723 34.2604 485.909 31.9853 485.137C29.9832 484.457 27.8943 483.354 27.2879 481.459C26.5584 479.18 27.271 476.653 28.7972 474.732C30.6806 472.361 33.5988 471.624 36.8037 472.172C40.1613 472.746 44.4425 474.528 45.6094 477.512C47.9542 483.509 39.1706 485.998 34.4873 488" stroke="#3C3B3B" stroke-linecap="round"/>
<mask id="path-28-outside-1_0_1" maskUnits="userSpaceOnUse" x="355" y="18" width="114" height="23" fill="black">
<rect fill="white" x="355" y="18" width="114" height="23"/>
<path d="M357.752 19.95C358.132 19.95 358.472 20.05 358.772 20.25C359.092 20.45 359.282 20.8 359.342 21.3C359.582 22.88 359.732 24.46 359.792 26.04C359.872 27.6 359.912 29.37 359.912 31.35C359.912 32.19 359.842 33.72 359.702 35.94C360.582 36.02 361.262 36.06 361.742 36.06C362.082 36.06 362.852 36.01 364.052 35.91C364.752 35.81 365.362 35.76 365.882 35.76C366.362 35.76 366.802 35.81 367.202 35.91C367.602 35.99 368.012 36.13 368.432 36.33C368.852 36.57 369.062 36.94 369.062 37.44C369.062 37.84 368.932 38.2 368.672 38.52C368.432 38.84 368.142 39 367.802 39C367.562 39 367.182 38.96 366.662 38.88C365.722 38.74 364.822 38.67 363.962 38.67C363.682 38.67 363.362 38.69 363.002 38.73C362.662 38.75 362.412 38.76 362.252 38.76C361.772 38.82 361.292 38.85 360.812 38.85C359.832 38.85 358.952 38.8 358.172 38.7C357.772 38.66 357.372 38.51 356.972 38.25C356.572 37.97 356.372 37.57 356.372 37.05C356.372 36.75 356.412 35.98 356.492 34.74C356.632 32.68 356.702 31.11 356.702 30.03C356.702 29.19 356.662 28.31 356.582 27.39C356.502 26.47 356.452 25.89 356.432 25.65C356.252 23.95 356.162 22.55 356.162 21.45C356.162 20.93 356.282 20.55 356.522 20.31C356.782 20.07 357.192 19.95 357.752 19.95ZM370.558 32.64C370.558 31.88 370.698 31.12 370.978 30.36C371.258 29.58 371.628 28.87 372.088 28.23C372.548 27.59 373.278 27.07 374.278 26.67C375.278 26.25 376.168 26.04 376.948 26.04C377.748 26.04 378.558 26.15 379.378 26.37C380.218 26.59 380.798 26.93 381.118 27.39C381.858 28.43 382.228 29.45 382.228 30.45C382.228 30.99 382.108 31.45 381.868 31.83C381.648 32.21 381.328 32.62 380.908 33.06C380.568 33.42 380.028 33.66 379.288 33.78C378.568 33.9 377.848 33.96 377.128 33.96C376.668 33.96 376.108 33.92 375.448 33.84C374.788 33.74 374.148 33.62 373.528 33.48C373.568 33.88 373.668 34.27 373.828 34.65C373.988 35.03 374.178 35.32 374.398 35.52C374.798 35.9 375.208 36.14 375.628 36.24C376.068 36.34 376.628 36.39 377.308 36.39C378.028 36.39 378.698 36.27 379.318 36.03C379.818 35.85 380.228 35.76 380.548 35.76C380.928 35.76 381.218 35.88 381.418 36.12C381.618 36.34 381.718 36.63 381.718 36.99C381.718 37.49 381.428 37.9 380.848 38.22C380.268 38.54 379.598 38.78 378.838 38.94C378.098 39.08 377.498 39.15 377.038 39.15C376.098 39.15 375.188 38.98 374.308 38.64C373.428 38.3 372.698 37.82 372.118 37.2C371.638 36.64 371.258 35.97 370.978 35.19C370.698 34.39 370.558 33.54 370.558 32.64ZM377.098 28.59C376.658 28.59 376.218 28.68 375.778 28.86C375.338 29.02 374.978 29.25 374.698 29.55C374.338 29.93 374.088 30.24 373.948 30.48C373.828 30.7 373.748 31.01 373.708 31.41C374.208 31.57 375.248 31.65 376.828 31.65C377.688 31.65 378.348 31.52 378.808 31.26C379.288 31 379.528 30.66 379.528 30.24C379.528 29.82 379.268 29.44 378.748 29.1C378.228 28.76 377.678 28.59 377.098 28.59ZM395.235 25.77C395.635 25.77 395.945 25.87 396.165 26.07C396.405 26.25 396.525 26.48 396.525 26.76C396.525 26.96 396.485 27.17 396.405 27.39C396.345 27.59 396.275 27.8 396.195 28.02C395.735 29.1 394.765 30.61 393.285 32.55C394.805 34.51 396.035 35.77 396.975 36.33C397.055 36.37 397.205 36.44 397.425 36.54C397.645 36.64 397.815 36.76 397.935 36.9C398.075 37.04 398.145 37.2 398.145 37.38C398.145 37.82 397.975 38.18 397.635 38.46C397.315 38.72 396.925 38.85 396.465 38.85C395.685 38.85 394.835 38.42 393.915 37.56C392.995 36.68 392.215 35.76 391.575 34.8C391.115 35.5 390.585 36.2 389.985 36.9C389.405 37.58 388.865 38.16 388.365 38.64C388.165 38.86 387.925 39.03 387.645 39.15C387.385 39.27 387.125 39.33 386.865 39.33C386.505 39.33 386.185 39.25 385.905 39.09C385.625 38.93 385.485 38.65 385.485 38.25C385.485 38.15 385.555 37.99 385.695 37.77C385.835 37.53 385.915 37.39 385.935 37.35C386.175 36.93 386.495 36.5 386.895 36.06C387.295 35.6 387.545 35.31 387.645 35.19C387.885 34.89 388.145 34.6 388.425 34.32C388.585 34.14 388.825 33.86 389.145 33.48C389.465 33.1 389.685 32.8 389.805 32.58L388.755 31.14C388.255 30.56 387.825 30.1 387.465 29.76C387.105 29.4 386.815 29.22 386.595 29.22C386.275 29.22 385.975 29.31 385.695 29.49C385.455 29.65 385.215 29.73 384.975 29.73C384.715 29.73 384.515 29.67 384.375 29.55C384.235 29.41 384.165 29.26 384.165 29.1C384.165 28.42 384.435 27.84 384.975 27.36C385.515 26.86 386.195 26.61 387.015 26.61C387.795 26.61 388.485 26.88 389.085 27.42C389.705 27.94 390.315 28.64 390.915 29.52C390.995 29.6 391.085 29.73 391.185 29.91C391.285 30.09 391.385 30.24 391.485 30.36C391.705 30.04 392.105 29.42 392.685 28.5C393.305 27.4 393.675 26.77 393.795 26.61C394.215 26.05 394.695 25.77 395.235 25.77ZM411.348 39.12C410.668 39.12 410.148 39.02 409.788 38.82C409.428 38.6 409.038 38.2 408.618 37.62C408.098 38.08 407.318 38.45 406.278 38.73C405.258 39.01 404.378 39.15 403.638 39.15C402.418 39.15 401.428 38.82 400.668 38.16C399.928 37.48 399.558 36.49 399.558 35.19C399.558 34.63 399.708 34.12 400.008 33.66C400.328 33.18 400.738 32.76 401.238 32.4C401.798 32.02 402.458 31.72 403.218 31.5C403.998 31.28 404.708 31.17 405.348 31.17C406.428 31.17 407.388 31.27 408.228 31.47V31.44C408.228 30.36 407.958 29.62 407.418 29.22C406.898 28.8 406.058 28.59 404.898 28.59C404.158 28.59 403.518 28.92 402.978 29.58C402.778 29.84 402.358 29.97 401.718 29.97C401.398 29.97 401.158 29.84 400.998 29.58C400.858 29.3 400.788 29.02 400.788 28.74C400.788 28.16 401.028 27.66 401.508 27.24C402.008 26.82 402.608 26.51 403.308 26.31C404.008 26.09 404.658 25.98 405.258 25.98C405.838 25.98 406.528 26.1 407.328 26.34C408.128 26.58 408.778 26.9 409.278 27.3C409.878 27.82 410.338 28.43 410.658 29.13C410.998 29.81 411.168 30.56 411.168 31.38C411.168 31.64 411.148 32.03 411.108 32.55C411.068 33.15 411.048 33.64 411.048 34.02C411.048 34.2 411.028 34.43 410.988 34.71C410.948 35.07 410.928 35.37 410.928 35.61C410.928 35.87 411.008 36.12 411.168 36.36C411.328 36.6 411.548 36.8 411.828 36.96C412.088 37.1 412.258 37.25 412.338 37.41C412.418 37.57 412.458 37.75 412.458 37.95C412.458 38.15 412.328 38.4 412.068 38.7C411.828 38.98 411.588 39.12 411.348 39.12ZM405.348 33.39C404.568 33.39 403.878 33.54 403.278 33.84C402.678 34.14 402.378 34.67 402.378 35.43C402.378 35.81 402.508 36.13 402.768 36.39C403.048 36.65 403.348 36.78 403.668 36.78C404.528 36.78 405.248 36.69 405.828 36.51C406.408 36.33 407.108 36 407.928 35.52C408.028 35.2 408.088 34.75 408.108 34.17C408.108 33.95 408.118 33.78 408.138 33.66C407.058 33.48 406.128 33.39 405.348 33.39Z"/>
<path d="M416.964 20.85C417.704 23.05 418.544 25.47 419.484 28.11C420.424 30.73 421.284 33 422.064 34.92C422.644 33.06 423.444 30.83 424.464 28.23C425.484 25.61 426.434 23.25 427.314 21.15C427.574 20.53 428.014 20.22 428.634 20.22C429.214 20.22 429.654 20.34 429.954 20.58C430.254 20.8 430.404 21.19 430.404 21.75C430.404 21.97 430.374 22.16 430.314 22.32C430.254 22.48 430.164 22.69 430.044 22.95C429.424 24.17 428.804 25.58 428.184 27.18C427.564 28.76 426.804 30.77 425.904 33.21C425.944 33.11 425.664 33.86 425.064 35.46L424.074 38.04C423.954 38.36 423.754 38.61 423.474 38.79C423.214 38.95 422.914 39.03 422.574 39.03C422.234 39.03 421.854 38.95 421.434 38.79C421.034 38.61 420.744 38.43 420.564 38.25C419.884 36.95 419.014 35.07 417.954 32.61C416.914 30.15 416.014 27.88 415.254 25.8L414.804 24.57C414.504 23.73 414.284 23.09 414.144 22.65C414.004 22.19 413.934 21.82 413.934 21.54C413.934 21.14 414.154 20.82 414.594 20.58C415.054 20.34 415.494 20.22 415.914 20.22C416.134 20.22 416.344 20.27 416.544 20.37C416.744 20.47 416.884 20.63 416.964 20.85ZM433.85 19.74C434.55 19.8 435.15 19.99 435.65 20.31C436.17 20.61 436.43 21.07 436.43 21.69C436.43 22.15 436.22 22.52 435.8 22.8C435.38 23.06 434.86 23.19 434.24 23.19C433.66 23.19 433.26 23.04 433.04 22.74C432.82 22.44 432.71 22.13 432.71 21.81C432.71 21.23 432.78 20.74 432.92 20.34C433.06 19.92 433.37 19.72 433.85 19.74ZM433.25 32.13V31.26C433.25 30.26 433.2 29.35 433.1 28.53C433.02 27.69 432.97 27.17 432.95 26.97C432.97 26.75 433.12 26.54 433.4 26.34C433.68 26.14 433.93 26.04 434.15 26.04C434.53 26.04 434.91 26.12 435.29 26.28C435.69 26.42 435.94 26.6 436.04 26.82C436.14 27.56 436.19 28.13 436.19 28.53C436.19 29.41 436.23 30.85 436.31 32.85L436.34 34.02L436.4 35.16C436.42 35.48 436.44 35.86 436.46 36.3C436.48 36.74 436.49 37.24 436.49 37.8C436.49 38.18 436.3 38.5 435.92 38.76C435.56 39.02 435.18 39.15 434.78 39.15C434.2 39.15 433.79 39.02 433.55 38.76C433.33 38.5 433.22 38.09 433.22 37.53L433.25 32.13ZM446.957 31.29C447.017 31.13 447.227 30.55 447.587 29.55C447.967 28.55 448.317 27.79 448.637 27.27C449.157 26.45 449.617 26.04 450.017 26.04C450.577 26.04 451.007 26.15 451.307 26.37C451.607 26.57 451.757 26.86 451.757 27.24C451.757 27.42 451.677 27.67 451.517 27.99C451.377 28.31 451.297 28.5 451.277 28.56C450.477 30.32 449.757 32.21 449.117 34.23L448.487 36.57C448.247 37.33 447.837 37.95 447.257 38.43C446.677 38.89 445.997 39.12 445.217 39.12C444.517 39.12 443.867 38.8 443.267 38.16C442.907 37.6 442.527 36.89 442.127 36.03C441.747 35.17 441.417 34.33 441.137 33.51L440.087 30.36C439.867 29.74 439.687 29.21 439.547 28.77C439.427 28.33 439.367 27.93 439.367 27.57C439.347 27.15 439.467 26.81 439.727 26.55C439.987 26.29 440.347 26.16 440.807 26.16C441.327 26.16 441.697 26.27 441.917 26.49C442.137 26.69 442.337 27.01 442.517 27.45C442.597 27.91 442.817 28.85 443.177 30.27L443.387 31.11C443.567 31.79 443.797 32.48 444.077 33.18C444.357 33.88 444.637 34.55 444.917 35.19C444.877 35.09 445.017 35.42 445.337 36.18C445.537 35.6 445.767 34.89 446.027 34.05L446.957 31.29ZM467.534 37.56C467.534 38 467.294 38.37 466.814 38.67C466.354 38.97 465.924 39.12 465.524 39.12C464.764 39.12 464.154 39.03 463.694 38.85C463.254 38.65 462.844 38.29 462.464 37.77C461.944 38.23 461.234 38.58 460.334 38.82C459.434 39.04 458.604 39.15 457.844 39.15C456.604 39.15 455.584 38.82 454.784 38.16C453.984 37.48 453.584 36.49 453.584 35.19C453.584 34.63 453.734 34.12 454.034 33.66C454.334 33.18 454.744 32.76 455.264 32.4C455.844 32.02 456.504 31.73 457.244 31.53C457.984 31.31 458.754 31.2 459.554 31.2C459.974 31.2 460.474 31.28 461.054 31.44C461.634 31.6 462.084 31.77 462.404 31.95V31.47C462.404 30.39 462.144 29.65 461.624 29.25C461.104 28.83 460.264 28.62 459.104 28.62C458.764 28.62 458.424 28.69 458.084 28.83C457.764 28.97 457.394 29.16 456.974 29.4C456.414 29.7 455.884 29.85 455.384 29.85C455.204 29.85 455.034 29.73 454.874 29.49C454.714 29.23 454.634 29 454.634 28.8C454.634 28.22 454.904 27.72 455.444 27.3C456.004 26.88 456.664 26.57 457.424 26.37C458.184 26.15 458.864 26.04 459.464 26.04C460.064 26.04 460.754 26.16 461.534 26.4C462.314 26.62 462.954 26.93 463.454 27.33C464.054 27.85 464.514 28.46 464.834 29.16C465.174 29.84 465.344 30.59 465.344 31.41C465.344 31.67 465.324 32.06 465.284 32.58C465.244 33.14 465.224 33.62 465.224 34.02C465.224 34.2 465.204 34.47 465.164 34.83C465.124 35.27 465.104 35.62 465.104 35.88C465.104 36.12 465.194 36.33 465.374 36.51C465.554 36.67 465.764 36.75 466.004 36.75L466.844 36.72C467.064 36.72 467.234 36.8 467.354 36.96C467.474 37.12 467.534 37.32 467.534 37.56ZM457.874 36.78C458.734 36.78 459.454 36.69 460.034 36.51C460.614 36.33 461.314 36 462.134 35.52C462.214 35.18 462.264 34.73 462.284 34.17C461.184 33.65 460.274 33.39 459.554 33.39C458.734 33.39 458.004 33.54 457.364 33.84C456.724 34.14 456.404 34.67 456.404 35.43C456.404 35.81 456.564 36.13 456.884 36.39C457.204 36.65 457.534 36.78 457.874 36.78Z"/>
</mask>
<path d="M357.752 19.95C358.132 19.95 358.472 20.05 358.772 20.25C359.092 20.45 359.282 20.8 359.342 21.3C359.582 22.88 359.732 24.46 359.792 26.04C359.872 27.6 359.912 29.37 359.912 31.35C359.912 32.19 359.842 33.72 359.702 35.94C360.582 36.02 361.262 36.06 361.742 36.06C362.082 36.06 362.852 36.01 364.052 35.91C364.752 35.81 365.362 35.76 365.882 35.76C366.362 35.76 366.802 35.81 367.202 35.91C367.602 35.99 368.012 36.13 368.432 36.33C368.852 36.57 369.062 36.94 369.062 37.44C369.062 37.84 368.932 38.2 368.672 38.52C368.432 38.84 368.142 39 367.802 39C367.562 39 367.182 38.96 366.662 38.88C365.722 38.74 364.822 38.67 363.962 38.67C363.682 38.67 363.362 38.69 363.002 38.73C362.662 38.75 362.412 38.76 362.252 38.76C361.772 38.82 361.292 38.85 360.812 38.85C359.832 38.85 358.952 38.8 358.172 38.7C357.772 38.66 357.372 38.51 356.972 38.25C356.572 37.97 356.372 37.57 356.372 37.05C356.372 36.75 356.412 35.98 356.492 34.74C356.632 32.68 356.702 31.11 356.702 30.03C356.702 29.19 356.662 28.31 356.582 27.39C356.502 26.47 356.452 25.89 356.432 25.65C356.252 23.95 356.162 22.55 356.162 21.45C356.162 20.93 356.282 20.55 356.522 20.31C356.782 20.07 357.192 19.95 357.752 19.95ZM370.558 32.64C370.558 31.88 370.698 31.12 370.978 30.36C371.258 29.58 371.628 28.87 372.088 28.23C372.548 27.59 373.278 27.07 374.278 26.67C375.278 26.25 376.168 26.04 376.948 26.04C377.748 26.04 378.558 26.15 379.378 26.37C380.218 26.59 380.798 26.93 381.118 27.39C381.858 28.43 382.228 29.45 382.228 30.45C382.228 30.99 382.108 31.45 381.868 31.83C381.648 32.21 381.328 32.62 380.908 33.06C380.568 33.42 380.028 33.66 379.288 33.78C378.568 33.9 377.848 33.96 377.128 33.96C376.668 33.96 376.108 33.92 375.448 33.84C374.788 33.74 374.148 33.62 373.528 33.48C373.568 33.88 373.668 34.27 373.828 34.65C373.988 35.03 374.178 35.32 374.398 35.52C374.798 35.9 375.208 36.14 375.628 36.24C376.068 36.34 376.628 36.39 377.308 36.39C378.028 36.39 378.698 36.27 379.318 36.03C379.818 35.85 380.228 35.76 380.548 35.76C380.928 35.76 381.218 35.88 381.418 36.12C381.618 36.34 381.718 36.63 381.718 36.99C381.718 37.49 381.428 37.9 380.848 38.22C380.268 38.54 379.598 38.78 378.838 38.94C378.098 39.08 377.498 39.15 377.038 39.15C376.098 39.15 375.188 38.98 374.308 38.64C373.428 38.3 372.698 37.82 372.118 37.2C371.638 36.64 371.258 35.97 370.978 35.19C370.698 34.39 370.558 33.54 370.558 32.64ZM377.098 28.59C376.658 28.59 376.218 28.68 375.778 28.86C375.338 29.02 374.978 29.25 374.698 29.55C374.338 29.93 374.088 30.24 373.948 30.48C373.828 30.7 373.748 31.01 373.708 31.41C374.208 31.57 375.248 31.65 376.828 31.65C377.688 31.65 378.348 31.52 378.808 31.26C379.288 31 379.528 30.66 379.528 30.24C379.528 29.82 379.268 29.44 378.748 29.1C378.228 28.76 377.678 28.59 377.098 28.59ZM395.235 25.77C395.635 25.77 395.945 25.87 396.165 26.07C396.405 26.25 396.525 26.48 396.525 26.76C396.525 26.96 396.485 27.17 396.405 27.39C396.345 27.59 396.275 27.8 396.195 28.02C395.735 29.1 394.765 30.61 393.285 32.55C394.805 34.51 396.035 35.77 396.975 36.33C397.055 36.37 397.205 36.44 397.425 36.54C397.645 36.64 397.815 36.76 397.935 36.9C398.075 37.04 398.145 37.2 398.145 37.38C398.145 37.82 397.975 38.18 397.635 38.46C397.315 38.72 396.925 38.85 396.465 38.85C395.685 38.85 394.835 38.42 393.915 37.56C392.995 36.68 392.215 35.76 391.575 34.8C391.115 35.5 390.585 36.2 389.985 36.9C389.405 37.58 388.865 38.16 388.365 38.64C388.165 38.86 387.925 39.03 387.645 39.15C387.385 39.27 387.125 39.33 386.865 39.33C386.505 39.33 386.185 39.25 385.905 39.09C385.625 38.93 385.485 38.65 385.485 38.25C385.485 38.15 385.555 37.99 385.695 37.77C385.835 37.53 385.915 37.39 385.935 37.35C386.175 36.93 386.495 36.5 386.895 36.06C387.295 35.6 387.545 35.31 387.645 35.19C387.885 34.89 388.145 34.6 388.425 34.32C388.585 34.14 388.825 33.86 389.145 33.48C389.465 33.1 389.685 32.8 389.805 32.58L388.755 31.14C388.255 30.56 387.825 30.1 387.465 29.76C387.105 29.4 386.815 29.22 386.595 29.22C386.275 29.22 385.975 29.31 385.695 29.49C385.455 29.65 385.215 29.73 384.975 29.73C384.715 29.73 384.515 29.67 384.375 29.55C384.235 29.41 384.165 29.26 384.165 29.1C384.165 28.42 384.435 27.84 384.975 27.36C385.515 26.86 386.195 26.61 387.015 26.61C387.795 26.61 388.485 26.88 389.085 27.42C389.705 27.94 390.315 28.64 390.915 29.52C390.995 29.6 391.085 29.73 391.185 29.91C391.285 30.09 391.385 30.24 391.485 30.36C391.705 30.04 392.105 29.42 392.685 28.5C393.305 27.4 393.675 26.77 393.795 26.61C394.215 26.05 394.695 25.77 395.235 25.77ZM411.348 39.12C410.668 39.12 410.148 39.02 409.788 38.82C409.428 38.6 409.038 38.2 408.618 37.62C408.098 38.08 407.318 38.45 406.278 38.73C405.258 39.01 404.378 39.15 403.638 39.15C402.418 39.15 401.428 38.82 400.668 38.16C399.928 37.48 399.558 36.49 399.558 35.19C399.558 34.63 399.708 34.12 400.008 33.66C400.328 33.18 400.738 32.76 401.238 32.4C401.798 32.02 402.458 31.72 403.218 31.5C403.998 31.28 404.708 31.17 405.348 31.17C406.428 31.17 407.388 31.27 408.228 31.47V31.44C408.228 30.36 407.958 29.62 407.418 29.22C406.898 28.8 406.058 28.59 404.898 28.59C404.158 28.59 403.518 28.92 402.978 29.58C402.778 29.84 402.358 29.97 401.718 29.97C401.398 29.97 401.158 29.84 400.998 29.58C400.858 29.3 400.788 29.02 400.788 28.74C400.788 28.16 401.028 27.66 401.508 27.24C402.008 26.82 402.608 26.51 403.308 26.31C404.008 26.09 404.658 25.98 405.258 25.98C405.838 25.98 406.528 26.1 407.328 26.34C408.128 26.58 408.778 26.9 409.278 27.3C409.878 27.82 410.338 28.43 410.658 29.13C410.998 29.81 411.168 30.56 411.168 31.38C411.168 31.64 411.148 32.03 411.108 32.55C411.068 33.15 411.048 33.64 411.048 34.02C411.048 34.2 411.028 34.43 410.988 34.71C410.948 35.07 410.928 35.37 410.928 35.61C410.928 35.87 411.008 36.12 411.168 36.36C411.328 36.6 411.548 36.8 411.828 36.96C412.088 37.1 412.258 37.25 412.338 37.41C412.418 37.57 412.458 37.75 412.458 37.95C412.458 38.15 412.328 38.4 412.068 38.7C411.828 38.98 411.588 39.12 411.348 39.12ZM405.348 33.39C404.568 33.39 403.878 33.54 403.278 33.84C402.678 34.14 402.378 34.67 402.378 35.43C402.378 35.81 402.508 36.13 402.768 36.39C403.048 36.65 403.348 36.78 403.668 36.78C404.528 36.78 405.248 36.69 405.828 36.51C406.408 36.33 407.108 36 407.928 35.52C408.028 35.2 408.088 34.75 408.108 34.17C408.108 33.95 408.118 33.78 408.138 33.66C407.058 33.48 406.128 33.39 405.348 33.39Z" fill="#FE4646"/>
<path d="M416.964 20.85C417.704 23.05 418.544 25.47 419.484 28.11C420.424 30.73 421.284 33 422.064 34.92C422.644 33.06 423.444 30.83 424.464 28.23C425.484 25.61 426.434 23.25 427.314 21.15C427.574 20.53 428.014 20.22 428.634 20.22C429.214 20.22 429.654 20.34 429.954 20.58C430.254 20.8 430.404 21.19 430.404 21.75C430.404 21.97 430.374 22.16 430.314 22.32C430.254 22.48 430.164 22.69 430.044 22.95C429.424 24.17 428.804 25.58 428.184 27.18C427.564 28.76 426.804 30.77 425.904 33.21C425.944 33.11 425.664 33.86 425.064 35.46L424.074 38.04C423.954 38.36 423.754 38.61 423.474 38.79C423.214 38.95 422.914 39.03 422.574 39.03C422.234 39.03 421.854 38.95 421.434 38.79C421.034 38.61 420.744 38.43 420.564 38.25C419.884 36.95 419.014 35.07 417.954 32.61C416.914 30.15 416.014 27.88 415.254 25.8L414.804 24.57C414.504 23.73 414.284 23.09 414.144 22.65C414.004 22.19 413.934 21.82 413.934 21.54C413.934 21.14 414.154 20.82 414.594 20.58C415.054 20.34 415.494 20.22 415.914 20.22C416.134 20.22 416.344 20.27 416.544 20.37C416.744 20.47 416.884 20.63 416.964 20.85ZM433.85 19.74C434.55 19.8 435.15 19.99 435.65 20.31C436.17 20.61 436.43 21.07 436.43 21.69C436.43 22.15 436.22 22.52 435.8 22.8C435.38 23.06 434.86 23.19 434.24 23.19C433.66 23.19 433.26 23.04 433.04 22.74C432.82 22.44 432.71 22.13 432.71 21.81C432.71 21.23 432.78 20.74 432.92 20.34C433.06 19.92 433.37 19.72 433.85 19.74ZM433.25 32.13V31.26C433.25 30.26 433.2 29.35 433.1 28.53C433.02 27.69 432.97 27.17 432.95 26.97C432.97 26.75 433.12 26.54 433.4 26.34C433.68 26.14 433.93 26.04 434.15 26.04C434.53 26.04 434.91 26.12 435.29 26.28C435.69 26.42 435.94 26.6 436.04 26.82C436.14 27.56 436.19 28.13 436.19 28.53C436.19 29.41 436.23 30.85 436.31 32.85L436.34 34.02L436.4 35.16C436.42 35.48 436.44 35.86 436.46 36.3C436.48 36.74 436.49 37.24 436.49 37.8C436.49 38.18 436.3 38.5 435.92 38.76C435.56 39.02 435.18 39.15 434.78 39.15C434.2 39.15 433.79 39.02 433.55 38.76C433.33 38.5 433.22 38.09 433.22 37.53L433.25 32.13ZM446.957 31.29C447.017 31.13 447.227 30.55 447.587 29.55C447.967 28.55 448.317 27.79 448.637 27.27C449.157 26.45 449.617 26.04 450.017 26.04C450.577 26.04 451.007 26.15 451.307 26.37C451.607 26.57 451.757 26.86 451.757 27.24C451.757 27.42 451.677 27.67 451.517 27.99C451.377 28.31 451.297 28.5 451.277 28.56C450.477 30.32 449.757 32.21 449.117 34.23L448.487 36.57C448.247 37.33 447.837 37.95 447.257 38.43C446.677 38.89 445.997 39.12 445.217 39.12C444.517 39.12 443.867 38.8 443.267 38.16C442.907 37.6 442.527 36.89 442.127 36.03C441.747 35.17 441.417 34.33 441.137 33.51L440.087 30.36C439.867 29.74 439.687 29.21 439.547 28.77C439.427 28.33 439.367 27.93 439.367 27.57C439.347 27.15 439.467 26.81 439.727 26.55C439.987 26.29 440.347 26.16 440.807 26.16C441.327 26.16 441.697 26.27 441.917 26.49C442.137 26.69 442.337 27.01 442.517 27.45C442.597 27.91 442.817 28.85 443.177 30.27L443.387 31.11C443.567 31.79 443.797 32.48 444.077 33.18C444.357 33.88 444.637 34.55 444.917 35.19C444.877 35.09 445.017 35.42 445.337 36.18C445.537 35.6 445.767 34.89 446.027 34.05L446.957 31.29ZM467.534 37.56C467.534 38 467.294 38.37 466.814 38.67C466.354 38.97 465.924 39.12 465.524 39.12C464.764 39.12 464.154 39.03 463.694 38.85C463.254 38.65 462.844 38.29 462.464 37.77C461.944 38.23 461.234 38.58 460.334 38.82C459.434 39.04 458.604 39.15 457.844 39.15C456.604 39.15 455.584 38.82 454.784 38.16C453.984 37.48 453.584 36.49 453.584 35.19C453.584 34.63 453.734 34.12 454.034 33.66C454.334 33.18 454.744 32.76 455.264 32.4C455.844 32.02 456.504 31.73 457.244 31.53C457.984 31.31 458.754 31.2 459.554 31.2C459.974 31.2 460.474 31.28 461.054 31.44C461.634 31.6 462.084 31.77 462.404 31.95V31.47C462.404 30.39 462.144 29.65 461.624 29.25C461.104 28.83 460.264 28.62 459.104 28.62C458.764 28.62 458.424 28.69 458.084 28.83C457.764 28.97 457.394 29.16 456.974 29.4C456.414 29.7 455.884 29.85 455.384 29.85C455.204 29.85 455.034 29.73 454.874 29.49C454.714 29.23 454.634 29 454.634 28.8C454.634 28.22 454.904 27.72 455.444 27.3C456.004 26.88 456.664 26.57 457.424 26.37C458.184 26.15 458.864 26.04 459.464 26.04C460.064 26.04 460.754 26.16 461.534 26.4C462.314 26.62 462.954 26.93 463.454 27.33C464.054 27.85 464.514 28.46 464.834 29.16C465.174 29.84 465.344 30.59 465.344 31.41C465.344 31.67 465.324 32.06 465.284 32.58C465.244 33.14 465.224 33.62 465.224 34.02C465.224 34.2 465.204 34.47 465.164 34.83C465.124 35.27 465.104 35.62 465.104 35.88C465.104 36.12 465.194 36.33 465.374 36.51C465.554 36.67 465.764 36.75 466.004 36.75L466.844 36.72C467.064 36.72 467.234 36.8 467.354 36.96C467.474 37.12 467.534 37.32 467.534 37.56ZM457.874 36.78C458.734 36.78 459.454 36.69 460.034 36.51C460.614 36.33 461.314 36 462.134 35.52C462.214 35.18 462.264 34.73 462.284 34.17C461.184 33.65 460.274 33.39 459.554 33.39C458.734 33.39 458.004 33.54 457.364 33.84C456.724 34.14 456.404 34.67 456.404 35.43C456.404 35.81 456.564 36.13 456.884 36.39C457.204 36.65 457.534 36.78 457.874 36.78Z" fill="#E2E1E0"/>
<path d="M358.772 20.25L358.217 21.082L358.229 21.0902L358.242 21.098L358.772 20.25ZM359.342 21.3L358.349 21.4191L358.351 21.4347L358.353 21.4502L359.342 21.3ZM359.792 26.04L358.792 26.078L358.793 26.0912L359.792 26.04ZM359.702 35.94L358.704 35.8771L358.642 36.8478L359.611 36.9359L359.702 35.94ZM364.052 35.91L364.135 36.9065L364.164 36.9041L364.193 36.8999L364.052 35.91ZM367.202 35.91L366.959 36.8801L366.982 36.8859L367.005 36.8906L367.202 35.91ZM368.432 36.33L368.928 35.4618L368.895 35.4432L368.861 35.4271L368.432 36.33ZM368.672 38.52L367.895 37.8894L367.883 37.9045L367.872 37.92L368.672 38.52ZM366.662 38.88L366.814 37.8916L366.809 37.8909L366.662 38.88ZM363.002 38.73L363.06 39.7283L363.086 39.7268L363.112 39.7239L363.002 38.73ZM362.252 38.76V37.76H362.189L362.127 37.7677L362.252 38.76ZM358.172 38.7L358.299 37.7081L358.285 37.7063L358.271 37.705L358.172 38.7ZM356.972 38.25L356.398 39.0692L356.412 39.0791L356.427 39.0884L356.972 38.25ZM356.492 34.74L355.494 34.6722L355.494 34.6756L356.492 34.74ZM356.432 25.65L357.428 25.567L357.427 25.5558L357.426 25.5447L356.432 25.65ZM356.522 20.31L355.843 19.5752L355.829 19.5888L355.814 19.6029L356.522 20.31ZM357.752 20.95C357.945 20.95 358.09 20.9976 358.217 21.082L359.326 19.418C358.853 19.1024 358.318 18.95 357.752 18.95V20.95ZM358.242 21.098C358.247 21.1014 358.258 21.1076 358.275 21.1396C358.296 21.1785 358.33 21.2627 358.349 21.4191L360.334 21.1809C360.251 20.488 359.958 19.8122 359.302 19.402L358.242 21.098ZM358.353 21.4502C358.587 22.9934 358.734 24.5359 358.792 26.0779L360.791 26.0021C360.729 24.3841 360.576 22.7666 360.33 21.1498L358.353 21.4502ZM358.793 26.0912C358.872 27.6304 358.912 29.3828 358.912 31.35H360.912C360.912 29.3572 360.871 27.5696 360.79 25.9888L358.793 26.0912ZM358.912 31.35C358.912 32.1543 358.844 33.6548 358.704 35.8771L360.7 36.0029C360.839 33.7852 360.912 32.2257 360.912 31.35H358.912ZM359.611 36.9359C360.501 37.0168 361.216 37.06 361.742 37.06V35.06C361.307 35.06 360.662 35.0232 359.792 34.9441L359.611 36.9359ZM361.742 37.06C362.132 37.06 362.947 37.0055 364.135 36.9065L363.968 34.9135C362.756 35.0145 362.031 35.06 361.742 35.06V37.06ZM364.193 36.8999C364.862 36.8044 365.422 36.76 365.882 36.76V34.76C365.301 34.76 364.642 34.8156 363.91 34.9201L364.193 36.8999ZM365.882 36.76C366.293 36.76 366.65 36.8029 366.959 36.8801L367.444 34.9399C366.953 34.8171 366.43 34.76 365.882 34.76V36.76ZM367.005 36.8906C367.314 36.9523 367.646 37.0634 368.002 37.2329L368.861 35.4271C368.377 35.1966 367.889 35.0277 367.398 34.9294L367.005 36.8906ZM367.935 37.1982C368.011 37.2416 368.03 37.2727 368.034 37.2811C368.04 37.2911 368.062 37.3325 368.062 37.44H370.062C370.062 36.5961 369.672 35.8871 368.928 35.4618L367.935 37.1982ZM368.062 37.44C368.062 37.6028 368.015 37.7417 367.895 37.8894L369.448 39.1506C369.848 38.6583 370.062 38.0772 370.062 37.44H368.062ZM367.872 37.92C367.845 37.9549 367.825 37.9764 367.811 37.9888C367.804 37.995 367.799 37.9989 367.796 38.0012C367.794 38.0024 367.793 38.0032 367.792 38.0037C367.791 38.0042 367.791 38.0044 367.791 38.0044C367.791 38.0044 367.791 38.0043 367.792 38.004C367.792 38.0037 367.793 38.0034 367.794 38.003C367.796 38.0021 367.799 38.0014 367.801 38.0008C367.806 37.9994 367.807 38 367.802 38V40C368.514 40 369.08 39.6415 369.472 39.12L367.872 37.92ZM367.802 38C367.643 38 367.328 37.9708 366.814 37.8916L366.509 39.8684C367.035 39.9492 367.48 40 367.802 40V38ZM366.809 37.8909C365.825 37.7444 364.876 37.67 363.962 37.67V39.67C364.767 39.67 365.618 39.7356 366.514 39.8691L366.809 37.8909ZM363.962 37.67C363.636 37.67 363.278 37.6932 362.891 37.7361L363.112 39.7239C363.445 39.6868 363.727 39.67 363.962 39.67V37.67ZM362.943 37.7317C362.606 37.7516 362.38 37.76 362.252 37.76V39.76C362.443 39.76 362.717 39.7484 363.06 39.7283L362.943 37.7317ZM362.127 37.7677C361.688 37.8226 361.25 37.85 360.812 37.85V39.85C361.333 39.85 361.855 39.8174 362.376 39.7523L362.127 37.7677ZM360.812 37.85C359.864 37.85 359.028 37.8016 358.299 37.7081L358.044 39.6919C358.875 39.7984 359.799 39.85 360.812 39.85V37.85ZM358.271 37.705C358.057 37.6836 357.808 37.6007 357.517 37.4116L356.427 39.0884C356.936 39.4193 357.486 39.6364 358.072 39.695L358.271 37.705ZM357.545 37.4308C357.432 37.3518 357.372 37.2687 357.372 37.05H355.372C355.372 37.8713 355.711 38.5882 356.398 39.0692L357.545 37.4308ZM357.372 37.05C357.372 36.7897 357.409 36.0572 357.489 34.8044L355.494 34.6756C355.414 35.9028 355.372 36.7103 355.372 37.05H357.372ZM357.489 34.8078C357.63 32.7416 357.702 31.1446 357.702 30.03H355.702C355.702 31.0754 355.633 32.6184 355.494 34.6722L357.489 34.8078ZM357.702 30.03C357.702 29.1584 357.66 28.2494 357.578 27.3034L355.585 27.4766C355.663 28.3706 355.702 29.2216 355.702 30.03H357.702ZM357.578 27.3034C357.498 26.3828 357.448 25.8048 357.428 25.567L355.435 25.733C355.455 25.9752 355.505 26.5572 355.585 27.4766L357.578 27.3034ZM357.426 25.5447C357.248 23.8628 357.162 22.5012 357.162 21.45H355.162C355.162 22.5988 355.255 24.0372 355.437 25.7553L357.426 25.5447ZM357.162 21.45C357.162 21.057 357.255 20.9904 357.229 21.0171L355.814 19.6029C355.308 20.1096 355.162 20.803 355.162 21.45H357.162ZM357.2 21.0448C357.193 21.051 357.303 20.95 357.752 20.95V18.95C357.08 18.95 356.37 19.089 355.843 19.5752L357.2 21.0448ZM370.978 30.36L371.916 30.7057L371.919 30.6979L370.978 30.36ZM372.088 28.23L371.276 27.6464L371.276 27.6464L372.088 28.23ZM374.278 26.67L374.649 27.5985L374.657 27.5953L374.665 27.592L374.278 26.67ZM379.378 26.37L379.119 27.3359L379.125 27.3374L379.378 26.37ZM381.118 27.39L380.297 27.9611L380.303 27.9698L381.118 27.39ZM381.868 31.83L381.023 31.296L381.012 31.3123L381.003 31.329L381.868 31.83ZM380.908 33.06L380.185 32.3695L380.181 32.3734L380.908 33.06ZM379.288 33.78L379.128 32.7929L379.124 32.7936L379.288 33.78ZM375.448 33.84L375.298 34.8287L375.313 34.8309L375.328 34.8327L375.448 33.84ZM373.528 33.48L373.748 32.5046L372.395 32.199L372.533 33.5795L373.528 33.48ZM373.828 34.65L374.75 34.2619L374.75 34.2619L373.828 34.65ZM374.398 35.52L375.087 34.795L375.079 34.7874L375.071 34.7801L374.398 35.52ZM375.628 36.24L375.396 37.2129L375.406 37.2151L375.628 36.24ZM379.318 36.03L378.979 35.0891L378.968 35.0931L378.957 35.0974L379.318 36.03ZM381.418 36.12L380.65 36.7602L380.664 36.7767L380.678 36.7927L381.418 36.12ZM380.848 38.22L380.365 37.3444L380.365 37.3444L380.848 38.22ZM378.838 38.94L379.024 39.9226L379.034 39.9207L379.044 39.9185L378.838 38.94ZM374.308 38.64L373.948 39.5728L373.948 39.5728L374.308 38.64ZM372.118 37.2L371.359 37.8508L371.373 37.8673L371.388 37.8832L372.118 37.2ZM370.978 35.19L370.034 35.5204L370.037 35.5279L370.978 35.19ZM375.778 28.86L376.12 29.7998L376.138 29.793L376.157 29.7855L375.778 28.86ZM374.698 29.55L375.424 30.2378L375.429 30.2323L374.698 29.55ZM373.948 30.48L373.084 29.9761L373.077 29.9885L373.07 30.0011L373.948 30.48ZM373.708 31.41L372.713 31.3105L372.632 32.1158L373.403 32.3624L373.708 31.41ZM378.808 31.26L378.332 30.3807L378.324 30.385L378.316 30.3894L378.808 31.26ZM371.558 32.64C371.558 32.0055 371.674 31.3623 371.916 30.7057L370.04 30.0143C369.722 30.8777 369.558 31.7545 369.558 32.64H371.558ZM371.919 30.6979C372.169 30.0009 372.497 29.3743 372.9 28.8136L371.276 27.6464C370.759 28.3657 370.347 29.1591 370.037 30.0221L371.919 30.6979ZM372.9 28.8136C373.215 28.3751 373.763 27.9529 374.649 27.5985L373.907 25.7415C372.793 26.1871 371.881 26.8049 371.276 27.6464L372.9 28.8136ZM374.665 27.592C375.587 27.2047 376.342 27.04 376.948 27.04V25.04C375.994 25.04 374.969 25.2953 373.891 25.748L374.665 27.592ZM376.948 27.04C377.655 27.04 378.378 27.1371 379.119 27.3358L379.637 25.4042C378.738 25.1629 377.841 25.04 376.948 25.04V27.04ZM379.125 27.3374C379.855 27.5287 380.17 27.7791 380.297 27.9611L381.939 26.8189C381.426 26.0809 380.581 25.6513 379.631 25.4026L379.125 27.3374ZM380.303 27.9698C380.956 28.8873 381.228 29.7088 381.228 30.45H383.228C383.228 29.1912 382.76 27.9727 381.933 26.8102L380.303 27.9698ZM381.228 30.45C381.228 30.8394 381.143 31.1055 381.023 31.296L382.713 32.364C383.073 31.7945 383.228 31.1406 383.228 30.45H381.228ZM381.003 31.329C380.834 31.6198 380.569 31.9666 380.185 32.3695L381.631 33.7505C382.087 33.2734 382.462 32.8002 382.733 32.331L381.003 31.329ZM380.181 32.3734C380.052 32.5102 379.757 32.6909 379.128 32.7929L379.448 34.7671C380.299 34.6291 381.084 34.3298 381.635 33.7466L380.181 32.3734ZM379.124 32.7936C378.457 32.9047 377.792 32.96 377.128 32.96V34.96C377.904 34.96 378.679 34.8953 379.452 34.7664L379.124 32.7936ZM377.128 32.96C376.722 32.96 376.204 32.9244 375.568 32.8473L375.328 34.8327C376.012 34.9156 376.614 34.96 377.128 34.96V32.96ZM375.598 32.8513C374.96 32.7547 374.344 32.639 373.748 32.5046L373.308 34.4554C373.952 34.601 374.616 34.7253 375.298 34.8287L375.598 32.8513ZM372.533 33.5795C372.583 34.0814 372.709 34.5685 372.906 35.0381L374.75 34.2619C374.627 33.9715 374.553 33.6786 374.523 33.3805L372.533 33.5795ZM372.906 35.0381C373.102 35.5034 373.365 35.932 373.725 36.2599L375.071 34.7801C374.991 34.708 374.874 34.5566 374.75 34.2619L372.906 35.0381ZM373.709 36.245C374.202 36.7133 374.763 37.0621 375.396 37.2128L375.86 35.2672C375.653 35.2179 375.394 35.0867 375.087 34.795L373.709 36.245ZM375.406 37.2151C375.946 37.3377 376.587 37.39 377.308 37.39V35.39C376.669 35.39 376.19 35.3423 375.85 35.2649L375.406 37.2151ZM377.308 37.39C378.141 37.39 378.935 37.2507 379.679 36.9626L378.957 35.0974C378.461 35.2893 377.915 35.39 377.308 35.39V37.39ZM379.657 36.9709C380.11 36.8077 380.395 36.76 380.548 36.76V34.76C380.061 34.76 379.526 34.8923 378.979 35.0891L379.657 36.9709ZM380.548 36.76C380.634 36.76 380.667 36.7736 380.668 36.774C380.669 36.7742 380.665 36.7726 380.659 36.7684C380.656 36.7665 380.654 36.7646 380.652 36.7629C380.651 36.7612 380.65 36.7602 380.65 36.7602L382.186 35.4798C381.755 34.9627 381.154 34.76 380.548 34.76V36.76ZM380.678 36.7927C380.684 36.799 380.69 36.8076 380.698 36.8285C380.706 36.8522 380.718 36.9021 380.718 36.99H382.718C382.718 36.4364 382.559 35.8885 382.158 35.4473L380.678 36.7927ZM380.718 36.99C380.718 37.0322 380.71 37.0581 380.684 37.095C380.649 37.144 380.563 37.2351 380.365 37.3444L381.331 39.0956C382.111 38.6654 382.718 37.9726 382.718 36.99H380.718ZM380.365 37.3444C379.885 37.6091 379.311 37.8184 378.632 37.9615L379.044 39.9185C379.885 39.7416 380.651 39.4709 381.331 39.0956L380.365 37.3444ZM378.652 37.9574C377.94 38.0922 377.409 38.15 377.038 38.15V40.15C377.587 40.15 378.256 40.0678 379.024 39.9226L378.652 37.9574ZM377.038 38.15C376.222 38.15 375.434 38.0029 374.668 37.7072L373.948 39.5728C374.942 39.9571 375.974 40.15 377.038 40.15V38.15ZM374.668 37.7072C373.913 37.4154 373.314 37.0151 372.848 36.5168L371.388 37.8832C372.082 38.6249 372.943 39.1846 373.948 39.5728L374.668 37.7072ZM372.877 36.5492C372.486 36.0923 372.163 35.5317 371.919 34.8521L370.037 35.5279C370.353 36.4083 370.79 37.1877 371.359 37.8508L372.877 36.5492ZM371.922 34.8596C371.681 34.1722 371.558 33.4345 371.558 32.64H369.558C369.558 33.6455 369.715 34.6078 370.034 35.5204L371.922 34.8596ZM377.098 27.59C376.518 27.59 375.95 27.7093 375.399 27.9345L376.157 29.7855C376.486 29.6507 376.798 29.59 377.098 29.59V27.59ZM375.436 27.9202C374.869 28.1265 374.369 28.437 373.967 28.8677L375.429 30.2323C375.587 30.063 375.807 29.9135 376.12 29.7998L375.436 27.9202ZM373.972 28.8623C373.597 29.2582 373.283 29.635 373.084 29.9761L374.812 30.9839C374.893 30.845 375.079 30.6018 375.424 30.2377L373.972 28.8623ZM373.07 30.0011C372.859 30.3881 372.759 30.8484 372.713 31.3105L374.703 31.5095C374.737 31.1716 374.797 31.0119 374.826 30.9589L373.07 30.0011ZM373.403 32.3624C373.768 32.4793 374.249 32.5457 374.786 32.5871C375.341 32.6297 376.024 32.65 376.828 32.65V30.65C376.052 30.65 375.425 30.6303 374.94 30.5929C374.437 30.5543 374.148 30.5007 374.013 30.4576L373.403 32.3624ZM376.828 32.65C377.764 32.65 378.624 32.5129 379.3 32.1306L378.316 30.3894C378.072 30.5271 377.612 30.65 376.828 30.65V32.65ZM379.284 32.1393C379.974 31.7654 380.528 31.1393 380.528 30.24H378.528C378.528 30.2484 378.527 30.2464 378.529 30.2389C378.532 30.2312 378.534 30.2288 378.531 30.2333C378.523 30.2447 378.477 30.3021 378.332 30.3807L379.284 32.1393ZM380.528 30.24C380.528 29.34 379.953 28.6931 379.295 28.263L378.201 29.937C378.387 30.0589 378.473 30.1534 378.508 30.2047C378.524 30.2283 378.528 30.2405 378.528 30.2416C378.529 30.2424 378.528 30.2421 378.528 30.241C378.528 30.2398 378.528 30.2393 378.528 30.24H380.528ZM379.295 28.263C378.625 27.8246 377.886 27.59 377.098 27.59V29.59C377.47 29.59 377.831 29.6954 378.201 29.937L379.295 28.263ZM396.165 26.07L395.492 26.8099L395.527 26.8417L395.565 26.87L396.165 26.07ZM396.405 27.39L395.465 27.0483L395.455 27.0752L395.447 27.1027L396.405 27.39ZM396.195 28.02L397.115 28.4119L397.125 28.3871L397.135 28.3617L396.195 28.02ZM393.285 32.55L392.49 31.9435L392.023 32.555L392.495 33.1628L393.285 32.55ZM396.975 36.33L396.463 37.1891L396.495 37.208L396.528 37.2244L396.975 36.33ZM397.425 36.54L397.011 37.4504L397.011 37.4504L397.425 36.54ZM397.935 36.9L397.176 37.5508L397.201 37.58L397.228 37.6071L397.935 36.9ZM397.635 38.46L398.265 39.2361L398.271 39.2319L397.635 38.46ZM393.915 37.56L393.224 38.2827L393.232 38.2905L393.915 37.56ZM391.575 34.8L392.407 34.2453L391.569 32.9882L390.739 34.2508L391.575 34.8ZM389.985 36.9L389.226 36.2492L389.224 36.2511L389.985 36.9ZM388.365 38.64L387.672 37.9186L387.648 37.9422L387.625 37.9673L388.365 38.64ZM387.645 39.15L387.251 38.2309L387.238 38.2363L387.226 38.242L387.645 39.15ZM385.905 39.09L386.401 38.2218L386.401 38.2218L385.905 39.09ZM385.695 37.77L386.539 38.3069L386.549 38.2906L386.559 38.2739L385.695 37.77ZM385.935 37.35L385.067 36.8539L385.053 36.878L385.04 36.9028L385.935 37.35ZM386.895 36.06L387.635 36.7327L387.642 36.7245L387.649 36.7162L386.895 36.06ZM387.645 35.19L388.413 35.8302L388.42 35.8225L388.426 35.8147L387.645 35.19ZM388.425 34.32L389.132 35.0271L389.153 35.0063L389.172 34.9844L388.425 34.32ZM389.145 33.48L388.38 32.8359L388.38 32.8359L389.145 33.48ZM389.805 32.58L390.683 33.0589L390.986 32.5027L390.613 31.9908L389.805 32.58ZM388.755 31.14L389.563 30.5508L389.539 30.5179L389.512 30.4871L388.755 31.14ZM387.465 29.76L386.758 30.4671L386.768 30.4772L386.778 30.487L387.465 29.76ZM385.695 29.49L385.154 28.6488L385.147 28.6533L385.14 28.6579L385.695 29.49ZM384.375 29.55L383.668 30.2571L383.695 30.2843L383.724 30.3093L384.375 29.55ZM384.975 27.36L385.639 28.1074L385.647 28.1007L385.654 28.0938L384.975 27.36ZM389.085 27.42L388.416 28.1633L388.429 28.175L388.442 28.1862L389.085 27.42ZM390.915 29.52L390.089 30.0833L390.141 30.1608L390.208 30.2271L390.915 29.52ZM391.485 30.36L390.717 31.0002L391.561 32.0139L392.309 30.9265L391.485 30.36ZM392.685 28.5L393.531 29.0333L393.544 29.0125L393.556 28.991L392.685 28.5ZM393.795 26.61L394.595 27.21L394.595 27.21L393.795 26.61ZM395.235 26.77C395.353 26.77 395.424 26.785 395.46 26.7967C395.493 26.8072 395.497 26.8146 395.492 26.8099L396.838 25.3301C396.378 24.9121 395.796 24.77 395.235 24.77V26.77ZM395.565 26.87C395.584 26.8843 395.567 26.8768 395.548 26.8401C395.539 26.8229 395.533 26.805 395.529 26.7884C395.525 26.7721 395.525 26.7618 395.525 26.76H397.525C397.525 26.14 397.236 25.6232 396.765 25.27L395.565 26.87ZM395.525 26.76C395.525 26.8255 395.512 26.9195 395.465 27.0483L397.345 27.7317C397.458 27.4205 397.525 27.0945 397.525 26.76H395.525ZM395.447 27.1027C395.393 27.2823 395.329 27.4741 395.255 27.6783L397.135 28.3617C397.22 28.1259 397.297 27.8977 397.363 27.6773L395.447 27.1027ZM395.275 27.6281C394.866 28.587 393.961 30.0145 392.49 31.9435L394.08 33.1565C395.568 31.2055 396.603 29.613 397.115 28.4119L395.275 27.6281ZM392.495 33.1628C394.019 35.128 395.347 36.5242 396.463 37.1891L397.487 35.4709C396.723 35.0158 395.591 33.892 394.075 31.9372L392.495 33.1628ZM396.528 37.2244C396.627 37.2739 396.793 37.351 397.011 37.4504L397.839 35.6296C397.617 35.529 397.483 35.4661 397.422 35.4356L396.528 37.2244ZM397.011 37.4504C397.138 37.508 397.175 37.5502 397.176 37.5508L398.694 36.2492C398.455 35.9698 398.152 35.772 397.839 35.6296L397.011 37.4504ZM397.228 37.6071C397.221 37.6006 397.197 37.5743 397.176 37.5258C397.154 37.4755 397.145 37.4236 397.145 37.38H399.145C399.145 36.907 398.949 36.4998 398.642 36.1929L397.228 37.6071ZM397.145 37.38C397.145 37.5208 397.109 37.5978 396.999 37.6881L398.271 39.2319C398.841 38.7622 399.145 38.1192 399.145 37.38H397.145ZM397.004 37.6839C396.883 37.7822 396.723 37.85 396.465 37.85V39.85C397.126 39.85 397.746 39.6578 398.265 39.2361L397.004 37.6839ZM396.465 37.85C396.055 37.85 395.441 37.6173 394.598 36.8295L393.232 38.2905C394.229 39.2227 395.314 39.85 396.465 39.85V37.85ZM394.606 36.8374C393.734 36.0029 393.002 35.1384 392.407 34.2453L390.743 35.3547C391.427 36.3816 392.256 37.3571 393.224 38.2826L394.606 36.8374ZM390.739 34.2508C390.305 34.912 389.801 35.5783 389.226 36.2492L390.744 37.5508C391.369 36.8217 391.925 36.088 392.411 35.3492L390.739 34.2508ZM389.224 36.2511C388.66 36.9126 388.143 37.4671 387.672 37.9186L389.057 39.3614C389.587 38.8529 390.15 38.2474 390.746 37.5489L389.224 36.2511ZM387.625 37.9673C387.524 38.0787 387.403 38.1659 387.251 38.2309L388.039 40.0691C388.447 39.8941 388.806 39.6413 389.105 39.3127L387.625 37.9673ZM387.226 38.242C387.084 38.3076 386.966 38.33 386.865 38.33V40.33C387.284 40.33 387.686 40.2324 388.064 40.058L387.226 38.242ZM386.865 38.33C386.658 38.33 386.513 38.2857 386.401 38.2218L385.409 39.9582C385.857 40.2143 386.352 40.33 386.865 40.33V38.33ZM386.401 38.2218C386.41 38.2268 386.426 38.238 386.444 38.257C386.463 38.2762 386.476 38.2963 386.484 38.3128C386.5 38.3448 386.485 38.3366 386.485 38.25H384.485C384.485 38.9079 384.738 39.5752 385.409 39.9582L386.401 38.2218ZM386.485 38.25C386.485 38.2952 386.481 38.3325 386.477 38.3601C386.473 38.3879 386.467 38.4094 386.464 38.4237C386.456 38.451 386.45 38.4628 386.454 38.4558C386.456 38.4499 386.463 38.4341 386.478 38.4074C386.493 38.3811 386.512 38.3478 386.539 38.3069L384.851 37.2331C384.766 37.3676 384.684 37.5101 384.621 37.6542C384.566 37.7801 384.485 37.9952 384.485 38.25H386.485ZM386.559 38.2739C386.688 38.0518 386.791 37.8742 386.829 37.7972L385.04 36.9028C385.046 36.8916 385.047 36.8913 385.034 36.9131C385.025 36.9307 385.011 36.9556 384.992 36.9889C384.954 37.0551 384.901 37.1472 384.831 37.2661L386.559 38.2739ZM386.803 37.8461C387 37.502 387.273 37.1305 387.635 36.7327L386.155 35.3873C385.717 35.8695 385.35 36.358 385.067 36.8539L386.803 37.8461ZM387.649 36.7162C388.047 36.259 388.305 35.96 388.413 35.8302L386.877 34.5498C386.785 34.66 386.543 34.941 386.14 35.4038L387.649 36.7162ZM388.426 35.8147C388.642 35.5444 388.877 35.2818 389.132 35.0271L387.718 33.6129C387.412 33.9182 387.128 34.2356 386.864 34.5653L388.426 35.8147ZM389.172 34.9844C389.342 34.7939 389.589 34.5054 389.91 34.1241L388.38 32.8359C388.061 33.2146 387.828 33.4861 387.677 33.6556L389.172 34.9844ZM389.91 34.1241C390.24 33.7325 390.513 33.3701 390.683 33.0589L388.927 32.1011C388.857 32.2299 388.69 32.4675 388.38 32.8359L389.91 34.1241ZM390.613 31.9908L389.563 30.5508L387.947 31.7292L388.997 33.1692L390.613 31.9908ZM389.512 30.4871C389.001 29.8935 388.546 29.4055 388.152 29.033L386.778 30.487C387.104 30.7945 387.509 31.2265 387.997 31.7929L389.512 30.4871ZM388.172 29.0529C387.961 28.8424 387.738 28.6503 387.505 28.5054C387.282 28.3669 386.967 28.22 386.595 28.22V30.22C386.514 30.22 386.46 30.2036 386.44 30.1967C386.421 30.1899 386.424 30.1883 386.45 30.2046C386.506 30.2397 386.608 30.3176 386.758 30.4671L388.172 29.0529ZM386.595 28.22C386.075 28.22 385.589 28.3695 385.154 28.6488L386.236 30.3312C386.361 30.2505 386.475 30.22 386.595 30.22V28.22ZM385.14 28.6579C385.031 28.7309 384.981 28.73 384.975 28.73V30.73C385.449 30.73 385.879 30.5691 386.25 30.3221L385.14 28.6579ZM384.975 28.73C384.919 28.73 384.904 28.7233 384.917 28.7272C384.933 28.732 384.977 28.7486 385.026 28.7907L383.724 30.3093C384.107 30.6378 384.573 30.73 384.975 30.73V28.73ZM385.082 28.8429C385.079 28.8396 385.101 28.8606 385.124 28.9096C385.148 28.9623 385.165 29.0288 385.165 29.1H383.165C383.165 29.5852 383.387 29.9768 383.668 30.2571L385.082 28.8429ZM385.165 29.1C385.165 28.7252 385.298 28.4111 385.639 28.1074L384.311 26.6126C383.572 27.2689 383.165 28.1148 383.165 29.1H385.165ZM385.654 28.0938C385.988 27.785 386.416 27.61 387.015 27.61V25.61C385.974 25.61 385.042 25.935 384.295 26.6262L385.654 28.0938ZM387.015 27.61C387.539 27.61 387.992 27.7822 388.416 28.1633L389.754 26.6767C388.977 25.9778 388.051 25.61 387.015 25.61V27.61ZM388.442 28.1862C388.974 28.6321 389.525 29.2567 390.089 30.0833L391.741 28.9567C391.105 28.0233 390.436 27.2479 389.727 26.6538L388.442 28.1862ZM390.208 30.2271C390.192 30.2117 390.197 30.2132 390.22 30.2467C390.242 30.2781 390.272 30.3263 390.311 30.3956L392.059 29.4244C391.944 29.218 391.801 28.9917 391.622 28.8129L390.208 30.2271ZM390.311 30.3956C390.432 30.6142 390.566 30.8197 390.717 31.0002L392.253 29.7198C392.203 29.6603 392.138 29.5658 392.059 29.4244L390.311 30.3956ZM392.309 30.9265C392.542 30.5877 392.952 29.9514 393.531 29.0333L391.839 27.9667C391.258 28.8886 390.868 29.4923 390.661 29.7935L392.309 30.9265ZM393.556 28.991C393.865 28.4431 394.109 28.0164 394.29 27.7089C394.38 27.5549 394.452 27.4344 394.508 27.3452C394.535 27.3007 394.557 27.2665 394.574 27.2415C394.591 27.2144 394.598 27.2064 394.595 27.21L392.995 26.01C392.825 26.237 392.413 26.9462 391.814 28.009L393.556 28.991ZM394.595 27.21C394.887 26.8201 395.099 26.77 395.235 26.77V24.77C394.29 24.77 393.542 25.2799 392.995 26.01L394.595 27.21ZM409.788 38.82L409.267 39.6733L409.285 39.6841L409.303 39.6942L409.788 38.82ZM408.618 37.62L409.428 37.0335L408.782 36.1405L407.956 36.871L408.618 37.62ZM406.278 38.73L406.018 37.7644L406.014 37.7657L406.278 38.73ZM400.668 38.16L399.992 38.8963L400.002 38.9058L400.013 38.915L400.668 38.16ZM400.008 33.66L399.176 33.1053L399.171 33.1137L400.008 33.66ZM401.238 32.4L400.677 31.5725L400.665 31.5803L400.654 31.5885L401.238 32.4ZM403.218 31.5L402.947 30.5375L402.94 30.5394L403.218 31.5ZM408.228 31.47L407.997 32.4428L409.228 32.736V31.47H408.228ZM407.418 29.22L406.79 29.9979L406.806 30.0111L406.823 30.0236L407.418 29.22ZM402.978 29.58L402.204 28.9468L402.195 28.9584L402.186 28.9703L402.978 29.58ZM400.998 29.58L400.104 30.0272L400.124 30.0666L400.147 30.1041L400.998 29.58ZM401.508 27.24L400.865 26.4743L400.857 26.4808L400.85 26.4874L401.508 27.24ZM403.308 26.31L403.583 27.2715L403.596 27.2679L403.608 27.264L403.308 26.31ZM407.328 26.34L407.616 25.3822L407.616 25.3822L407.328 26.34ZM409.278 27.3L409.933 26.5443L409.918 26.5314L409.903 26.5191L409.278 27.3ZM410.658 29.13L409.749 29.5458L409.756 29.5616L409.764 29.5772L410.658 29.13ZM411.108 32.55L410.111 32.4733L410.111 32.4835L411.108 32.55ZM410.988 34.71L409.998 34.5686L409.996 34.584L409.995 34.5996L410.988 34.71ZM411.168 36.36L410.336 36.9147L410.336 36.9147L411.168 36.36ZM411.828 36.96L411.332 37.8282L411.343 37.8345L411.354 37.8405L411.828 36.96ZM412.068 38.7L411.313 38.0451L411.309 38.0492L412.068 38.7ZM402.768 36.39L402.061 37.0971L402.074 37.1102L402.088 37.1228L402.768 36.39ZM405.828 36.51L405.532 35.5549L405.532 35.5549L405.828 36.51ZM407.928 35.52L408.434 36.383L408.767 36.1876L408.883 35.8183L407.928 35.52ZM408.108 34.17L409.108 34.2045L409.108 34.1872V34.17H408.108ZM408.138 33.66L409.125 33.8244L409.289 32.838L408.303 32.6736L408.138 33.66ZM411.348 38.12C410.74 38.12 410.418 38.026 410.274 37.9458L409.303 39.6942C409.878 40.014 410.597 40.12 411.348 40.12V38.12ZM410.31 37.9667C410.115 37.8476 409.817 37.5707 409.428 37.0335L407.808 38.2065C408.259 38.8293 408.742 39.3524 409.267 39.6733L410.31 37.9667ZM407.956 36.871C407.598 37.1877 406.984 37.5045 406.018 37.7644L406.538 39.6956C407.653 39.3955 408.599 38.9723 409.281 38.369L407.956 36.871ZM406.014 37.7657C405.046 38.0312 404.26 38.15 403.638 38.15V40.15C404.497 40.15 405.47 39.9888 406.543 39.6943L406.014 37.7657ZM403.638 38.15C402.606 38.15 401.866 37.8752 401.324 37.405L400.013 38.915C400.991 39.7648 402.231 40.15 403.638 40.15V38.15ZM401.345 37.4237C400.867 36.9848 400.558 36.2971 400.558 35.19H398.558C398.558 36.6829 398.989 37.9752 399.992 38.8963L401.345 37.4237ZM400.558 35.19C400.558 34.8199 400.654 34.5004 400.846 34.2063L399.171 33.1137C398.763 33.7396 398.558 34.4401 398.558 35.19H400.558ZM400.84 34.2147C401.09 33.8411 401.413 33.5063 401.823 33.2115L400.654 31.5885C400.063 32.0137 399.567 32.5189 399.176 33.1053L400.84 34.2147ZM401.8 33.2275C402.26 32.9154 402.821 32.6562 403.496 32.4606L402.94 30.5394C402.096 30.7838 401.337 31.1245 400.677 31.5725L401.8 33.2275ZM403.49 32.4624C404.204 32.2611 404.821 32.17 405.348 32.17V30.17C404.596 30.17 403.793 30.2989 402.947 30.5376L403.49 32.4624ZM405.348 32.17C406.369 32.17 407.249 32.2647 407.997 32.4428L408.46 30.4972C407.528 30.2753 406.488 30.17 405.348 30.17V32.17ZM409.228 31.47V31.44H407.228V31.47H409.228ZM409.228 31.44C409.228 30.2373 408.932 29.0966 408.014 28.4164L406.823 30.0236C406.985 30.1434 407.228 30.4827 407.228 31.44H409.228ZM408.047 28.4421C407.259 27.8056 406.135 27.59 404.898 27.59V29.59C405.981 29.59 406.538 29.7944 406.79 29.9979L408.047 28.4421ZM404.898 27.59C403.811 27.59 402.902 28.0943 402.204 28.9468L403.752 30.2132C404.135 29.7457 404.506 29.59 404.898 29.59V27.59ZM402.186 28.9703C402.248 28.8891 402.296 28.8928 402.218 28.9172C402.136 28.9424 401.979 28.97 401.718 28.97V30.97C402.399 30.97 403.262 30.8509 403.771 30.1897L402.186 28.9703ZM401.718 28.97C401.696 28.97 401.725 28.9663 401.775 28.9932C401.798 29.0057 401.817 29.0205 401.831 29.0346C401.846 29.0483 401.851 29.0573 401.85 29.0559L400.147 30.1041C400.499 30.6767 401.071 30.97 401.718 30.97V28.97ZM401.893 29.1328C401.814 28.9751 401.788 28.8472 401.788 28.74H399.788C399.788 29.1928 399.903 29.6249 400.104 30.0272L401.893 29.1328ZM401.788 28.74C401.788 28.4791 401.88 28.2439 402.167 27.9926L400.85 26.4874C400.177 27.0761 399.788 27.8409 399.788 28.74H401.788ZM402.152 28.0057C402.532 27.686 403.003 27.4373 403.583 27.2715L403.034 25.3485C402.214 25.5827 401.485 25.954 400.865 26.4743L402.152 28.0057ZM403.608 27.264C404.232 27.068 404.78 26.98 405.258 26.98V24.98C404.537 24.98 403.785 25.112 403.009 25.356L403.608 27.264ZM405.258 26.98C405.709 26.98 406.297 27.0746 407.041 27.2978L407.616 25.3822C406.76 25.1254 405.968 24.98 405.258 24.98V26.98ZM407.041 27.2978C407.754 27.5117 408.279 27.7812 408.654 28.0809L409.903 26.5191C409.278 26.0188 408.503 25.6483 407.616 25.3822L407.041 27.2978ZM408.623 28.0557C409.119 28.485 409.49 28.9801 409.749 29.5458L411.568 28.7142C411.186 27.8799 410.638 27.155 409.933 26.5443L408.623 28.0557ZM409.764 29.5772C410.029 30.1076 410.168 30.7028 410.168 31.38H412.168C412.168 30.4172 411.968 29.5124 411.553 28.6828L409.764 29.5772ZM410.168 31.38C410.168 31.6001 410.151 31.9589 410.111 32.4733L412.105 32.6267C412.146 32.1011 412.168 31.6799 412.168 31.38H410.168ZM410.111 32.4835C410.07 33.0945 410.048 33.6089 410.048 34.02H412.048C412.048 33.6711 412.067 33.2055 412.106 32.6165L410.111 32.4835ZM410.048 34.02C410.048 34.1339 410.035 34.3122 409.998 34.5686L411.978 34.8514C412.022 34.5478 412.048 34.2661 412.048 34.02H410.048ZM409.995 34.5996C409.952 34.9798 409.928 35.3196 409.928 35.61H411.928C411.928 35.4204 411.945 35.1602 411.982 34.8204L409.995 34.5996ZM409.928 35.61C409.928 36.0887 410.079 36.5291 410.336 36.9147L412 35.8053C411.938 35.7109 411.928 35.6513 411.928 35.61H409.928ZM410.336 36.9147C410.592 37.2984 410.934 37.6004 411.332 37.8282L412.325 36.0918C412.163 35.9996 412.065 35.9016 412 35.8053L410.336 36.9147ZM411.354 37.8405C411.436 37.8845 411.476 37.9154 411.489 37.9273C411.503 37.9392 411.475 37.9183 411.444 37.8572L413.233 36.9628C413.018 36.5335 412.637 36.2595 412.302 36.0795L411.354 37.8405ZM411.444 37.8572C411.447 37.8627 411.458 37.8867 411.458 37.95H413.458C413.458 37.6133 413.39 37.2773 413.233 36.9628L411.444 37.8572ZM411.458 37.95C411.458 37.8917 411.468 37.8508 411.473 37.8318C411.479 37.8133 411.482 37.8109 411.474 37.8261C411.456 37.8599 411.411 37.9322 411.313 38.0451L412.824 39.3549C413.109 39.0261 413.458 38.5359 413.458 37.95H411.458ZM411.309 38.0492C411.276 38.0884 411.249 38.1146 411.23 38.1312C411.211 38.1478 411.202 38.1526 411.205 38.1512C411.207 38.1496 411.222 38.1414 411.248 38.1338C411.276 38.1258 411.31 38.12 411.348 38.12V40.12C412.007 40.12 412.5 39.7331 412.828 39.3508L411.309 38.0492ZM405.348 32.39C404.438 32.39 403.591 32.5657 402.831 32.9456L403.726 34.7344C404.166 34.5143 404.698 34.39 405.348 34.39V32.39ZM402.831 32.9456C402.372 33.1751 401.991 33.5144 401.733 33.9699C401.479 34.4181 401.378 34.9196 401.378 35.43H403.378C403.378 35.1804 403.427 35.0369 403.474 34.9551C403.516 34.8806 403.585 34.8049 403.726 34.7344L402.831 32.9456ZM401.378 35.43C401.378 36.0653 401.607 36.6427 402.061 37.0971L403.476 35.6829C403.41 35.6173 403.378 35.5547 403.378 35.43H401.378ZM402.088 37.1228C402.515 37.5192 403.048 37.78 403.668 37.78V35.78C403.648 35.78 403.582 35.7808 403.449 35.6572L402.088 37.1228ZM403.668 37.78C404.591 37.78 405.418 37.6844 406.125 37.4651L405.532 35.5549C405.079 35.6956 404.466 35.78 403.668 35.78V37.78ZM406.125 37.4651C406.807 37.2535 407.58 36.8825 408.434 36.383L407.423 34.657C406.637 35.1175 406.01 35.4065 405.532 35.5549L406.125 37.4651ZM408.883 35.8183C409.022 35.3726 409.087 34.819 409.108 34.2045L407.109 34.1355C407.09 34.681 407.035 35.0274 406.974 35.2217L408.883 35.8183ZM409.108 34.17C409.108 33.9686 409.118 33.8632 409.125 33.8244L407.152 33.4956C407.118 33.6968 407.108 33.9314 407.108 34.17H409.108ZM408.303 32.6736C407.188 32.4879 406.201 32.39 405.348 32.39V34.39C406.056 34.39 406.928 34.4721 407.974 34.6464L408.303 32.6736ZM416.964 20.85L417.912 20.5312L417.908 20.5197L417.904 20.5083L416.964 20.85ZM419.484 28.11L418.542 28.4454L418.543 28.4477L419.484 28.11ZM422.064 34.92L421.138 35.2964L422.188 37.8819L423.019 35.2177L422.064 34.92ZM424.464 28.23L425.395 28.5952L425.396 28.5928L424.464 28.23ZM427.314 21.15L426.392 20.7633L426.392 20.7635L427.314 21.15ZM429.954 20.58L429.329 21.3609L429.346 21.374L429.363 21.3864L429.954 20.58ZM430.314 22.32L429.378 21.9689L429.378 21.9689L430.314 22.32ZM430.044 22.95L430.936 23.403L430.944 23.3862L430.952 23.3691L430.044 22.95ZM428.184 27.18L429.115 27.5453L429.116 27.5413L428.184 27.18ZM425.904 33.21L424.966 32.8639L426.833 33.5814L425.904 33.21ZM425.064 35.46L425.998 35.8183L426 35.8111L425.064 35.46ZM424.074 38.04L423.14 37.6817L423.138 37.6889L424.074 38.04ZM423.474 38.79L423.998 39.6417L424.007 39.6365L424.015 39.6312L423.474 38.79ZM421.434 38.79L421.024 39.7019L421.051 39.714L421.078 39.7245L421.434 38.79ZM420.564 38.25L419.678 38.7135L419.749 38.849L419.857 38.9571L420.564 38.25ZM417.954 32.61L417.033 32.9994L417.036 33.0057L417.954 32.61ZM415.254 25.8L416.193 25.4568L416.193 25.4564L415.254 25.8ZM414.804 24.57L413.862 24.9063L413.865 24.9136L414.804 24.57ZM414.144 22.65L413.187 22.9412L413.191 22.9532L414.144 22.65ZM414.594 20.58L414.131 19.6934L414.123 19.6977L414.115 19.7021L414.594 20.58ZM416.544 20.37L416.991 19.4756L416.991 19.4756L416.544 20.37ZM416.016 21.1688C416.758 23.3754 417.6 25.801 418.542 28.4454L420.426 27.7746C419.488 25.139 418.65 22.7246 417.912 20.5312L416.016 21.1688ZM418.543 28.4477C419.486 31.0766 420.351 33.3601 421.138 35.2964L422.99 34.5436C422.217 32.6399 421.362 30.3834 420.425 27.7723L418.543 28.4477ZM423.019 35.2177C423.589 33.3879 424.38 31.1816 425.395 28.5952L423.533 27.8648C422.508 30.4784 421.699 32.7321 421.109 34.6223L423.019 35.2177ZM425.396 28.5928C426.413 25.979 427.36 23.6271 428.236 21.5365L426.392 20.7635C425.508 22.8729 424.555 25.241 423.532 27.8672L425.396 28.5928ZM428.236 21.5367C428.312 21.357 428.383 21.2927 428.415 21.27C428.442 21.2511 428.498 21.22 428.634 21.22V19.22C428.15 19.22 427.676 19.3439 427.263 19.635C426.855 19.9222 426.576 20.323 426.392 20.7633L428.236 21.5367ZM428.634 21.22C429.098 21.22 429.277 21.3191 429.329 21.3609L430.579 19.7991C430.031 19.3609 429.331 19.22 428.634 19.22V21.22ZM429.363 21.3864C429.34 21.3695 429.343 21.3576 429.358 21.3965C429.377 21.4453 429.404 21.5535 429.404 21.75H431.404C431.404 21.0387 431.212 20.2628 430.545 19.7736L429.363 21.3864ZM429.404 21.75C429.404 21.8829 429.385 21.9482 429.378 21.9689L431.25 22.6711C431.363 22.3718 431.404 22.0571 431.404 21.75H429.404ZM429.378 21.9689C429.33 22.0957 429.252 22.2805 429.136 22.5309L430.952 23.3691C431.076 23.0995 431.178 22.8643 431.25 22.6711L429.378 21.9689ZM429.153 22.4969C428.514 23.7532 427.881 25.1949 427.252 26.8187L429.116 27.5413C429.727 25.9651 430.334 24.5868 430.936 23.403L429.153 22.4969ZM427.253 26.8147C426.63 28.4035 425.867 30.4205 424.966 32.8639L426.842 33.5561C427.741 31.1195 428.498 29.1165 429.115 27.5453L427.253 26.8147ZM426.833 33.5814C426.832 33.5814 426.832 33.5817 426.832 33.5821C426.832 33.5825 426.832 33.5832 426.831 33.5841C426.831 33.5854 426.829 33.5897 426.827 33.5956C426.826 33.5962 426.817 33.6173 426.805 33.6432C426.801 33.6511 426.794 33.6651 426.784 33.6823C426.778 33.6938 426.756 33.7335 426.723 33.7807C426.703 33.8071 426.648 33.8733 426.611 33.912C426.537 33.9785 426.267 34.1343 426.062 34.1892C425.69 34.1771 425.136 33.8373 424.988 33.5937C424.944 33.4673 424.91 33.2688 424.908 33.2012C424.908 33.0998 424.924 33.0208 424.926 33.0109C424.931 32.9844 424.936 32.9636 424.939 32.9535C424.944 32.9325 424.949 32.9163 424.951 32.9106C424.955 32.8972 424.958 32.8872 424.959 32.8851C424.961 32.8789 424.963 32.8753 424.962 32.8773C424.959 32.8848 424.951 32.9066 424.936 32.948C424.907 33.0274 424.857 33.1603 424.787 33.3477C424.647 33.722 424.428 34.3089 424.128 35.1089L426 35.8111C426.3 35.0111 426.521 34.423 426.661 34.0473C426.731 33.8597 426.781 33.7238 426.812 33.6407C426.827 33.6009 426.839 33.568 426.846 33.5474C426.848 33.5424 426.851 33.5334 426.855 33.5235C426.856 33.5195 426.86 33.5081 426.864 33.4936C426.866 33.4874 426.871 33.4709 426.876 33.4495C426.879 33.4393 426.884 33.4184 426.889 33.3917C426.891 33.3817 426.908 33.3027 426.908 33.2012C426.905 33.1336 426.872 32.9351 426.828 32.8087C426.679 32.565 426.126 32.2253 425.753 32.2132C425.548 32.2681 425.279 32.4239 425.204 32.4904C425.167 32.5291 425.112 32.5954 425.093 32.6217C425.059 32.669 425.037 32.7087 425.031 32.7204C425.021 32.7377 425.014 32.7519 425.01 32.7599C424.997 32.7865 424.988 32.8086 424.987 32.8107C424.982 32.8232 424.977 32.8344 424.976 32.8386L426.833 33.5814ZM424.13 35.1017L423.14 37.6817L425.008 38.3983L425.998 35.8183L424.13 35.1017ZM423.138 37.6889C423.091 37.813 423.027 37.8886 422.933 37.9488L424.015 39.6312C424.481 39.3314 424.817 38.907 425.01 38.3911L423.138 37.6889ZM422.95 37.9383C422.865 37.9906 422.751 38.03 422.574 38.03V40.03C423.077 40.03 423.563 39.9094 423.998 39.6417L422.95 37.9383ZM422.574 38.03C422.388 38.03 422.131 37.9854 421.79 37.8555L421.078 39.7245C421.577 39.9146 422.08 40.03 422.574 40.03V38.03ZM421.844 37.8781C421.487 37.7172 421.325 37.5968 421.271 37.5429L419.857 38.9571C420.163 39.2632 420.581 39.5028 421.024 39.7019L421.844 37.8781ZM421.45 37.7865C420.788 36.5198 419.929 34.6667 418.872 32.2143L417.036 33.0057C418.099 35.4733 418.981 37.3802 419.678 38.7135L421.45 37.7865ZM418.875 32.2206C417.84 29.7729 416.947 27.5185 416.193 25.4568L414.315 26.1432C415.081 28.2415 415.988 30.5271 417.033 32.9994L418.875 32.2206ZM416.193 25.4564L415.743 24.2264L413.865 24.9136L414.315 26.1436L416.193 25.4564ZM415.746 24.2337C415.447 23.3966 415.232 22.7697 415.097 22.3468L413.191 22.9532C413.337 23.4103 413.561 24.0634 413.862 24.9063L415.746 24.2337ZM415.101 22.3588C414.972 21.9359 414.934 21.6754 414.934 21.54H412.934C412.934 21.9646 413.036 22.4441 413.187 22.9412L415.101 22.3588ZM414.934 21.54C414.934 21.5328 414.935 21.5368 414.932 21.5472C414.928 21.5579 414.924 21.5651 414.923 21.5665C414.922 21.5681 414.952 21.5238 415.073 21.4579L414.115 19.7021C413.45 20.0652 412.934 20.6767 412.934 21.54H414.934ZM415.057 21.4666C415.407 21.2838 415.689 21.22 415.914 21.22V19.22C415.299 19.22 414.701 19.3962 414.131 19.6934L415.057 21.4666ZM415.914 21.22C415.976 21.22 416.033 21.2327 416.097 21.2644L416.991 19.4756C416.655 19.3073 416.292 19.22 415.914 19.22V21.22ZM416.097 21.2644C416.087 21.2594 416.066 21.2462 416.046 21.2235C416.027 21.2014 416.022 21.1862 416.024 21.1917L417.904 20.5083C417.741 20.0603 417.432 19.6958 416.991 19.4756L416.097 21.2644ZM433.85 19.74L433.935 18.7437L433.914 18.7418L433.892 18.7409L433.85 19.74ZM435.65 20.31L435.111 21.1523L435.13 21.1647L435.15 21.1762L435.65 20.31ZM435.8 22.8L436.326 23.6503L436.341 23.6414L436.355 23.632L435.8 22.8ZM433.04 22.74L433.846 22.1486L433.846 22.1486L433.04 22.74ZM432.92 20.34L433.864 20.6703L433.866 20.6633L433.869 20.6562L432.92 20.34ZM433.25 32.13L434.25 32.1356V32.13H433.25ZM433.1 28.53L432.105 28.6248L432.106 28.638L432.107 28.6511L433.1 28.53ZM432.95 26.97L431.954 26.8795L431.946 26.9745L431.955 27.0695L432.95 26.97ZM435.29 26.28L434.902 27.2016L434.93 27.2136L434.96 27.2239L435.29 26.28ZM436.04 26.82L437.031 26.6861L437.011 26.5402L436.95 26.4062L436.04 26.82ZM436.31 32.85L437.31 32.8244L437.31 32.8172L437.309 32.81L436.31 32.85ZM436.34 34.02L435.34 34.0456L435.341 34.0591L435.341 34.0726L436.34 34.02ZM436.4 35.16L435.401 35.2126L435.402 35.2224L436.4 35.16ZM435.92 38.76L435.355 37.9347L435.345 37.9419L435.335 37.9493L435.92 38.76ZM433.55 38.76L432.787 39.4059L432.801 39.4224L432.815 39.4383L433.55 38.76ZM433.22 37.53L432.22 37.5244V37.53H433.22ZM433.765 20.7363C434.333 20.785 434.77 20.9343 435.111 21.1523L436.189 19.4677C435.53 19.0457 434.767 18.815 433.935 18.7437L433.765 20.7363ZM435.15 21.1762C435.348 21.2905 435.43 21.4129 435.43 21.69H437.43C437.43 20.7271 436.992 19.9295 436.15 19.4438L435.15 21.1762ZM435.43 21.69C435.43 21.779 435.419 21.8521 435.245 21.9679L436.355 23.632C437.021 23.1879 437.43 22.521 437.43 21.69H435.43ZM435.274 21.9497C435.048 22.0897 434.721 22.19 434.24 22.19V24.19C434.999 24.19 435.713 24.0303 436.326 23.6503L435.274 21.9497ZM434.24 22.19C434.03 22.19 433.912 22.162 433.856 22.1412C433.811 22.1241 433.825 22.1195 433.846 22.1486L432.234 23.3314C432.729 24.0064 433.524 24.19 434.24 24.19V22.19ZM433.846 22.1486C433.731 21.9913 433.71 21.8841 433.71 21.81H431.71C431.71 22.3759 431.909 22.8887 432.234 23.3314L433.846 22.1486ZM433.71 21.81C433.71 21.304 433.772 20.9331 433.864 20.6703L431.976 20.0096C431.788 20.5469 431.71 21.156 431.71 21.81H433.71ZM433.869 20.6562C433.876 20.6334 433.879 20.6367 433.866 20.6536C433.853 20.6723 433.83 20.6957 433.8 20.7153C433.77 20.7344 433.748 20.7404 433.744 20.7413C433.742 20.7417 433.761 20.7372 433.808 20.7391L433.892 18.7409C433.507 18.7249 433.09 18.7933 432.715 19.0347C432.333 19.2814 432.098 19.6427 431.971 20.0238L433.869 20.6562ZM434.25 32.13V31.26H432.25V32.13H434.25ZM434.25 31.26C434.25 30.2276 434.198 29.2764 434.093 28.4089L432.107 28.6511C432.202 29.4236 432.25 30.2924 432.25 31.26H434.25ZM434.096 28.4352C434.016 27.5961 433.965 27.0734 433.945 26.8705L431.955 27.0695C431.975 27.2666 432.024 27.7839 432.105 28.6248L434.096 28.4352ZM433.946 27.0605C433.942 27.1049 433.932 27.1437 433.919 27.1745C433.907 27.2046 433.896 27.2226 433.891 27.2287C433.887 27.2345 433.89 27.2297 433.904 27.2156C433.919 27.2015 433.944 27.1805 433.981 27.1537L432.819 25.5263C432.434 25.8014 432.012 26.24 431.954 26.8795L433.946 27.0605ZM433.981 27.1537C434.073 27.0881 434.135 27.0569 434.169 27.0435C434.201 27.0305 434.192 27.04 434.15 27.04V25.04C433.634 25.04 433.179 25.2686 432.819 25.5263L433.981 27.1537ZM434.15 27.04C434.386 27.04 434.634 27.0889 434.902 27.2016L435.678 25.3584C435.186 25.1511 434.674 25.04 434.15 25.04V27.04ZM434.96 27.2239C435.101 27.2731 435.169 27.3142 435.193 27.3315C435.215 27.3471 435.169 27.3205 435.13 27.2338L436.95 26.4062C436.677 25.8054 436.097 25.5031 435.62 25.3361L434.96 27.2239ZM435.049 26.9539C435.147 27.6805 435.19 28.1979 435.19 28.53H437.19C437.19 28.0621 437.133 27.4395 437.031 26.6861L435.049 26.9539ZM435.19 28.53C435.19 29.4317 435.231 30.889 435.311 32.89L437.309 32.81C437.229 30.811 437.19 29.3883 437.19 28.53H435.19ZM435.31 32.8756L435.34 34.0456L437.34 33.9944L437.31 32.8244L435.31 32.8756ZM435.341 34.0726L435.401 35.2126L437.399 35.1074L437.339 33.9674L435.341 34.0726ZM435.402 35.2224C435.422 35.5351 435.441 35.9091 435.461 36.3454L437.459 36.2546C437.439 35.8109 437.419 35.4249 437.398 35.0976L435.402 35.2224ZM435.461 36.3454C435.48 36.7669 435.49 37.2513 435.49 37.8H437.49C437.49 37.2287 437.48 36.7131 437.459 36.2546L435.461 36.3454ZM435.49 37.8C435.49 37.8108 435.489 37.8137 435.489 37.8118C435.49 37.8098 435.49 37.8101 435.488 37.8145C435.482 37.8233 435.453 37.8679 435.355 37.9347L436.485 39.5853C437.071 39.1839 437.49 38.5825 437.49 37.8H435.49ZM435.335 37.9493C435.125 38.1005 434.947 38.15 434.78 38.15V40.15C435.413 40.15 435.995 39.9395 436.506 39.5707L435.335 37.9493ZM434.78 38.15C434.559 38.15 434.42 38.1246 434.34 38.0993C434.265 38.0755 434.264 38.0592 434.285 38.0817L432.815 39.4383C433.336 40.0025 434.093 40.15 434.78 40.15V38.15ZM434.313 38.1141C434.319 38.1207 434.294 38.0952 434.268 37.9984C434.242 37.8998 434.22 37.7486 434.22 37.53H432.22C432.22 38.185 432.342 38.8807 432.787 39.4059L434.313 38.1141ZM434.22 37.5356L434.25 32.1356L432.25 32.1244L432.22 37.5244L434.22 37.5356ZM446.957 31.29L446.021 30.9389L446.015 30.9547L446.01 30.9707L446.957 31.29ZM447.587 29.55L446.652 29.1948L446.649 29.203L446.646 29.2113L447.587 29.55ZM448.637 27.27L447.793 26.7344L447.786 26.7459L448.637 27.27ZM451.307 26.37L450.716 27.1764L450.734 27.1896L450.753 27.202L451.307 26.37ZM451.517 27.99L450.623 27.5428L450.611 27.5657L450.601 27.5892L451.517 27.99ZM451.277 28.56L452.188 28.9738L452.209 28.926L452.226 28.8762L451.277 28.56ZM449.117 34.23L448.164 33.928L448.157 33.9489L448.152 33.97L449.117 34.23ZM448.487 36.57L449.441 36.8711L449.447 36.8507L449.453 36.83L448.487 36.57ZM447.257 38.43L447.879 39.2135L447.887 39.207L447.895 39.2004L447.257 38.43ZM443.267 38.16L442.426 38.7008L442.475 38.7774L442.538 38.8439L443.267 38.16ZM442.127 36.03L441.213 36.4342L441.216 36.443L441.221 36.4517L442.127 36.03ZM441.137 33.51L440.189 33.8262L440.191 33.8331L441.137 33.51ZM440.087 30.36L441.036 30.0438L441.033 30.0347L441.03 30.0256L440.087 30.36ZM439.547 28.77L438.582 29.0331L438.588 29.0533L438.594 29.0732L439.547 28.77ZM439.367 27.57H440.367V27.5462L440.366 27.5224L439.367 27.57ZM439.727 26.55L440.434 27.2571L440.434 27.2571L439.727 26.55ZM441.917 26.49L441.21 27.1971L441.227 27.2139L441.245 27.2299L441.917 26.49ZM442.517 27.45L443.502 27.2787L443.484 27.1718L443.443 27.0714L442.517 27.45ZM443.177 30.27L444.147 30.0275L444.147 30.0243L443.177 30.27ZM443.387 31.11L442.417 31.3526L442.421 31.3659L443.387 31.11ZM444.077 33.18L443.149 33.5514L443.149 33.5514L444.077 33.18ZM444.917 35.19L444.001 35.5908L445.846 34.8186L444.917 35.19ZM445.337 36.18L444.416 36.5681L445.43 38.9778L446.283 36.506L445.337 36.18ZM446.027 34.05L445.08 33.7307L445.076 33.7425L445.072 33.7543L446.027 34.05ZM447.894 31.6411C447.957 31.4732 448.17 30.8847 448.528 29.8887L446.646 29.2113C446.285 30.2153 446.078 30.7868 446.021 30.9389L447.894 31.6411ZM448.522 29.9052C448.894 28.9273 449.217 28.2351 449.489 27.7941L447.786 26.7459C447.417 27.3449 447.041 28.1727 446.652 29.1948L448.522 29.9052ZM449.482 27.8055C449.717 27.4344 449.905 27.2125 450.038 27.094C450.18 26.9674 450.166 27.04 450.017 27.04V25.04C449.469 25.04 449.025 25.3176 448.707 25.601C448.38 25.8925 448.077 26.2856 447.793 26.7345L449.482 27.8055ZM450.017 27.04C450.466 27.04 450.654 27.1313 450.716 27.1764L451.899 25.5636C451.36 25.1687 450.688 25.04 450.017 25.04V27.04ZM450.753 27.202C450.766 27.2113 450.77 27.2157 450.768 27.2133C450.765 27.2105 450.76 27.2046 450.757 27.1969C450.753 27.1894 450.752 27.186 450.753 27.1903C450.754 27.1952 450.757 27.2108 450.757 27.24H452.757C452.757 26.5472 452.458 25.935 451.862 25.5379L450.753 27.202ZM450.757 27.24C450.757 27.191 450.766 27.1904 450.745 27.2577C450.725 27.3199 450.687 27.4134 450.623 27.5428L452.412 28.4372C452.586 28.0894 452.757 27.6642 452.757 27.24H450.757ZM450.601 27.5892C450.472 27.8851 450.367 28.1291 450.329 28.2438L452.226 28.8762C452.221 28.8908 452.221 28.8906 452.232 28.862C452.241 28.8384 452.255 28.8051 452.274 28.7606C452.311 28.6717 452.364 28.549 452.433 28.3908L450.601 27.5892ZM450.367 28.1462C449.549 29.9458 448.815 31.8735 448.164 33.928L450.071 34.532C450.7 32.5465 451.406 30.6942 452.188 28.9738L450.367 28.1462ZM448.152 33.97L447.522 36.31L449.453 36.83L450.083 34.49L448.152 33.97ZM447.534 36.2689C447.348 36.8566 447.042 37.3097 446.62 37.6596L447.895 39.2004C448.632 38.5903 449.146 37.8034 449.441 36.8711L447.534 36.2689ZM446.636 37.6465C446.243 37.9584 445.785 38.12 445.217 38.12V40.12C446.21 40.12 447.112 39.8216 447.879 39.2135L446.636 37.6465ZM445.217 38.12C444.86 38.12 444.459 37.9689 443.997 37.4761L442.538 38.8439C443.276 39.6311 444.174 40.12 445.217 40.12V38.12ZM444.108 37.6192C443.781 37.1096 443.422 36.4429 443.034 35.6083L441.221 36.4517C441.632 37.3371 442.034 38.0904 442.426 38.7008L444.108 37.6192ZM443.042 35.6258C442.673 34.7902 442.353 33.9772 442.084 33.1869L440.191 33.8331C440.481 34.6828 440.822 35.5498 441.213 36.4342L443.042 35.6258ZM442.086 33.1938L441.036 30.0438L439.139 30.6762L440.189 33.8262L442.086 33.1938ZM441.03 30.0256C440.812 29.412 440.636 28.893 440.5 28.4668L438.594 29.0732C438.739 29.527 438.923 30.068 439.145 30.6944L441.03 30.0256ZM440.512 28.5069C440.409 28.131 440.367 27.8212 440.367 27.57H438.367C438.367 28.0388 438.445 28.529 438.582 29.0331L440.512 28.5069ZM440.366 27.5224C440.357 27.3393 440.403 27.2884 440.434 27.2571L439.02 25.8429C438.531 26.3316 438.337 26.9607 438.368 27.6176L440.366 27.5224ZM440.434 27.2571C440.462 27.2291 440.542 27.16 440.807 27.16V25.16C440.152 25.16 439.512 25.3509 439.02 25.8429L440.434 27.2571ZM440.807 27.16C441.002 27.16 441.123 27.1812 441.19 27.201C441.253 27.2199 441.243 27.2298 441.21 27.1971L442.624 25.7829C442.124 25.2829 441.424 25.16 440.807 25.16V27.16ZM441.245 27.2299C441.308 27.2875 441.438 27.453 441.592 27.8286L443.443 27.0714C443.236 26.567 442.967 26.0925 442.59 25.7501L441.245 27.2299ZM441.532 27.6213C441.62 28.1255 441.85 29.1032 442.208 30.5157L444.147 30.0243C443.785 28.5968 443.575 27.6945 443.502 27.2787L441.532 27.6213ZM442.207 30.5125L442.417 31.3525L444.357 30.8675L444.147 30.0275L442.207 30.5125ZM442.421 31.3659C442.612 32.0878 442.855 32.8164 443.149 33.5514L445.006 32.8086C444.74 32.1436 444.523 31.4922 444.354 30.8541L442.421 31.3659ZM443.149 33.5514C443.432 34.2605 443.716 34.9403 444.001 35.5908L445.833 34.7892C445.558 34.1597 445.282 33.4995 445.006 32.8086L443.149 33.5514ZM445.846 34.8186C445.843 34.8131 445.845 34.8159 445.847 34.8224C445.848 34.8245 445.849 34.8287 445.851 34.8341C445.853 34.8381 445.857 34.8502 445.862 34.8662C445.865 34.8738 445.87 34.8899 445.876 34.9107C445.877 34.9162 445.896 34.9823 445.905 35.0679C445.906 35.078 445.931 35.2543 445.868 35.4626C445.817 35.5948 445.606 35.8913 445.428 36.0281C445.195 36.1314 444.756 36.1605 444.574 36.1143C444.471 36.0705 444.316 35.9766 444.262 35.934C444.229 35.9044 444.176 35.851 444.155 35.828C444.116 35.7824 444.089 35.7432 444.079 35.7273C444.055 35.692 444.039 35.663 444.034 35.6545C444.027 35.6418 444.022 35.6315 444.019 35.6258C444.013 35.6144 444.009 35.6054 444.008 35.602C444.004 35.5944 444.002 35.589 444.001 35.5887C444.001 35.5871 444.001 35.5883 444.004 35.5944C444.014 35.6184 444.036 35.67 444.072 35.753C444.141 35.9167 444.256 36.1881 444.416 36.5681L446.259 35.7919C446.099 35.4119 445.983 35.1383 445.913 34.972C445.878 34.89 445.853 34.8304 445.838 34.7969C445.834 34.7886 445.83 34.7788 445.826 34.7695C445.824 34.7654 445.82 34.757 445.816 34.7472C445.814 34.7427 445.809 34.7329 445.803 34.7208C445.8 34.7148 445.794 34.7043 445.787 34.6914C445.782 34.6826 445.766 34.6534 445.743 34.618C445.732 34.602 445.705 34.5628 445.666 34.5171C445.645 34.4942 445.592 34.4408 445.559 34.4112C445.505 34.3685 445.351 34.2746 445.247 34.2308C445.066 34.1846 444.626 34.2138 444.393 34.3171C444.215 34.4538 444.004 34.7504 443.954 34.8826C443.89 35.0909 443.915 35.2672 443.916 35.2773C443.925 35.363 443.944 35.4293 443.946 35.435C443.951 35.4559 443.956 35.4723 443.959 35.4802C443.968 35.507 443.976 35.5289 443.977 35.5302C443.981 35.5425 443.986 35.5544 443.989 35.5614L445.846 34.8186ZM446.283 36.506C446.487 35.9127 446.721 35.1919 446.983 34.3457L445.072 33.7543C444.814 34.5881 444.587 35.2873 444.392 35.854L446.283 36.506ZM446.975 34.3693L447.905 31.6093L446.01 30.9707L445.08 33.7307L446.975 34.3693ZM466.814 38.67L466.284 37.822L466.276 37.8271L466.268 37.8324L466.814 38.67ZM463.694 38.85L463.28 39.7604L463.305 39.7715L463.33 39.7812L463.694 38.85ZM462.464 37.77L463.271 37.18L462.624 36.2936L461.801 37.021L462.464 37.77ZM460.334 38.82L460.571 39.7914L460.582 39.7889L460.592 39.7862L460.334 38.82ZM454.784 38.16L454.136 38.9219L454.142 38.9267L454.148 38.9314L454.784 38.16ZM454.034 33.66L454.872 34.2063L454.877 34.1982L454.882 34.19L454.034 33.66ZM455.264 32.4L454.716 31.5635L454.705 31.5705L454.695 31.5778L455.264 32.4ZM457.244 31.53L457.505 32.4954L457.517 32.4921L457.529 32.4885L457.244 31.53ZM461.054 31.44L460.788 32.404L460.788 32.404L461.054 31.44ZM462.404 31.95L461.914 32.8216L463.404 33.6598V31.95H462.404ZM461.624 29.25L460.996 30.0279L461.005 30.0354L461.014 30.0426L461.624 29.25ZM458.084 28.83L457.703 27.9053L457.693 27.9095L457.683 27.9138L458.084 28.83ZM456.974 29.4L457.446 30.2815L457.458 30.275L457.47 30.2682L456.974 29.4ZM454.874 29.49L454.022 30.0141L454.032 30.0296L454.042 30.0447L454.874 29.49ZM455.444 27.3L454.844 26.5L454.837 26.5053L454.83 26.5106L455.444 27.3ZM457.424 26.37L457.678 27.3371L457.69 27.334L457.702 27.3306L457.424 26.37ZM461.534 26.4L461.24 27.3558L461.251 27.3592L461.262 27.3624L461.534 26.4ZM463.454 27.33L464.109 26.5743L464.094 26.5614L464.079 26.5491L463.454 27.33ZM464.834 29.16L463.924 29.5758L463.932 29.5916L463.94 29.6072L464.834 29.16ZM465.284 32.58L464.287 32.5033L464.286 32.5088L465.284 32.58ZM465.164 34.83L464.17 34.7196L464.169 34.7295L464.168 34.7395L465.164 34.83ZM465.374 36.51L464.667 37.2171L464.688 37.2379L464.71 37.2574L465.374 36.51ZM466.004 36.75V37.75H466.022L466.04 37.7494L466.004 36.75ZM466.844 36.72V35.72H466.826L466.808 35.7206L466.844 36.72ZM467.354 36.96L468.154 36.36L468.154 36.36L467.354 36.96ZM460.034 36.51L460.33 37.4651L460.33 37.4651L460.034 36.51ZM462.134 35.52L462.639 36.383L463.009 36.1664L463.107 35.749L462.134 35.52ZM462.284 34.17L463.283 34.2057L463.307 33.5474L462.711 33.2659L462.284 34.17ZM457.364 33.84L457.788 34.7455L457.788 34.7455L457.364 33.84ZM456.884 36.39L457.515 35.6139L457.515 35.6139L456.884 36.39ZM466.534 37.56C466.534 37.5864 466.53 37.5999 466.515 37.6233C466.494 37.6561 466.434 37.7283 466.284 37.822L467.344 39.518C468.021 39.0947 468.534 38.4438 468.534 37.56H466.534ZM466.268 37.8324C465.912 38.0647 465.67 38.12 465.524 38.12V40.12C466.178 40.12 466.796 39.8753 467.36 39.5076L466.268 37.8324ZM465.524 38.12C464.829 38.12 464.357 38.0356 464.058 37.9188L463.33 39.7812C463.951 40.0244 464.699 40.12 465.524 40.12V38.12ZM464.108 37.9396C463.868 37.8306 463.582 37.6057 463.271 37.18L461.657 38.36C462.105 38.9743 462.64 39.4694 463.28 39.7604L464.108 37.9396ZM461.801 37.021C461.43 37.3492 460.875 37.6407 460.076 37.8538L460.592 39.7862C461.593 39.5193 462.457 39.1108 463.127 38.519L461.801 37.021ZM460.096 37.8486C459.258 38.0536 458.509 38.15 457.844 38.15V40.15C458.699 40.15 459.61 40.0264 460.571 39.7914L460.096 37.8486ZM457.844 38.15C456.789 38.15 456.008 37.8733 455.42 37.3886L454.148 38.9314C455.16 39.7667 456.419 40.15 457.844 40.15V38.15ZM455.432 37.3981C454.907 36.9523 454.584 36.2727 454.584 35.19H452.584C452.584 36.7073 453.061 38.0077 454.136 38.9219L455.432 37.3981ZM454.584 35.19C454.584 34.8199 454.68 34.5004 454.872 34.2063L453.196 33.1137C452.788 33.7396 452.584 34.4401 452.584 35.19H454.584ZM454.882 34.19C455.102 33.8382 455.412 33.5139 455.833 33.2222L454.695 31.5778C454.076 32.0061 453.566 32.5218 453.186 33.13L454.882 34.19ZM455.812 33.2365C456.295 32.9201 456.856 32.6707 457.505 32.4954L456.983 30.5646C456.152 30.7893 455.393 31.1199 454.716 31.5635L455.812 33.2365ZM457.529 32.4885C458.173 32.297 458.847 32.2 459.554 32.2V30.2C458.661 30.2 457.795 30.323 456.959 30.5715L457.529 32.4885ZM459.554 32.2C459.855 32.2 460.261 32.2585 460.788 32.404L461.32 30.476C460.687 30.3015 460.093 30.2 459.554 30.2V32.2ZM460.788 32.404C461.333 32.5542 461.695 32.6985 461.914 32.8216L462.894 31.0784C462.473 30.8415 461.935 30.6458 461.32 30.476L460.788 32.404ZM463.404 31.95V31.47H461.404V31.95H463.404ZM463.404 31.47C463.404 30.2786 463.123 29.1417 462.234 28.4574L461.014 30.0426C461.165 30.1583 461.404 30.5014 461.404 31.47H463.404ZM462.252 28.4721C461.464 27.8356 460.341 27.62 459.104 27.62V29.62C460.187 29.62 460.744 29.8244 460.996 30.0279L462.252 28.4721ZM459.104 27.62C458.623 27.62 458.154 27.7197 457.703 27.9053L458.465 29.7547C458.694 29.6603 458.905 29.62 459.104 29.62V27.62ZM457.683 27.9138C457.321 28.0723 456.918 28.2803 456.478 28.5318L457.47 30.2682C457.87 30.0397 458.207 29.8677 458.485 29.7462L457.683 27.9138ZM456.502 28.5185C456.049 28.7613 455.681 28.85 455.384 28.85V30.85C456.087 30.85 456.779 30.6387 457.446 30.2815L456.502 28.5185ZM455.384 28.85C455.531 28.85 455.642 28.9031 455.698 28.943C455.744 28.9756 455.742 28.9896 455.706 28.9353L454.042 30.0447C454.272 30.3903 454.705 30.85 455.384 30.85V28.85ZM455.726 28.9659C455.674 28.8828 455.65 28.826 455.638 28.794C455.627 28.7624 455.634 28.7668 455.634 28.8H453.634C453.634 29.2582 453.813 29.6732 454.022 30.0141L455.726 28.9659ZM455.634 28.8C455.634 28.5859 455.712 28.3581 456.058 28.0894L454.83 26.5106C454.096 27.0819 453.634 27.8541 453.634 28.8H455.634ZM456.044 28.1C456.489 27.7664 457.028 27.5082 457.678 27.3371L457.169 25.4029C456.3 25.6318 455.519 25.9936 454.844 26.5L456.044 28.1ZM457.702 27.3306C458.399 27.1289 458.982 27.04 459.464 27.04V25.04C458.745 25.04 457.969 25.1711 457.146 25.4094L457.702 27.3306ZM459.464 27.04C459.936 27.04 460.523 27.1353 461.24 27.3558L461.828 25.4442C460.985 25.1847 460.192 25.04 459.464 25.04V27.04ZM461.262 27.3624C461.947 27.5554 462.457 27.8134 462.829 28.1109L464.079 26.5491C463.45 26.0466 462.681 25.6846 461.805 25.4375L461.262 27.3624ZM462.799 28.0857C463.294 28.515 463.666 29.0101 463.924 29.5758L465.743 28.7442C465.362 27.9099 464.814 27.185 464.109 26.5743L462.799 28.0857ZM463.94 29.6072C464.205 30.1376 464.344 30.7328 464.344 31.41H466.344C466.344 30.4472 466.143 29.5424 465.728 28.7128L463.94 29.6072ZM464.344 31.41C464.344 31.6301 464.326 31.9889 464.287 32.5033L466.281 32.6567C466.321 32.1311 466.344 31.7099 466.344 31.41H464.344ZM464.286 32.5088C464.245 33.0838 464.224 33.5889 464.224 34.02H466.224C466.224 33.6511 466.242 33.1962 466.281 32.6512L464.286 32.5088ZM464.224 34.02C464.224 34.1424 464.209 34.3674 464.17 34.7196L466.158 34.9404C466.199 34.5726 466.224 34.2576 466.224 34.02H464.224ZM464.168 34.7395C464.127 35.1919 464.104 35.5761 464.104 35.88H466.104C466.104 35.6639 466.121 35.3481 466.16 34.9205L464.168 34.7395ZM464.104 35.88C464.104 36.4026 464.312 36.8622 464.667 37.2171L466.081 35.8029C466.071 35.7926 466.08 35.799 466.091 35.8236C466.095 35.835 466.099 35.8469 466.101 35.8583C466.104 35.8695 466.104 35.8772 466.104 35.88H464.104ZM464.71 37.2574C465.072 37.5795 465.518 37.75 466.004 37.75V35.75C466 35.75 466 35.7497 466.005 35.7504C466.009 35.7512 466.015 35.7528 466.022 35.7555C466.03 35.7582 466.035 35.7612 466.039 35.7633C466.042 35.7655 466.042 35.7658 466.038 35.7626L464.71 37.2574ZM466.04 37.7494L466.88 37.7194L466.808 35.7206L465.968 35.7506L466.04 37.7494ZM466.844 37.72C466.832 37.72 466.78 37.7173 466.711 37.6848C466.638 37.6508 466.585 37.602 466.554 37.56L468.154 36.36C467.824 35.9205 467.342 35.72 466.844 35.72V37.72ZM466.554 37.56C466.548 37.5517 466.542 37.543 466.538 37.5347C466.534 37.5265 466.532 37.5203 466.531 37.5173C466.529 37.5114 466.534 37.5231 466.534 37.56H468.534C468.534 37.1481 468.428 36.7256 468.154 36.36L466.554 37.56ZM457.874 37.78C458.796 37.78 459.624 37.6844 460.33 37.4651L459.738 35.5549C459.284 35.6956 458.672 35.78 457.874 35.78V37.78ZM460.33 37.4651C461.012 37.2535 461.786 36.8825 462.639 36.383L461.629 34.657C460.842 35.1175 460.216 35.4065 459.738 35.5549L460.33 37.4651ZM463.107 35.749C463.208 35.3194 463.262 34.7969 463.283 34.2057L461.285 34.1343C461.266 34.6631 461.219 35.0406 461.161 35.291L463.107 35.749ZM462.711 33.2659C461.558 32.7206 460.49 32.39 459.554 32.39V34.39C460.058 34.39 460.81 34.5794 461.857 35.0741L462.711 33.2659ZM459.554 32.39C458.611 32.39 457.732 32.5631 456.94 32.9345L457.788 34.7455C458.276 34.5169 458.857 34.39 459.554 34.39V32.39ZM456.94 32.9345C456.467 33.1563 456.064 33.4881 455.788 33.9456C455.514 34.3986 455.404 34.9092 455.404 35.43H457.404C457.404 35.1908 457.453 35.0564 457.5 34.9794C457.544 34.9069 457.621 34.8237 457.788 34.7455L456.94 32.9345ZM455.404 35.43C455.404 36.1392 455.722 36.7347 456.253 37.1661L457.515 35.6139C457.406 35.5253 457.404 35.4808 457.404 35.43H455.404ZM456.253 37.1661C456.712 37.5391 457.258 37.78 457.874 37.78V35.78C457.81 35.78 457.696 35.7609 457.515 35.6139L456.253 37.1661Z" fill="#898888" mask="url(#path-28-outside-1_0_1)"/>
<defs>
<filter id="filter0_d_0_1" x="0" y="0" width="513" height="564" filterUnits="userSpaceOnUse" color-interpolation-filters="sRGB">
<feFlood flood-opacity="0" result="BackgroundImageFix"/>
<feColorMatrix in="SourceAlpha" type="matrix" values="0 0 0 0 0 0 0 0 0 0 0 0 0 0 0 0 0 0 127 0" result="hardAlpha"/>
<feOffset dy="4"/>
<feGaussianBlur stdDeviation="2"/>
<feComposite in2="hardAlpha" operator="out"/>
<feColorMatrix type="matrix" values="0 0 0 0 0 0 0 0 0 0 0 0 0 0 0 0 0 0 0.25 0"/>
<feBlend mode="normal" in2="BackgroundImageFix" result="effect1_dropShadow_0_1"/>
<feBlend mode="normal" in="SourceGraphic" in2="effect1_dropShadow_0_1" result="shape"/>
</filter>
<linearGradient id="paint0_linear_0_1" x1="3.49089" y1="-0.220997" x2="283.298" y2="655.51" gradientUnits="userSpaceOnUse">
<stop stop-opacity="0"/>
<stop offset="1" stop-opacity="0.88"/>
</linearGradient>
</defs>
</svg>
