<svg width="150" height="150" viewBox="0 0 150 150" fill="none" xmlns="http://www.w3.org/2000/svg">
<rect width="150" height="150" fill="url(#paint0_linear_0_1)"/>
<path d="M28.4375 64.0938C28.4792 64.1771 28.5 64.4688 28.5 64.9688C28.5208 65.4688 28.5208 66.0729 28.5 66.7812C28.5 67.4896 28.4792 68.25 28.4375 69.0625C28.3958 69.8542 28.3438 70.6042 28.2812 71.3125C28.1562 72.8958 28.0104 74.4583 27.8438 76C27.6771 77.5417 27.5104 78.9271 27.3438 80.1562C27.1979 81.3854 27.0521 82.3958 26.9062 83.1875C26.7812 83.9583 26.7083 84.3854 26.6875 84.4688C26.6458 84.5729 26.5521 84.7292 26.4062 84.9375C26.2604 85.1458 26.1042 85.3542 25.9375 85.5625C25.7708 85.75 25.6042 85.9167 25.4375 86.0625C25.2917 86.2083 25.1771 86.2812 25.0938 86.2812C24.9271 86.1354 24.625 85.5625 24.1875 84.5625C24 84.125 23.7708 83.5833 23.5 82.9375C23.2292 82.2708 22.9167 81.4583 22.5625 80.5C22.2083 79.5417 21.7917 78.4167 21.3125 77.125C20.8542 75.8125 20.3333 74.2917 19.75 72.5625C19.875 74.2708 19.9792 75.7708 20.0625 77.0625C20.1458 78.3542 20.2083 79.4792 20.25 80.4375C20.3125 81.3958 20.3542 82.2083 20.375 82.875C20.3958 83.5208 20.4062 84.0625 20.4062 84.5C20.4062 85.5 20.375 86.0729 20.3125 86.2188C20.1042 86.2188 19.875 86.125 19.625 85.9375C19.3958 85.7292 19.1771 85.4896 18.9688 85.2188C18.7604 84.9271 18.5729 84.6458 18.4062 84.375C18.2604 84.1042 18.1771 83.9062 18.1562 83.7812C18.1354 83.6979 18.0729 83.3125 17.9688 82.625C17.8646 81.9375 17.7396 81.0625 17.5938 80C17.4688 78.9167 17.3229 77.7083 17.1562 76.375C17.0104 75.0208 16.8646 73.6458 16.7188 72.25C16.5938 70.8542 16.4896 69.5 16.4062 68.1875C16.3229 66.8542 16.2812 65.6667 16.2812 64.625C16.2812 64.4583 16.4896 64.2396 16.9062 63.9688C17.3229 63.6771 17.7917 63.4062 18.3125 63.1562C18.8542 62.8854 19.3542 62.6562 19.8125 62.4688C20.2708 62.2604 20.5521 62.1562 20.6562 62.1562C20.7396 62.1562 20.8229 62.3958 20.9062 62.875C21.0104 63.3542 21.1146 63.9583 21.2188 64.6875C21.3438 65.4167 21.4792 66.2292 21.625 67.125C21.7917 68.0208 21.9688 68.875 22.1562 69.6875C22.3229 70.5625 22.5312 71.5521 22.7812 72.6562C22.9896 73.5938 23.25 74.7188 23.5625 76.0312C23.8958 77.3438 24.2812 78.8021 24.7188 80.4062C24.7188 79.2812 24.7188 78.0833 24.7188 76.8125C24.7396 75.5417 24.7604 74.2812 24.7812 73.0312C24.8021 71.7812 24.8229 70.5833 24.8438 69.4375C24.8854 68.2708 24.9167 67.2396 24.9375 66.3438C24.9792 65.4479 25.0104 64.7292 25.0312 64.1875C25.0729 63.6458 25.1042 63.3542 25.125 63.3125C25.1875 63.2292 25.3854 63.2083 25.7188 63.25C26.0521 63.2708 26.4167 63.3333 26.8125 63.4375C27.2083 63.5208 27.5625 63.6354 27.875 63.7812C28.2083 63.9062 28.3958 64.0104 28.4375 64.0938ZM36.9375 68.9062C37.0833 69.0312 37.2188 69.2708 37.3438 69.625C37.4896 69.9792 37.6146 70.4062 37.7188 70.9062C37.8229 71.4062 37.9167 71.9479 38 72.5312C38.0833 73.1146 38.1562 73.6875 38.2188 74.25C38.2812 74.8125 38.3229 75.3438 38.3438 75.8438C38.3854 76.3229 38.4167 76.7188 38.4375 77.0312C38.4583 77.4062 38.4688 77.8021 38.4688 78.2188C38.4896 78.6146 38.4896 79 38.4688 79.375C38.4688 79.7292 38.4479 80.0521 38.4062 80.3438C38.3854 80.6354 38.3438 80.8542 38.2812 81C38.1562 81.3125 37.9375 81.5312 37.625 81.6562C37.3333 81.7604 37 81.8333 36.625 81.875C36.4375 81.8958 36.1146 81.9062 35.6562 81.9062C35.2188 81.8854 34.7396 81.8646 34.2188 81.8438C33.7188 81.8021 33.2396 81.7604 32.7812 81.7188C32.3229 81.6771 31.9792 81.6354 31.75 81.5938C31.2917 81.4896 30.9583 81.3542 30.75 81.1875C30.5625 81.0208 30.375 80.7812 30.1875 80.4688C30.125 80.3438 30.0729 80.0312 30.0312 79.5312C29.9896 79.0104 29.9583 78.3958 29.9375 77.6875C29.9375 76.9583 29.9479 76.1771 29.9688 75.3438C29.9896 74.5104 30.0208 73.7188 30.0625 72.9688C30.125 72.2188 30.1875 71.5625 30.25 71C30.3333 70.4375 30.4375 70.0625 30.5625 69.875C30.7708 69.5833 31.125 69.3125 31.625 69.0625C32.1458 68.8125 32.6146 68.6146 33.0312 68.4688C33.2396 68.4062 33.5104 68.3646 33.8438 68.3438C34.1979 68.3021 34.5625 68.3021 34.9375 68.3438C35.3333 68.3646 35.7083 68.4271 36.0625 68.5312C36.4167 68.6146 36.7083 68.7396 36.9375 68.9062ZM35.1875 78.5938C35.2292 78.5104 35.2708 78.2604 35.3125 77.8438C35.375 77.4062 35.4167 76.8854 35.4375 76.2812C35.4792 75.6771 35.5 75.0312 35.5 74.3438C35.5208 73.6562 35.5312 73.0208 35.5312 72.4375C35.5312 71.8542 35.5104 71.3646 35.4688 70.9688C35.4271 70.5521 35.375 70.3125 35.3125 70.25C35.2083 70.1667 35.0521 70.1354 34.8438 70.1562C34.6562 70.1562 34.4583 70.1875 34.25 70.25C34.0417 70.2917 33.8542 70.3542 33.6875 70.4375C33.5208 70.5 33.4062 70.5625 33.3438 70.625C33.0729 70.8542 32.9271 71.2292 32.9062 71.75C32.9062 71.8958 32.8854 72.3125 32.8438 73C32.8229 73.6667 32.8125 74.3958 32.8125 75.1875C32.8125 75.9583 32.8229 76.6771 32.8438 77.3438C32.8854 78.0104 32.9583 78.4167 33.0625 78.5625C33.1667 78.7083 33.3125 78.8229 33.5 78.9062C33.7083 78.9688 33.9167 79 34.125 79C34.3542 79 34.5625 78.9688 34.75 78.9062C34.9583 78.8229 35.1042 78.7188 35.1875 78.5938ZM49.4375 72.5625C49.4792 72.6667 49.5 73 49.5 73.5625C49.5208 74.1042 49.5208 74.7708 49.5 75.5625C49.5 76.3333 49.4792 77.1667 49.4375 78.0625C49.3958 78.9375 49.3438 79.7708 49.2812 80.5625C49.2396 81.3333 49.1875 82 49.125 82.5625C49.0625 83.1042 49 83.4271 48.9375 83.5312C48.75 83.8229 48.4688 84.0104 48.0938 84.0938C47.7188 84.1562 47.4479 84.1667 47.2812 84.125C47.1979 84.125 47.1042 83.8854 47 83.4062C46.9167 82.9271 46.8333 82.3229 46.75 81.5938C46.6667 80.8646 46.5938 80.0729 46.5312 79.2188C46.4688 78.3646 46.4167 77.5521 46.375 76.7812C46.3333 75.9896 46.3125 75.3021 46.3125 74.7188C46.3125 74.1354 46.3333 73.7604 46.375 73.5938C46.4375 73.3229 46.6146 73.0833 46.9062 72.875C47.2188 72.6667 47.5417 72.5104 47.875 72.4062C48.2292 72.3021 48.5521 72.2604 48.8438 72.2812C49.1562 72.2812 49.3542 72.375 49.4375 72.5625ZM49.5938 67.5C49.6771 67.6667 49.7083 67.8958 49.6875 68.1875C49.6875 68.4792 49.6562 68.7812 49.5938 69.0938C49.5312 69.4062 49.4479 69.7083 49.3438 70C49.2396 70.2917 49.1354 70.5208 49.0312 70.6875C48.8229 70.9792 48.5104 71.1667 48.0938 71.25C47.6979 71.3125 47.4062 71.3229 47.2188 71.2812C47.0729 71.2604 46.9271 71.1667 46.7812 71C46.6354 70.8125 46.5104 70.5938 46.4062 70.3438C46.3021 70.0729 46.2292 69.7812 46.1875 69.4688C46.1458 69.1562 46.1562 68.8646 46.2188 68.5938C46.2812 68.3229 46.4792 68.0833 46.8125 67.875C47.1458 67.6458 47.5 67.4792 47.875 67.375C48.25 67.25 48.6042 67.1979 48.9375 67.2188C49.2708 67.2188 49.4896 67.3125 49.5938 67.5ZM64.5 67.5C64.8958 67.8333 65.1875 68.5 65.375 69.5C65.5625 70.4792 65.6354 71.5729 65.5938 72.7812C65.5729 73.1562 65.5208 73.6771 65.4375 74.3438C65.3542 74.9896 65.25 75.7083 65.125 76.5C65.0208 77.2708 64.8958 78.0625 64.75 78.875C64.625 79.6875 64.5 80.4375 64.375 81.125C64.25 81.8125 64.1354 82.3958 64.0312 82.875C63.9479 83.3333 63.8958 83.6042 63.875 83.6875C63.8333 83.8333 63.7188 83.9792 63.5312 84.125C63.3438 84.2708 63.1458 84.3958 62.9375 84.5C62.75 84.5833 62.5625 84.6458 62.375 84.6875C62.1875 84.7083 62.0729 84.6667 62.0312 84.5625C62.0104 84.5 62.0104 84.1771 62.0312 83.5938C62.0521 83.0104 62.0833 82.2917 62.125 81.4375C62.1667 80.5625 62.2083 79.6354 62.25 78.6562C62.3125 77.6562 62.3646 76.7188 62.4062 75.8438C62.4479 74.9688 62.4896 74.2292 62.5312 73.625C62.5729 73 62.5938 72.625 62.5938 72.5C62.6146 71.8542 62.5625 71.2917 62.4375 70.8125C62.3125 70.3125 62.1042 70.0625 61.8125 70.0625C61.7083 70.0625 61.5833 70.1146 61.4375 70.2188C61.2917 70.3021 61.1458 70.4062 61 70.5312C60.875 70.6562 60.75 70.7917 60.625 70.9375C60.5208 71.0833 60.4688 71.2188 60.4688 71.3438C60.4479 71.7188 60.4167 72.2708 60.375 73C60.3542 73.7292 60.3229 74.5312 60.2812 75.4062C60.2604 76.2812 60.2292 77.1771 60.1875 78.0938C60.1667 79.0104 60.1354 79.8542 60.0938 80.625C60.0729 81.3958 60.0521 82.0417 60.0312 82.5625C60.0104 83.0625 59.9896 83.3438 59.9688 83.4062C59.9271 83.4896 59.7917 83.5521 59.5625 83.5938C59.3542 83.6146 59.1146 83.6146 58.8438 83.5938C58.5729 83.5729 58.3229 83.5208 58.0938 83.4375C57.8854 83.3542 57.7604 83.2396 57.7188 83.0938C57.6771 82.9896 57.6458 82.6771 57.625 82.1562C57.6042 81.6146 57.5729 80.9688 57.5312 80.2188C57.5104 79.4688 57.4896 78.6667 57.4688 77.8125C57.4479 76.9375 57.4271 76.125 57.4062 75.375C57.3854 74.625 57.3646 73.9792 57.3438 73.4375C57.3438 72.8958 57.3438 72.5625 57.3438 72.4375C57.3438 71.9375 57.3021 71.5417 57.2188 71.25C57.1354 70.9375 57.0312 70.6979 56.9062 70.5312C56.8021 70.3438 56.6771 70.2292 56.5312 70.1875C56.3854 70.125 56.2396 70.0938 56.0938 70.0938C56.0312 70.0938 55.9375 70.1458 55.8125 70.25C55.6875 70.3333 55.5625 70.4688 55.4375 70.6562C55.3125 70.8229 55.2083 71.0208 55.125 71.25C55.0417 71.4583 55.0104 71.6875 55.0312 71.9375C55.0312 72.0417 55.0417 72.4271 55.0625 73.0938C55.0833 73.7604 55.0938 74.5625 55.0938 75.5C55.1146 76.4375 55.1354 77.4479 55.1562 78.5312C55.1771 79.6146 55.1875 80.625 55.1875 81.5625C55.2083 82.4792 55.2188 83.2604 55.2188 83.9062C55.2188 84.5312 55.2188 84.8646 55.2188 84.9062C55.1771 85.0104 55.0625 85.0729 54.875 85.0938C54.6875 85.0938 54.4792 85.0521 54.25 84.9688C54.0208 84.8854 53.8021 84.7708 53.5938 84.625C53.3854 84.4583 53.2396 84.2604 53.1562 84.0312C53.1146 83.8646 53.0521 83.5 52.9688 82.9375C52.8854 82.375 52.7917 81.7083 52.6875 80.9375C52.5833 80.1458 52.4792 79.3021 52.375 78.4062C52.2708 77.4896 52.1667 76.6146 52.0625 75.7812C51.9583 74.9271 51.8646 74.1562 51.7812 73.4688C51.7188 72.7812 51.6667 72.2604 51.625 71.9062C51.5625 71.4062 51.4896 70.8646 51.4062 70.2812C51.3438 69.6771 51.2812 69.1042 51.2188 68.5625C51.1771 68 51.1458 67.5208 51.125 67.125C51.1042 66.7083 51.125 66.4479 51.1875 66.3438C51.2292 66.2604 51.375 66.2292 51.625 66.25C51.8958 66.2708 52.1771 66.3333 52.4688 66.4375C52.7812 66.5208 53.0729 66.6458 53.3438 66.8125C53.6354 66.9583 53.8229 67.1146 53.9062 67.2812C53.9688 67.4062 54.0312 67.5625 54.0938 67.75C54.1771 67.9167 54.2604 68.1875 54.3438 68.5625C54.6979 68.2917 55.0625 68.0417 55.4375 67.8125C55.8125 67.5625 56.1875 67.375 56.5625 67.25C56.9375 67.1042 57.2917 67.0312 57.625 67.0312C57.9792 67.0104 58.3125 67.1042 58.625 67.3125C58.8958 67.5208 59.1562 67.8854 59.4062 68.4062C60.4062 67.8438 61.3646 67.4583 62.2812 67.25C63.2188 67.0208 63.9583 67.1042 64.5 67.5ZM75.4688 69.5625C75.5938 69.7083 75.7083 69.8646 75.8125 70.0312C75.9167 70.1771 76.0104 70.3854 76.0938 70.6562C76.1771 70.9062 76.2396 71.2396 76.2812 71.6562C76.3438 72.0729 76.375 72.6146 76.375 73.2812C76.375 74.3438 76.3438 75.4167 76.2812 76.5C76.2396 77.5625 76.1979 78.5 76.1562 79.3125C76.1354 80.0417 76.1146 80.7188 76.0938 81.3438C76.0729 81.9688 76.0521 82.5208 76.0312 83C76.0104 83.4583 75.9792 83.8229 75.9375 84.0938C75.9167 84.3646 75.8958 84.5104 75.875 84.5312C75.7917 84.5938 75.6562 84.5729 75.4688 84.4688C75.3021 84.3438 75.1146 84.1875 74.9062 84C74.7188 83.8125 74.5417 83.6146 74.375 83.4062C74.2083 83.1979 74.1042 83.0312 74.0625 82.9062C74.0625 82.8021 74.0312 82.5 73.9688 82C73.4688 82.2917 72.9167 82.5 72.3125 82.625C71.7083 82.7292 71.1042 82.7708 70.5 82.75C69.9167 82.7083 69.375 82.5938 68.875 82.4062C68.375 82.2188 68 81.9688 67.75 81.6562C67.6458 81.5312 67.5521 81.3438 67.4688 81.0938C67.4062 80.8438 67.3438 80.5625 67.2812 80.25C67.2396 79.9167 67.1979 79.5729 67.1562 79.2188C67.1146 78.8438 67.0833 78.5 67.0625 78.1875C67.0208 77.375 67.125 76.6771 67.375 76.0938C67.625 75.4896 68.0833 75.0417 68.75 74.75C69.0417 74.625 69.4271 74.5625 69.9062 74.5625C70.4062 74.5417 70.8958 74.5625 71.375 74.625C71.875 74.6667 72.3229 74.7292 72.7188 74.8125C73.1146 74.875 73.3646 74.9271 73.4688 74.9688C73.3854 73.9062 73.3229 72.9896 73.2812 72.2188C73.2396 71.4271 73.1562 70.9167 73.0312 70.6875C72.9271 70.5417 72.8021 70.3958 72.6562 70.25C72.5312 70.1458 72.3646 70.0312 72.1562 69.9062C71.9479 69.7812 71.6979 69.6875 71.4062 69.625C71.1771 69.5833 70.9688 69.6771 70.7812 69.9062C70.6146 70.1146 70.4583 70.4896 70.3125 71.0312C70.1875 71.5521 70.1146 72.3542 70.0938 73.4375C69.3646 73.4583 68.8021 73.4583 68.4062 73.4375C68.0312 73.3958 67.75 73.3542 67.5625 73.3125C67.3333 73.2708 67.1979 73.2188 67.1562 73.1562C67.1146 73.0729 67.1354 72.7708 67.2188 72.25C67.3021 71.7083 67.4167 71.125 67.5625 70.5C67.7292 69.875 67.9167 69.2812 68.125 68.7188C68.3542 68.1562 68.5938 67.8021 68.8438 67.6562C69.3438 67.3646 69.9375 67.2604 70.625 67.3438C71.3333 67.4271 72.0208 67.6042 72.6875 67.875C73.3542 68.1458 73.9479 68.4479 74.4688 68.7812C74.9896 69.1146 75.3229 69.375 75.4688 69.5625ZM73.5312 78.6875C73.5312 78.5833 73.5417 78.4479 73.5625 78.2812C73.5833 78.0938 73.5938 77.9062 73.5938 77.7188C73.5938 77.5312 73.5833 77.3542 73.5625 77.1875C73.5625 77.0208 73.5417 76.8958 73.5 76.8125C73.4375 76.6875 73.25 76.5833 72.9375 76.5C72.6458 76.4167 72.3125 76.3646 71.9375 76.3438C71.5625 76.3021 71.2083 76.2917 70.875 76.3125C70.5417 76.3125 70.3125 76.3542 70.1875 76.4375C70.0208 76.5417 69.8958 76.6875 69.8125 76.875C69.75 77.0625 69.7083 77.3542 69.6875 77.75C69.6875 77.9375 69.6979 78.1354 69.7188 78.3438C69.7396 78.5521 69.7604 78.7604 69.7812 78.9688C69.8229 79.1562 69.8646 79.3229 69.9062 79.4688C69.9688 79.6146 70.0312 79.7083 70.0938 79.75C70.2396 79.8542 70.4896 79.9479 70.8438 80.0312C71.2188 80.0938 71.5938 80.1146 71.9688 80.0938C72.3438 80.0521 72.6875 79.9271 73 79.7188C73.3125 79.5104 73.4896 79.1667 73.5312 78.6875ZM86.25 87C86.2083 87.125 86.0833 87.3229 85.875 87.5938C85.6667 87.8646 85.4167 88.1458 85.125 88.4375C84.8333 88.7292 84.5417 88.9896 84.25 89.2188C83.9583 89.4479 83.7188 89.5938 83.5312 89.6562C83.1146 89.7812 82.6667 89.75 82.1875 89.5625C81.7292 89.3958 81.2812 89.1667 80.8438 88.875C80.4271 88.5833 80.0625 88.2812 79.75 87.9688C79.4375 87.6771 79.2396 87.4583 79.1562 87.3125C79.0938 87.1667 79.0312 86.9688 78.9688 86.7188C78.9271 86.4688 78.8958 86.2188 78.875 85.9688C78.8542 85.7188 78.8542 85.5104 78.875 85.3438C78.9167 85.1562 78.9896 85.0625 79.0938 85.0625C79.1979 85.0625 79.4375 85.1667 79.8125 85.375C80.2083 85.5625 80.6146 85.7604 81.0312 85.9688C81.4688 86.1771 81.875 86.3438 82.25 86.4688C82.625 86.5938 82.8542 86.5729 82.9375 86.4062C83.0208 86.2604 83.0938 85.8542 83.1562 85.1875C83.2396 84.5 83.3333 83.6667 83.4375 82.6875C83.3958 82.6875 83.3542 82.6979 83.3125 82.7188C83.2917 82.7188 83.2604 82.7188 83.2188 82.7188C83.0312 82.7812 82.7708 82.8125 82.4375 82.8125C82.1042 82.8125 81.75 82.7917 81.375 82.75C81.0208 82.7083 80.6667 82.6354 80.3125 82.5312C79.9792 82.4062 79.7083 82.25 79.5 82.0625C79.4167 81.9792 79.3229 81.8542 79.2188 81.6875C79.1354 81.5 79.0729 81.2604 79.0312 80.9688C78.9688 80.8438 78.8646 80.4896 78.7188 79.9062C78.5729 79.3021 78.4271 78.625 78.2812 77.875C78.1354 77.1042 78 76.3333 77.875 75.5625C77.7708 74.7917 77.7396 74.1771 77.7812 73.7188C77.8021 73.2604 77.8854 72.7917 78.0312 72.3125C78.1771 71.8125 78.3438 71.3438 78.5312 70.9062C78.7396 70.4688 78.9583 70.0938 79.1875 69.7812C79.4167 69.4479 79.6458 69.2188 79.875 69.0938C80.375 68.8438 81 68.7917 81.75 68.9375C82.5 69.0833 83.3021 69.3646 84.1562 69.7812C84.1771 69.5729 84.2708 69.3438 84.4375 69.0938C84.6042 68.8438 84.7917 68.625 85 68.4375C85.2292 68.2292 85.4583 68.0833 85.6875 68C85.9167 67.8958 86.0938 67.8854 86.2188 67.9688C86.2812 68.0104 86.3333 68.3021 86.375 68.8438C86.4167 69.3646 86.4479 70.0521 86.4688 70.9062C86.5104 71.7396 86.5312 72.6979 86.5312 73.7812C86.5521 74.8438 86.5521 75.9479 86.5312 77.0938C86.5312 78.2188 86.5208 79.3333 86.5 80.4375C86.5 81.5417 86.4792 82.5521 86.4375 83.4688C86.4167 84.3854 86.3854 85.1562 86.3438 85.7812C86.3229 86.4062 86.2917 86.8125 86.25 87ZM84.0625 72.1562C83.9375 72.0729 83.7917 71.9896 83.625 71.9062C83.4792 71.8229 83.3125 71.7396 83.125 71.6562C82.9375 71.5729 82.7292 71.5 82.5 71.4375C82.3958 71.3958 82.25 71.4375 82.0625 71.5625C81.8958 71.6875 81.7188 71.8646 81.5312 72.0938C81.3646 72.3229 81.2188 72.6042 81.0938 72.9375C80.9688 73.25 80.9062 73.5833 80.9062 73.9375C80.9062 73.9792 80.9167 74.1771 80.9375 74.5312C80.9583 74.8854 80.9896 75.3125 81.0312 75.8125C81.0729 76.3125 81.1146 76.8542 81.1562 77.4375C81.1979 78.0208 81.2396 78.5625 81.2812 79.0625C81.3438 79.5625 81.3958 79.9896 81.4375 80.3438C81.4792 80.6771 81.5104 80.8542 81.5312 80.875C81.6146 80.9583 81.7292 81 81.875 81C82.0417 81 82.1979 80.9792 82.3438 80.9375C82.5104 80.8958 82.6562 80.8438 82.7812 80.7812C82.9062 80.7188 83 80.6667 83.0625 80.625C83.3333 80.4375 83.5 80.0729 83.5625 79.5312C83.6042 79.4896 83.625 79.375 83.625 79.1875C83.6875 77.8125 83.75 76.5729 83.8125 75.4688C83.875 74.3438 83.9583 73.2396 84.0625 72.1562ZM90.7812 76.9688C91.1146 76.8438 91.4896 76.7083 91.9062 76.5625C92.3438 76.3958 92.7604 76.25 93.1562 76.125C93.5521 75.9792 93.9062 75.8542 94.2188 75.75C94.5312 75.6458 94.7604 75.5625 94.9062 75.5C94.8854 75.2708 94.8542 75.0104 94.8125 74.7188C94.7917 74.4062 94.7604 74.1146 94.7188 73.8438C94.6771 73.5521 94.625 73.3021 94.5625 73.0938C94.5 72.8854 94.4375 72.7604 94.375 72.7188C94.2083 72.6562 93.9271 72.6042 93.5312 72.5625C93.1562 72.5 92.7604 72.5104 92.3438 72.5938C91.9479 72.6771 91.5833 72.8333 91.25 73.0625C90.9167 73.2917 90.7292 73.6562 90.6875 74.1562C90.6458 74.4896 90.6354 74.9062 90.6562 75.4062C90.6771 75.9062 90.7188 76.4271 90.7812 76.9688ZM97.5625 77.4688C97.5417 77.5104 97.2917 77.5938 96.8125 77.7188C96.3333 77.8438 95.7604 77.9792 95.0938 78.125C94.4271 78.25 93.7188 78.3854 92.9688 78.5312C92.2188 78.6562 91.5729 78.7604 91.0312 78.8438C91.1354 79.6771 91.2604 80.4271 91.4062 81.0938C91.5521 81.7396 91.6771 82.1458 91.7812 82.3125C91.8854 82.4583 92.0208 82.5938 92.1875 82.7188C92.3333 82.8229 92.5104 82.9271 92.7188 83.0312C92.9479 83.1146 93.2188 83.1771 93.5312 83.2188C93.7604 83.2812 93.9792 83.1979 94.1875 82.9688C94.3542 82.7604 94.5 82.3958 94.625 81.875C94.7708 81.3542 94.8438 80.5312 94.8438 79.4062C95.4896 79.3021 95.9896 79.2396 96.3438 79.2188C96.7188 79.1979 96.9896 79.1979 97.1562 79.2188C97.3646 79.2396 97.4896 79.2708 97.5312 79.3125C97.5521 79.375 97.5521 79.5312 97.5312 79.7812C97.5104 80.0312 97.4583 80.3438 97.375 80.7188C97.3125 81.0729 97.2292 81.4688 97.125 81.9062C97.0417 82.3229 96.9375 82.7292 96.8125 83.125C96.6875 83.5 96.5521 83.8438 96.4062 84.1562C96.2604 84.4479 96.1042 84.6562 95.9375 84.7812C95.4375 85.1562 94.8125 85.3438 94.0625 85.3438C93.3125 85.3229 92.5729 85.2188 91.8438 85.0312C91.1146 84.8229 90.4583 84.5833 89.875 84.3125C89.2917 84.0208 88.9271 83.7812 88.7812 83.5938C88.6771 83.4688 88.5833 83.1562 88.5 82.6562C88.4167 82.1354 88.3438 81.5104 88.2812 80.7812C88.2396 80.0521 88.2083 79.25 88.1875 78.375C88.1667 77.5 88.1771 76.6458 88.2188 75.8125C88.2812 74.9792 88.3646 74.2083 88.4688 73.5C88.5938 72.7917 88.7604 72.2188 88.9688 71.7812C89.2812 71.1562 89.7917 70.6458 90.5 70.25C91.2083 69.8542 91.9583 69.5833 92.75 69.4375C93.5417 69.2917 94.2917 69.2708 95 69.375C95.7292 69.4792 96.2708 69.7083 96.625 70.0625C96.8333 70.2708 97.0208 70.6875 97.1875 71.3125C97.3542 71.9167 97.4583 72.6562 97.5 73.5312C97.5 73.6146 97.5104 73.8542 97.5312 74.25C97.5521 74.6458 97.5625 75.0729 97.5625 75.5312C97.5833 75.9688 97.5938 76.3854 97.5938 76.7812C97.5938 77.1771 97.5833 77.4062 97.5625 77.4688ZM112.844 68.5C112.906 68.5417 112.958 68.8125 113 69.3125C113.042 69.8125 113.073 70.4688 113.094 71.2812C113.135 72.0729 113.156 72.9792 113.156 74C113.156 75.0208 113.156 76.0729 113.156 77.1562C113.156 78.2396 113.146 79.3125 113.125 80.375C113.125 81.4167 113.104 82.375 113.062 83.25C113.042 84.1042 113.01 84.8333 112.969 85.4375C112.948 86.0417 112.917 86.4271 112.875 86.5938C112.833 86.7188 112.708 86.9062 112.5 87.1562C112.312 87.4271 112.083 87.6979 111.812 87.9688C111.542 88.2396 111.26 88.4792 110.969 88.6875C110.698 88.9167 110.469 89.0625 110.281 89.125C109.906 89.25 109.49 89.2292 109.031 89.0625C108.573 88.8958 108.135 88.6771 107.719 88.4062C107.323 88.1354 106.969 87.8438 106.656 87.5312C106.365 87.2396 106.188 87.0312 106.125 86.9062C106.062 86.7812 106 86.5938 105.938 86.3438C105.896 86.1146 105.865 85.8854 105.844 85.6562C105.823 85.4062 105.823 85.1979 105.844 85.0312C105.885 84.8438 105.958 84.75 106.062 84.75C106.146 84.75 106.365 84.8438 106.719 85.0312C107.094 85.2188 107.49 85.4167 107.906 85.625C108.323 85.8125 108.708 85.9688 109.062 86.0938C109.417 86.2188 109.635 86.2083 109.719 86.0625C109.802 85.8958 109.885 85.4479 109.969 84.7188C110.052 83.9688 110.135 83.0625 110.219 82C109.49 82.25 108.823 82.4167 108.219 82.5C107.635 82.5625 107.146 82.4583 106.75 82.1875C106.562 82.0625 106.365 81.8438 106.156 81.5312C105.969 81.2188 105.792 80.8646 105.625 80.4688C105.479 80.0521 105.354 79.6146 105.25 79.1562C105.146 78.6771 105.094 78.2292 105.094 77.8125C105.094 77.5208 105.125 77.1042 105.188 76.5625C105.271 76.0208 105.375 75.4271 105.5 74.7812C105.625 74.1354 105.75 73.4688 105.875 72.7812C106.021 72.0938 106.156 71.4688 106.281 70.9062C106.427 70.3438 106.542 69.875 106.625 69.5C106.729 69.1042 106.792 68.8854 106.812 68.8438C106.854 68.7812 106.958 68.75 107.125 68.75C107.292 68.7292 107.469 68.7396 107.656 68.7812C107.844 68.8021 108.021 68.8542 108.188 68.9375C108.354 69.0208 108.458 69.1146 108.5 69.2188C108.521 69.3021 108.521 69.5625 108.5 70C108.5 70.4375 108.469 70.9583 108.406 71.5625C108.365 72.1667 108.312 72.8229 108.25 73.5312C108.208 74.2188 108.156 74.875 108.094 75.5C108.052 76.1042 108.01 76.625 107.969 77.0625C107.927 77.5 107.906 77.7604 107.906 77.8438C107.906 78.1771 107.938 78.5 108 78.8125C108.083 79.1042 108.177 79.3646 108.281 79.5938C108.406 79.8021 108.531 79.9688 108.656 80.0938C108.781 80.2188 108.896 80.2604 109 80.2188C109.354 80.1562 109.677 80.0729 109.969 79.9688C110.115 79.9062 110.25 79.8438 110.375 79.7812C110.438 78.7604 110.5 77.7188 110.562 76.6562C110.625 75.5729 110.677 74.5833 110.719 73.6875C110.76 72.7917 110.792 72.0312 110.812 71.4062C110.854 70.7812 110.875 70.3854 110.875 70.2188C110.875 70.0312 110.958 69.8229 111.125 69.5938C111.292 69.3438 111.479 69.125 111.688 68.9375C111.896 68.75 112.104 68.6146 112.312 68.5312C112.542 68.4271 112.719 68.4167 112.844 68.5ZM117.688 76.9688C118.021 76.8438 118.396 76.7083 118.812 76.5625C119.25 76.3958 119.667 76.25 120.062 76.125C120.458 75.9792 120.812 75.8542 121.125 75.75C121.438 75.6458 121.667 75.5625 121.812 75.5C121.792 75.2708 121.76 75.0104 121.719 74.7188C121.698 74.4062 121.667 74.1146 121.625 73.8438C121.583 73.5521 121.531 73.3021 121.469 73.0938C121.406 72.8854 121.344 72.7604 121.281 72.7188C121.115 72.6562 120.833 72.6042 120.438 72.5625C120.062 72.5 119.667 72.5104 119.25 72.5938C118.854 72.6771 118.49 72.8333 118.156 73.0625C117.823 73.2917 117.635 73.6562 117.594 74.1562C117.552 74.4896 117.542 74.9062 117.562 75.4062C117.583 75.9062 117.625 76.4271 117.688 76.9688ZM124.469 77.4688C124.448 77.5104 124.198 77.5938 123.719 77.7188C123.24 77.8438 122.667 77.9792 122 78.125C121.333 78.25 120.625 78.3854 119.875 78.5312C119.125 78.6562 118.479 78.7604 117.938 78.8438C118.042 79.6771 118.167 80.4271 118.312 81.0938C118.458 81.7396 118.583 82.1458 118.688 82.3125C118.792 82.4583 118.927 82.5938 119.094 82.7188C119.24 82.8229 119.417 82.9271 119.625 83.0312C119.854 83.1146 120.125 83.1771 120.438 83.2188C120.667 83.2812 120.885 83.1979 121.094 82.9688C121.26 82.7604 121.406 82.3958 121.531 81.875C121.677 81.3542 121.75 80.5312 121.75 79.4062C122.396 79.3021 122.896 79.2396 123.25 79.2188C123.625 79.1979 123.896 79.1979 124.062 79.2188C124.271 79.2396 124.396 79.2708 124.438 79.3125C124.458 79.375 124.458 79.5312 124.438 79.7812C124.417 80.0312 124.365 80.3438 124.281 80.7188C124.219 81.0729 124.135 81.4688 124.031 81.9062C123.948 82.3229 123.844 82.7292 123.719 83.125C123.594 83.5 123.458 83.8438 123.312 84.1562C123.167 84.4479 123.01 84.6562 122.844 84.7812C122.344 85.1562 121.719 85.3438 120.969 85.3438C120.219 85.3229 119.479 85.2188 118.75 85.0312C118.021 84.8229 117.365 84.5833 116.781 84.3125C116.198 84.0208 115.833 83.7812 115.688 83.5938C115.583 83.4688 115.49 83.1562 115.406 82.6562C115.323 82.1354 115.25 81.5104 115.188 80.7812C115.146 80.0521 115.115 79.25 115.094 78.375C115.073 77.5 115.083 76.6458 115.125 75.8125C115.188 74.9792 115.271 74.2083 115.375 73.5C115.5 72.7917 115.667 72.2188 115.875 71.7812C116.188 71.1562 116.698 70.6458 117.406 70.25C118.115 69.8542 118.865 69.5833 119.656 69.4375C120.448 69.2917 121.198 69.2708 121.906 69.375C122.635 69.4792 123.177 69.7083 123.531 70.0625C123.74 70.2708 123.927 70.6875 124.094 71.3125C124.26 71.9167 124.365 72.6562 124.406 73.5312C124.406 73.6146 124.417 73.8542 124.438 74.25C124.458 74.6458 124.469 75.0729 124.469 75.5312C124.49 75.9688 124.5 76.3854 124.5 76.7812C124.5 77.1771 124.49 77.4062 124.469 77.4688ZM133.156 69.9375C133.177 70 133.177 70.1771 133.156 70.4688C133.135 70.7396 133.094 71.0521 133.031 71.4062C132.99 71.7396 132.938 72.0521 132.875 72.3438C132.812 72.6146 132.76 72.7812 132.719 72.8438C132.51 72.8646 132.302 72.875 132.094 72.875C131.885 72.8542 131.688 72.8438 131.5 72.8438H130.844C130.823 74.2188 130.792 75.5833 130.75 76.9375C130.708 78.2917 130.656 79.5104 130.594 80.5938C130.531 81.6562 130.458 82.5208 130.375 83.1875C130.312 83.8542 130.25 84.1979 130.188 84.2188C130.042 84.2396 129.875 84.1771 129.688 84.0312C129.5 83.8854 129.312 83.7083 129.125 83.5C128.958 83.2708 128.802 83.0417 128.656 82.8125C128.531 82.5625 128.458 82.3438 128.438 82.1562C128.333 80.8854 128.24 79.6771 128.156 78.5312C128.073 77.3646 128.01 76.3333 127.969 75.4375C127.885 74.3958 127.833 73.4271 127.812 72.5312C127.583 72.5104 127.354 72.4792 127.125 72.4375C126.917 72.3958 126.698 72.3542 126.469 72.3125C126.26 72.2708 126.042 72.2292 125.812 72.1875C125.771 72.1458 125.719 72.0521 125.656 71.9062C125.594 71.7396 125.531 71.5625 125.469 71.375C125.427 71.1875 125.385 71.0104 125.344 70.8438C125.302 70.6562 125.281 70.5208 125.281 70.4375C125.281 70.375 125.51 70.3125 125.969 70.25C126.448 70.1875 127.031 70.1354 127.719 70.0938C127.677 68.9896 127.646 68.0312 127.625 67.2188C127.625 66.3854 127.656 65.8229 127.719 65.5312C127.781 65.1354 127.948 64.7604 128.219 64.4062C128.51 64.0312 128.812 63.7083 129.125 63.4375C129.458 63.1667 129.76 62.9688 130.031 62.8438C130.323 62.6979 130.51 62.6562 130.594 62.7188C130.656 62.7604 130.708 62.9792 130.75 63.375C130.792 63.75 130.823 64.2604 130.844 64.9062C130.865 65.5521 130.875 66.3125 130.875 67.1875C130.875 68.0417 130.875 68.9479 130.875 69.9062C131.5 69.8646 132.031 69.8542 132.469 69.875C132.906 69.875 133.135 69.8958 133.156 69.9375Z" fill="white"/>
<defs>
<linearGradient id="paint0_linear_0_1" x1="0" y1="0" x2="150" y2="150" gradientUnits="userSpaceOnUse">
<stop stop-color="#C4BFBF"/>
<stop offset="1" stop-color="#959393"/>
</linearGradient>
</defs>
</svg>
