<svg width="130" height="130" viewBox="0 0 130 130" fill="none" xmlns="http://www.w3.org/2000/svg">
<path d="M110.5 77C101.3 110.319 160.155 147.819 107 114.5C91.3976 104.72 0 171.55 0 81.2388C0 36.0832 30.5 -3 72 0.500005C133 7.5 119.7 43.6807 110.5 77Z" fill="#1E3A8A"/>
<g filter="url(#filter0_d_0_1)">
<mask id="path-2-outside-1_0_1" maskUnits="userSpaceOnUse" x="27" y="15" width="42" height="99" fill="black">
<rect fill="white" x="27" y="15" width="42" height="99"/>
<path d="M28.375 111.875C28.2083 111.458 28.125 109.958 28.125 107.375C28.125 104.792 28.125 101.542 28.125 97.625C28.2083 93.7083 28.2917 89.3333 28.375 84.5C28.5417 79.5833 28.6667 74.625 28.75 69.625C28.9167 64.5417 29.0833 59.625 29.25 54.875C29.4167 50.0417 29.5417 45.75 29.625 42C29.7917 38.25 29.9167 35.2083 30 32.875C30.0833 30.4583 30.1667 29.1667 30.25 29C30.3333 28.6667 30.7083 27.8333 31.375 26.5C32.0417 25.1667 32.7917 23.7917 33.625 22.375C34.5417 20.875 35.4583 19.5833 36.375 18.5C37.2917 17.3333 38.0833 16.7917 38.75 16.875C39 16.9583 39.2083 18.625 39.375 21.875C39.625 25.0417 39.8333 29.125 40 34.125C40.25 39.125 40.4167 44.6667 40.5 50.75C40.6667 56.75 40.7917 62.625 40.875 68.375C41.0417 74.0417 41.1667 79.2083 41.25 83.875C41.3333 88.4583 41.4167 91.8333 41.5 94C44.1667 94.25 46.8333 94.4583 49.5 94.625C52.25 94.7917 54.7083 95 56.875 95.25C59.0417 95.4167 60.7917 95.5833 62.125 95.75C63.5417 95.9167 64.2917 96.0417 64.375 96.125C64.625 96.4583 64.9583 97.25 65.375 98.5C65.875 99.6667 66.3333 100.958 66.75 102.375C67.1667 103.708 67.4583 104.958 67.625 106.125C67.875 107.292 67.8333 108 67.5 108.25C57.9167 110 50.5 111.167 45.25 111.75C40 112.333 36.125 112.625 33.625 112.625C30.7083 112.625 28.9583 112.375 28.375 111.875Z"/>
</mask>
<path d="M28.375 111.875C28.2083 111.458 28.125 109.958 28.125 107.375C28.125 104.792 28.125 101.542 28.125 97.625C28.2083 93.7083 28.2917 89.3333 28.375 84.5C28.5417 79.5833 28.6667 74.625 28.75 69.625C28.9167 64.5417 29.0833 59.625 29.25 54.875C29.4167 50.0417 29.5417 45.75 29.625 42C29.7917 38.25 29.9167 35.2083 30 32.875C30.0833 30.4583 30.1667 29.1667 30.25 29C30.3333 28.6667 30.7083 27.8333 31.375 26.5C32.0417 25.1667 32.7917 23.7917 33.625 22.375C34.5417 20.875 35.4583 19.5833 36.375 18.5C37.2917 17.3333 38.0833 16.7917 38.75 16.875C39 16.9583 39.2083 18.625 39.375 21.875C39.625 25.0417 39.8333 29.125 40 34.125C40.25 39.125 40.4167 44.6667 40.5 50.75C40.6667 56.75 40.7917 62.625 40.875 68.375C41.0417 74.0417 41.1667 79.2083 41.25 83.875C41.3333 88.4583 41.4167 91.8333 41.5 94C44.1667 94.25 46.8333 94.4583 49.5 94.625C52.25 94.7917 54.7083 95 56.875 95.25C59.0417 95.4167 60.7917 95.5833 62.125 95.75C63.5417 95.9167 64.2917 96.0417 64.375 96.125C64.625 96.4583 64.9583 97.25 65.375 98.5C65.875 99.6667 66.3333 100.958 66.75 102.375C67.1667 103.708 67.4583 104.958 67.625 106.125C67.875 107.292 67.8333 108 67.5 108.25C57.9167 110 50.5 111.167 45.25 111.75C40 112.333 36.125 112.625 33.625 112.625C30.7083 112.625 28.9583 112.375 28.375 111.875Z" fill="#FC3737"/>
<path d="M28.375 111.875L27.4465 112.246L27.5377 112.474L27.7242 112.634L28.375 111.875ZM28.125 97.625L27.1252 97.6037L27.125 97.6144V97.625H28.125ZM28.375 84.5L27.3756 84.4661L27.3753 84.4744L27.3751 84.4828L28.375 84.5ZM28.75 69.625L27.7505 69.5922L27.7503 69.6003L27.7501 69.6083L28.75 69.625ZM29.25 54.875L30.2494 54.9101L30.2494 54.9095L29.25 54.875ZM29.625 42L28.626 41.9556L28.6255 41.9667L28.6252 41.9778L29.625 42ZM30 32.875L30.9994 32.9107L30.9994 32.9095L30 32.875ZM30.25 29L31.1444 29.4472L31.1935 29.349L31.2201 29.2425L30.25 29ZM31.375 26.5L32.2694 26.9472L31.375 26.5ZM33.625 22.375L32.7717 21.8535L32.7673 21.8607L32.7631 21.868L33.625 22.375ZM36.375 18.5L37.1384 19.1459L37.1501 19.1321L37.1613 19.1178L36.375 18.5ZM38.75 16.875L39.0662 15.9263L38.9723 15.895L38.874 15.8827L38.75 16.875ZM39.375 21.875L38.3763 21.9262L38.377 21.94L38.3781 21.9537L39.375 21.875ZM40 34.125L39.0006 34.1583L39.0008 34.1666L39.0012 34.1749L40 34.125ZM40.5 50.75L39.5 50.7637L39.5004 50.7778L40.5 50.75ZM40.875 68.375L39.8751 68.3895L39.8752 68.3969L39.8754 68.4044L40.875 68.375ZM41.25 83.875L40.2502 83.8929L40.2502 83.8932L41.25 83.875ZM41.5 94L40.5007 94.0384L40.5344 94.9139L41.4067 94.9956L41.5 94ZM49.5 94.625L49.4376 95.6231L49.4395 95.6232L49.5 94.625ZM56.875 95.25L56.7604 96.2434L56.7793 96.2456L56.7983 96.2471L56.875 95.25ZM62.125 95.75L62.001 96.7423L62.0082 96.7432L62.125 95.75ZM64.375 96.125L65.175 95.525L65.1324 95.4681L65.0821 95.4179L64.375 96.125ZM65.375 98.5L64.4263 98.8162L64.4395 98.8557L64.4559 98.8939L65.375 98.5ZM66.75 102.375L65.7906 102.657L65.793 102.665L65.7955 102.673L66.75 102.375ZM67.625 106.125L66.6351 106.266L66.6399 106.301L66.6472 106.335L67.625 106.125ZM67.5 108.25L67.6796 109.234L67.9115 109.191L68.1 109.05L67.5 108.25ZM29.3035 111.504C29.3117 111.524 29.2871 111.459 29.2572 111.23C29.2304 111.024 29.2061 110.744 29.186 110.382C29.1458 109.659 29.125 108.659 29.125 107.375H27.125C27.125 108.674 27.1459 109.716 27.189 110.493C27.2106 110.881 27.2383 111.215 27.274 111.489C27.3066 111.739 27.355 112.018 27.4465 112.246L29.3035 111.504ZM29.125 107.375C29.125 107.37 29.125 107.365 29.125 107.36C29.125 107.355 29.125 107.35 29.125 107.345C29.125 107.34 29.125 107.335 29.125 107.33C29.125 107.324 29.125 107.319 29.125 107.314C29.125 107.309 29.125 107.304 29.125 107.299C29.125 107.294 29.125 107.289 29.125 107.284C29.125 107.279 29.125 107.274 29.125 107.269C29.125 107.264 29.125 107.259 29.125 107.253C29.125 107.248 29.125 107.243 29.125 107.238C29.125 107.233 29.125 107.228 29.125 107.223C29.125 107.218 29.125 107.213 29.125 107.208C29.125 107.202 29.125 107.197 29.125 107.192C29.125 107.187 29.125 107.182 29.125 107.177C29.125 107.172 29.125 107.167 29.125 107.162C29.125 107.156 29.125 107.151 29.125 107.146C29.125 107.141 29.125 107.136 29.125 107.131C29.125 107.126 29.125 107.121 29.125 107.115C29.125 107.11 29.125 107.105 29.125 107.1C29.125 107.095 29.125 107.09 29.125 107.085C29.125 107.08 29.125 107.074 29.125 107.069C29.125 107.064 29.125 107.059 29.125 107.054C29.125 107.049 29.125 107.043 29.125 107.038C29.125 107.033 29.125 107.028 29.125 107.023C29.125 107.018 29.125 107.012 29.125 107.007C29.125 107.002 29.125 106.997 29.125 106.992C29.125 106.987 29.125 106.981 29.125 106.976C29.125 106.971 29.125 106.966 29.125 106.961C29.125 106.956 29.125 106.95 29.125 106.945C29.125 106.94 29.125 106.935 29.125 106.93C29.125 106.924 29.125 106.919 29.125 106.914C29.125 106.909 29.125 106.904 29.125 106.898C29.125 106.893 29.125 106.888 29.125 106.883C29.125 106.878 29.125 106.872 29.125 106.867C29.125 106.862 29.125 106.857 29.125 106.852C29.125 106.846 29.125 106.841 29.125 106.836C29.125 106.831 29.125 106.825 29.125 106.82C29.125 106.815 29.125 106.81 29.125 106.804C29.125 106.799 29.125 106.794 29.125 106.789C29.125 106.784 29.125 106.778 29.125 106.773C29.125 106.768 29.125 106.763 29.125 106.757C29.125 106.752 29.125 106.747 29.125 106.742C29.125 106.736 29.125 106.731 29.125 106.726C29.125 106.721 29.125 106.715 29.125 106.71C29.125 106.705 29.125 106.699 29.125 106.694C29.125 106.689 29.125 106.684 29.125 106.678C29.125 106.673 29.125 106.668 29.125 106.663C29.125 106.657 29.125 106.652 29.125 106.647C29.125 106.641 29.125 106.636 29.125 106.631C29.125 106.626 29.125 106.62 29.125 106.615C29.125 106.61 29.125 106.604 29.125 106.599C29.125 106.594 29.125 106.588 29.125 106.583C29.125 106.578 29.125 106.573 29.125 106.567C29.125 106.562 29.125 106.557 29.125 106.551C29.125 106.546 29.125 106.541 29.125 106.535C29.125 106.53 29.125 106.525 29.125 106.519C29.125 106.514 29.125 106.509 29.125 106.503C29.125 106.498 29.125 106.493 29.125 106.487C29.125 106.482 29.125 106.477 29.125 106.471C29.125 106.466 29.125 106.461 29.125 106.455C29.125 106.45 29.125 106.445 29.125 106.439C29.125 106.434 29.125 106.429 29.125 106.423C29.125 106.418 29.125 106.413 29.125 106.407C29.125 106.402 29.125 106.396 29.125 106.391C29.125 106.386 29.125 106.38 29.125 106.375C29.125 106.37 29.125 106.364 29.125 106.359C29.125 106.354 29.125 106.348 29.125 106.343C29.125 106.337 29.125 106.332 29.125 106.327C29.125 106.321 29.125 106.316 29.125 106.31C29.125 106.305 29.125 106.3 29.125 106.294C29.125 106.289 29.125 106.283 29.125 106.278C29.125 106.273 29.125 106.267 29.125 106.262C29.125 106.256 29.125 106.251 29.125 106.246C29.125 106.24 29.125 106.235 29.125 106.229C29.125 106.224 29.125 106.219 29.125 106.213C29.125 106.208 29.125 106.202 29.125 106.197C29.125 106.191 29.125 106.186 29.125 106.181C29.125 106.175 29.125 106.17 29.125 106.164C29.125 106.159 29.125 106.153 29.125 106.148C29.125 106.142 29.125 106.137 29.125 106.132C29.125 106.126 29.125 106.121 29.125 106.115C29.125 106.11 29.125 106.104 29.125 106.099C29.125 106.093 29.125 106.088 29.125 106.082C29.125 106.077 29.125 106.072 29.125 106.066C29.125 106.061 29.125 106.055 29.125 106.05C29.125 106.044 29.125 106.039 29.125 106.033C29.125 106.028 29.125 106.022 29.125 106.017C29.125 106.011 29.125 106.006 29.125 106C29.125 105.995 29.125 105.989 29.125 105.984C29.125 105.978 29.125 105.973 29.125 105.967C29.125 105.962 29.125 105.956 29.125 105.951C29.125 105.945 29.125 105.94 29.125 105.934C29.125 105.929 29.125 105.923 29.125 105.918C29.125 105.912 29.125 105.907 29.125 105.901C29.125 105.896 29.125 105.89 29.125 105.885C29.125 105.879 29.125 105.874 29.125 105.868C29.125 105.863 29.125 105.857 29.125 105.852C29.125 105.846 29.125 105.84 29.125 105.835C29.125 105.829 29.125 105.824 29.125 105.818C29.125 105.813 29.125 105.807 29.125 105.802C29.125 105.796 29.125 105.791 29.125 105.785C29.125 105.779 29.125 105.774 29.125 105.768C29.125 105.763 29.125 105.757 29.125 105.752C29.125 105.746 29.125 105.741 29.125 105.735C29.125 105.729 29.125 105.724 29.125 105.718C29.125 105.713 29.125 105.707 29.125 105.702C29.125 105.696 29.125 105.69 29.125 105.685C29.125 105.679 29.125 105.674 29.125 105.668C29.125 105.662 29.125 105.657 29.125 105.651C29.125 105.646 29.125 105.64 29.125 105.634C29.125 105.629 29.125 105.623 29.125 105.618C29.125 105.612 29.125 105.606 29.125 105.601C29.125 105.595 29.125 105.59 29.125 105.584C29.125 105.578 29.125 105.573 29.125 105.567C29.125 105.562 29.125 105.556 29.125 105.55C29.125 105.545 29.125 105.539 29.125 105.533C29.125 105.528 29.125 105.522 29.125 105.516C29.125 105.511 29.125 105.505 29.125 105.5C29.125 105.494 29.125 105.488 29.125 105.483C29.125 105.477 29.125 105.471 29.125 105.466C29.125 105.46 29.125 105.454 29.125 105.449C29.125 105.443 29.125 105.437 29.125 105.432C29.125 105.426 29.125 105.42 29.125 105.415C29.125 105.409 29.125 105.403 29.125 105.398C29.125 105.392 29.125 105.386 29.125 105.381C29.125 105.375 29.125 105.369 29.125 105.364C29.125 105.358 29.125 105.352 29.125 105.347C29.125 105.341 29.125 105.335 29.125 105.33C29.125 105.324 29.125 105.318 29.125 105.312C29.125 105.307 29.125 105.301 29.125 105.295C29.125 105.29 29.125 105.284 29.125 105.278C29.125 105.273 29.125 105.267 29.125 105.261C29.125 105.255 29.125 105.25 29.125 105.244C29.125 105.238 29.125 105.233 29.125 105.227C29.125 105.221 29.125 105.215 29.125 105.21C29.125 105.204 29.125 105.198 29.125 105.192C29.125 105.187 29.125 105.181 29.125 105.175C29.125 105.17 29.125 105.164 29.125 105.158C29.125 105.152 29.125 105.147 29.125 105.141C29.125 105.135 29.125 105.129 29.125 105.124C29.125 105.118 29.125 105.112 29.125 105.106C29.125 105.101 29.125 105.095 29.125 105.089C29.125 105.083 29.125 105.078 29.125 105.072C29.125 105.066 29.125 105.06 29.125 105.054C29.125 105.049 29.125 105.043 29.125 105.037C29.125 105.031 29.125 105.026 29.125 105.02C29.125 105.014 29.125 105.008 29.125 105.002C29.125 104.997 29.125 104.991 29.125 104.985C29.125 104.979 29.125 104.973 29.125 104.968C29.125 104.962 29.125 104.956 29.125 104.95C29.125 104.944 29.125 104.939 29.125 104.933C29.125 104.927 29.125 104.921 29.125 104.915C29.125 104.91 29.125 104.904 29.125 104.898C29.125 104.892 29.125 104.886 29.125 104.88C29.125 104.875 29.125 104.869 29.125 104.863C29.125 104.857 29.125 104.851 29.125 104.846C29.125 104.84 29.125 104.834 29.125 104.828C29.125 104.822 29.125 104.816 29.125 104.81C29.125 104.805 29.125 104.799 29.125 104.793C29.125 104.787 29.125 104.781 29.125 104.775C29.125 104.77 29.125 104.764 29.125 104.758C29.125 104.752 29.125 104.746 29.125 104.74C29.125 104.734 29.125 104.728 29.125 104.723C29.125 104.717 29.125 104.711 29.125 104.705C29.125 104.699 29.125 104.693 29.125 104.687C29.125 104.681 29.125 104.676 29.125 104.67C29.125 104.664 29.125 104.658 29.125 104.652C29.125 104.646 29.125 104.64 29.125 104.634C29.125 104.628 29.125 104.623 29.125 104.617C29.125 104.611 29.125 104.605 29.125 104.599C29.125 104.593 29.125 104.587 29.125 104.581C29.125 104.575 29.125 104.569 29.125 104.564C29.125 104.558 29.125 104.552 29.125 104.546C29.125 104.54 29.125 104.534 29.125 104.528C29.125 104.522 29.125 104.516 29.125 104.51C29.125 104.504 29.125 104.498 29.125 104.492C29.125 104.486 29.125 104.481 29.125 104.475C29.125 104.469 29.125 104.463 29.125 104.457C29.125 104.451 29.125 104.445 29.125 104.439C29.125 104.433 29.125 104.427 29.125 104.421C29.125 104.415 29.125 104.409 29.125 104.403C29.125 104.397 29.125 104.391 29.125 104.385C29.125 104.379 29.125 104.373 29.125 104.367C29.125 104.361 29.125 104.355 29.125 104.349C29.125 104.344 29.125 104.338 29.125 104.332C29.125 104.326 29.125 104.32 29.125 104.314C29.125 104.308 29.125 104.302 29.125 104.296C29.125 104.29 29.125 104.284 29.125 104.278C29.125 104.272 29.125 104.266 29.125 104.26C29.125 104.254 29.125 104.248 29.125 104.242C29.125 104.236 29.125 104.23 29.125 104.224C29.125 104.218 29.125 104.212 29.125 104.206C29.125 104.2 29.125 104.194 29.125 104.188C29.125 104.181 29.125 104.175 29.125 104.169C29.125 104.163 29.125 104.157 29.125 104.151C29.125 104.145 29.125 104.139 29.125 104.133C29.125 104.127 29.125 104.121 29.125 104.115C29.125 104.109 29.125 104.103 29.125 104.097C29.125 104.091 29.125 104.085 29.125 104.079C29.125 104.073 29.125 104.067 29.125 104.061C29.125 104.055 29.125 104.049 29.125 104.042C29.125 104.036 29.125 104.03 29.125 104.024C29.125 104.018 29.125 104.012 29.125 104.006C29.125 104 29.125 103.994 29.125 103.988C29.125 103.982 29.125 103.976 29.125 103.97C29.125 103.964 29.125 103.957 29.125 103.951C29.125 103.945 29.125 103.939 29.125 103.933C29.125 103.927 29.125 103.921 29.125 103.915C29.125 103.909 29.125 103.903 29.125 103.896C29.125 103.89 29.125 103.884 29.125 103.878C29.125 103.872 29.125 103.866 29.125 103.86C29.125 103.854 29.125 103.848 29.125 103.841C29.125 103.835 29.125 103.829 29.125 103.823C29.125 103.817 29.125 103.811 29.125 103.805C29.125 103.799 29.125 103.792 29.125 103.786C29.125 103.78 29.125 103.774 29.125 103.768C29.125 103.762 29.125 103.756 29.125 103.75C29.125 103.743 29.125 103.737 29.125 103.731C29.125 103.725 29.125 103.719 29.125 103.713C29.125 103.706 29.125 103.7 29.125 103.694C29.125 103.688 29.125 103.682 29.125 103.676C29.125 103.669 29.125 103.663 29.125 103.657C29.125 103.651 29.125 103.645 29.125 103.639C29.125 103.632 29.125 103.626 29.125 103.62C29.125 103.614 29.125 103.608 29.125 103.602C29.125 103.595 29.125 103.589 29.125 103.583C29.125 103.577 29.125 103.571 29.125 103.564C29.125 103.558 29.125 103.552 29.125 103.546C29.125 103.54 29.125 103.533 29.125 103.527C29.125 103.521 29.125 103.515 29.125 103.509C29.125 103.502 29.125 103.496 29.125 103.49C29.125 103.484 29.125 103.478 29.125 103.471C29.125 103.465 29.125 103.459 29.125 103.453C29.125 103.446 29.125 103.44 29.125 103.434C29.125 103.428 29.125 103.421 29.125 103.415C29.125 103.409 29.125 103.403 29.125 103.397C29.125 103.39 29.125 103.384 29.125 103.378C29.125 103.372 29.125 103.365 29.125 103.359C29.125 103.353 29.125 103.347 29.125 103.34C29.125 103.334 29.125 103.328 29.125 103.322C29.125 103.315 29.125 103.309 29.125 103.303C29.125 103.296 29.125 103.29 29.125 103.284C29.125 103.278 29.125 103.271 29.125 103.265C29.125 103.259 29.125 103.253 29.125 103.246C29.125 103.24 29.125 103.234 29.125 103.227C29.125 103.221 29.125 103.215 29.125 103.209C29.125 103.202 29.125 103.196 29.125 103.19C29.125 103.183 29.125 103.177 29.125 103.171C29.125 103.164 29.125 103.158 29.125 103.152C29.125 103.146 29.125 103.139 29.125 103.133C29.125 103.127 29.125 103.12 29.125 103.114C29.125 103.108 29.125 103.101 29.125 103.095C29.125 103.089 29.125 103.082 29.125 103.076C29.125 103.07 29.125 103.063 29.125 103.057C29.125 103.051 29.125 103.044 29.125 103.038C29.125 103.032 29.125 103.025 29.125 103.019C29.125 103.013 29.125 103.006 29.125 103C29.125 102.994 29.125 102.987 29.125 102.981C29.125 102.975 29.125 102.968 29.125 102.962C29.125 102.956 29.125 102.949 29.125 102.943C29.125 102.936 29.125 102.93 29.125 102.924C29.125 102.917 29.125 102.911 29.125 102.905C29.125 102.898 29.125 102.892 29.125 102.885C29.125 102.879 29.125 102.873 29.125 102.866C29.125 102.86 29.125 102.854 29.125 102.847C29.125 102.841 29.125 102.834 29.125 102.828C29.125 102.822 29.125 102.815 29.125 102.809C29.125 102.802 29.125 102.796 29.125 102.79C29.125 102.783 29.125 102.777 29.125 102.77C29.125 102.764 29.125 102.758 29.125 102.751C29.125 102.745 29.125 102.738 29.125 102.732C29.125 102.725 29.125 102.719 29.125 102.713C29.125 102.706 29.125 102.7 29.125 102.693C29.125 102.687 29.125 102.68 29.125 102.674C29.125 102.668 29.125 102.661 29.125 102.655C29.125 102.648 29.125 102.642 29.125 102.635C29.125 102.629 29.125 102.623 29.125 102.616C29.125 102.61 29.125 102.603 29.125 102.597C29.125 102.59 29.125 102.584 29.125 102.577C29.125 102.571 29.125 102.564 29.125 102.558C29.125 102.552 29.125 102.545 29.125 102.539C29.125 102.532 29.125 102.526 29.125 102.519C29.125 102.513 29.125 102.506 29.125 102.5C29.125 102.493 29.125 102.487 29.125 102.48C29.125 102.474 29.125 102.467 29.125 102.461C29.125 102.454 29.125 102.448 29.125 102.441C29.125 102.435 29.125 102.428 29.125 102.422C29.125 102.415 29.125 102.409 29.125 102.402C29.125 102.396 29.125 102.389 29.125 102.383C29.125 102.376 29.125 102.37 29.125 102.363C29.125 102.357 29.125 102.35 29.125 102.344C29.125 102.337 29.125 102.331 29.125 102.324C29.125 102.318 29.125 102.311 29.125 102.305C29.125 102.298 29.125 102.292 29.125 102.285C29.125 102.278 29.125 102.272 29.125 102.265C29.125 102.259 29.125 102.252 29.125 102.246C29.125 102.239 29.125 102.233 29.125 102.226C29.125 102.22 29.125 102.213 29.125 102.206C29.125 102.2 29.125 102.193 29.125 102.187C29.125 102.18 29.125 102.174 29.125 102.167C29.125 102.16 29.125 102.154 29.125 102.147C29.125 102.141 29.125 102.134 29.125 102.128C29.125 102.121 29.125 102.114 29.125 102.108C29.125 102.101 29.125 102.095 29.125 102.088C29.125 102.082 29.125 102.075 29.125 102.068C29.125 102.062 29.125 102.055 29.125 102.049C29.125 102.042 29.125 102.035 29.125 102.029C29.125 102.022 29.125 102.016 29.125 102.009C29.125 102.002 29.125 101.996 29.125 101.989C29.125 101.983 29.125 101.976 29.125 101.969C29.125 101.963 29.125 101.956 29.125 101.949C29.125 101.943 29.125 101.936 29.125 101.93C29.125 101.923 29.125 101.916 29.125 101.91C29.125 101.903 29.125 101.896 29.125 101.89C29.125 101.883 29.125 101.876 29.125 101.87C29.125 101.863 29.125 101.857 29.125 101.85C29.125 101.843 29.125 101.837 29.125 101.83C29.125 101.823 29.125 101.817 29.125 101.81C29.125 101.803 29.125 101.797 29.125 101.79C29.125 101.783 29.125 101.777 29.125 101.77C29.125 101.763 29.125 101.757 29.125 101.75C29.125 101.743 29.125 101.737 29.125 101.73C29.125 101.723 29.125 101.717 29.125 101.71C29.125 101.703 29.125 101.697 29.125 101.69C29.125 101.683 29.125 101.676 29.125 101.67C29.125 101.663 29.125 101.656 29.125 101.65C29.125 101.643 29.125 101.636 29.125 101.63C29.125 101.623 29.125 101.616 29.125 101.609C29.125 101.603 29.125 101.596 29.125 101.589C29.125 101.583 29.125 101.576 29.125 101.569C29.125 101.562 29.125 101.556 29.125 101.549C29.125 101.542 29.125 101.536 29.125 101.529C29.125 101.522 29.125 101.515 29.125 101.509C29.125 101.502 29.125 101.495 29.125 101.488C29.125 101.482 29.125 101.475 29.125 101.468C29.125 101.461 29.125 101.455 29.125 101.448C29.125 101.441 29.125 101.434 29.125 101.428C29.125 101.421 29.125 101.414 29.125 101.407C29.125 101.401 29.125 101.394 29.125 101.387C29.125 101.38 29.125 101.374 29.125 101.367C29.125 101.36 29.125 101.353 29.125 101.347C29.125 101.34 29.125 101.333 29.125 101.326C29.125 101.319 29.125 101.313 29.125 101.306C29.125 101.299 29.125 101.292 29.125 101.286C29.125 101.279 29.125 101.272 29.125 101.265C29.125 101.258 29.125 101.252 29.125 101.245C29.125 101.238 29.125 101.231 29.125 101.224C29.125 101.218 29.125 101.211 29.125 101.204C29.125 101.197 29.125 101.19 29.125 101.183C29.125 101.177 29.125 101.17 29.125 101.163C29.125 101.156 29.125 101.149 29.125 101.143C29.125 101.136 29.125 101.129 29.125 101.122C29.125 101.115 29.125 101.108 29.125 101.102C29.125 101.095 29.125 101.088 29.125 101.081C29.125 101.074 29.125 101.067 29.125 101.061C29.125 101.054 29.125 101.047 29.125 101.04C29.125 101.033 29.125 101.026 29.125 101.019C29.125 101.013 29.125 101.006 29.125 100.999C29.125 100.992 29.125 100.985 29.125 100.978C29.125 100.971 29.125 100.965 29.125 100.958C29.125 100.951 29.125 100.944 29.125 100.937C29.125 100.93 29.125 100.923 29.125 100.916C29.125 100.909 29.125 100.903 29.125 100.896C29.125 100.889 29.125 100.882 29.125 100.875C29.125 100.868 29.125 100.861 29.125 100.854C29.125 100.847 29.125 100.841 29.125 100.834C29.125 100.827 29.125 100.82 29.125 100.813C29.125 100.806 29.125 100.799 29.125 100.792C29.125 100.785 29.125 100.778 29.125 100.771C29.125 100.765 29.125 100.758 29.125 100.751C29.125 100.744 29.125 100.737 29.125 100.73C29.125 100.723 29.125 100.716 29.125 100.709C29.125 100.702 29.125 100.695 29.125 100.688C29.125 100.681 29.125 100.674 29.125 100.668C29.125 100.661 29.125 100.654 29.125 100.647C29.125 100.64 29.125 100.633 29.125 100.626C29.125 100.619 29.125 100.612 29.125 100.605C29.125 100.598 29.125 100.591 29.125 100.584C29.125 100.577 29.125 100.57 29.125 100.563C29.125 100.556 29.125 100.549 29.125 100.542C29.125 100.535 29.125 100.528 29.125 100.521C29.125 100.514 29.125 100.507 29.125 100.5C29.125 100.493 29.125 100.486 29.125 100.479C29.125 100.472 29.125 100.465 29.125 100.458C29.125 100.451 29.125 100.444 29.125 100.438C29.125 100.431 29.125 100.424 29.125 100.416C29.125 100.409 29.125 100.402 29.125 100.395C29.125 100.388 29.125 100.381 29.125 100.374C29.125 100.367 29.125 100.36 29.125 100.353C29.125 100.346 29.125 100.339 29.125 100.332C29.125 100.325 29.125 100.318 29.125 100.311C29.125 100.304 29.125 100.297 29.125 100.29C29.125 100.283 29.125 100.276 29.125 100.269C29.125 100.262 29.125 100.255 29.125 100.248C29.125 100.241 29.125 100.234 29.125 100.227C29.125 100.22 29.125 100.213 29.125 100.206C29.125 100.199 29.125 100.192 29.125 100.184C29.125 100.177 29.125 100.17 29.125 100.163C29.125 100.156 29.125 100.149 29.125 100.142C29.125 100.135 29.125 100.128 29.125 100.121C29.125 100.114 29.125 100.107 29.125 100.1C29.125 100.093 29.125 100.085 29.125 100.078C29.125 100.071 29.125 100.064 29.125 100.057C29.125 100.05 29.125 100.043 29.125 100.036C29.125 100.029 29.125 100.022 29.125 100.015C29.125 100.007 29.125 100 29.125 99.9932C29.125 99.9861 29.125 99.979 29.125 99.9719C29.125 99.9648 29.125 99.9577 29.125 99.9506C29.125 99.9434 29.125 99.9363 29.125 99.9292C29.125 99.9221 29.125 99.915 29.125 99.9078C29.125 99.9007 29.125 99.8936 29.125 99.8864C29.125 99.8793 29.125 99.8722 29.125 99.865C29.125 99.8579 29.125 99.8508 29.125 99.8436C29.125 99.8365 29.125 99.8293 29.125 99.8222C29.125 99.8151 29.125 99.8079 29.125 99.8008C29.125 99.7936 29.125 99.7864 29.125 99.7793C29.125 99.7721 29.125 99.765 29.125 99.7578C29.125 99.7507 29.125 99.7435 29.125 99.7363C29.125 99.7292 29.125 99.722 29.125 99.7148C29.125 99.7076 29.125 99.7005 29.125 99.6933C29.125 99.6861 29.125 99.6789 29.125 99.6718C29.125 99.6646 29.125 99.6574 29.125 99.6502C29.125 99.643 29.125 99.6358 29.125 99.6286C29.125 99.6214 29.125 99.6142 29.125 99.607C29.125 99.5999 29.125 99.5927 29.125 99.5854C29.125 99.5782 29.125 99.571 29.125 99.5638C29.125 99.5566 29.125 99.5494 29.125 99.5422C29.125 99.535 29.125 99.5278 29.125 99.5206C29.125 99.5133 29.125 99.5061 29.125 99.4989C29.125 99.4917 29.125 99.4845 29.125 99.4772C29.125 99.47 29.125 99.4628 29.125 99.4555C29.125 99.4483 29.125 99.4411 29.125 99.4338C29.125 99.4266 29.125 99.4194 29.125 99.4121C29.125 99.4049 29.125 99.3976 29.125 99.3904C29.125 99.3831 29.125 99.3759 29.125 99.3686C29.125 99.3614 29.125 99.3541 29.125 99.3469C29.125 99.3396 29.125 99.3323 29.125 99.3251C29.125 99.3178 29.125 99.3105 29.125 99.3033C29.125 99.296 29.125 99.2887 29.125 99.2815C29.125 99.2742 29.125 99.2669 29.125 99.2596C29.125 99.2524 29.125 99.2451 29.125 99.2378C29.125 99.2305 29.125 99.2232 29.125 99.2159C29.125 99.2086 29.125 99.2014 29.125 99.1941C29.125 99.1868 29.125 99.1795 29.125 99.1722C29.125 99.1649 29.125 99.1576 29.125 99.1503C29.125 99.143 29.125 99.1357 29.125 99.1283C29.125 99.121 29.125 99.1137 29.125 99.1064C29.125 99.0991 29.125 99.0918 29.125 99.0845C29.125 99.0771 29.125 99.0698 29.125 99.0625C29.125 99.0552 29.125 99.0478 29.125 99.0405C29.125 99.0332 29.125 99.0259 29.125 99.0185C29.125 99.0112 29.125 99.0039 29.125 98.9965C29.125 98.9892 29.125 98.9818 29.125 98.9745C29.125 98.9671 29.125 98.9598 29.125 98.9524C29.125 98.9451 29.125 98.9377 29.125 98.9304C29.125 98.923 29.125 98.9157 29.125 98.9083C29.125 98.901 29.125 98.8936 29.125 98.8862C29.125 98.8789 29.125 98.8715 29.125 98.8641C29.125 98.8568 29.125 98.8494 29.125 98.842C29.125 98.8346 29.125 98.8273 29.125 98.8199C29.125 98.8125 29.125 98.8051 29.125 98.7977C29.125 98.7903 29.125 98.783 29.125 98.7756C29.125 98.7682 29.125 98.7608 29.125 98.7534C29.125 98.746 29.125 98.7386 29.125 98.7312C29.125 98.7238 29.125 98.7164 29.125 98.709C29.125 98.7016 29.125 98.6942 29.125 98.6868C29.125 98.6793 29.125 98.6719 29.125 98.6645C29.125 98.6571 29.125 98.6497 29.125 98.6423C29.125 98.6348 29.125 98.6274 29.125 98.62C29.125 98.6126 29.125 98.6051 29.125 98.5977C29.125 98.5903 29.125 98.5828 29.125 98.5754C29.125 98.568 29.125 98.5605 29.125 98.5531C29.125 98.5457 29.125 98.5382 29.125 98.5308C29.125 98.5233 29.125 98.5159 29.125 98.5084C29.125 98.501 29.125 98.4935 29.125 98.4861C29.125 98.4786 29.125 98.4711 29.125 98.4637C29.125 98.4562 29.125 98.4488 29.125 98.4413C29.125 98.4338 29.125 98.4263 29.125 98.4189C29.125 98.4114 29.125 98.4039 29.125 98.3965C29.125 98.389 29.125 98.3815 29.125 98.374C29.125 98.3665 29.125 98.359 29.125 98.3516C29.125 98.3441 29.125 98.3366 29.125 98.3291C29.125 98.3216 29.125 98.3141 29.125 98.3066C29.125 98.2991 29.125 98.2916 29.125 98.2841C29.125 98.2766 29.125 98.2691 29.125 98.2616C29.125 98.2541 29.125 98.2466 29.125 98.2391C29.125 98.2316 29.125 98.224 29.125 98.2165C29.125 98.209 29.125 98.2015 29.125 98.194C29.125 98.1864 29.125 98.1789 29.125 98.1714C29.125 98.1639 29.125 98.1563 29.125 98.1488C29.125 98.1413 29.125 98.1337 29.125 98.1262C29.125 98.1187 29.125 98.1111 29.125 98.1036C29.125 98.096 29.125 98.0885 29.125 98.0809C29.125 98.0734 29.125 98.0658 29.125 98.0583C29.125 98.0507 29.125 98.0432 29.125 98.0356C29.125 98.0281 29.125 98.0205 29.125 98.0129C29.125 98.0054 29.125 97.9978 29.125 97.9902C29.125 97.9827 29.125 97.9751 29.125 97.9675C29.125 97.9599 29.125 97.9524 29.125 97.9448C29.125 97.9372 29.125 97.9296 29.125 97.9221C29.125 97.9145 29.125 97.9069 29.125 97.8993C29.125 97.8917 29.125 97.8841 29.125 97.8765C29.125 97.8689 29.125 97.8613 29.125 97.8537C29.125 97.8461 29.125 97.8385 29.125 97.8309C29.125 97.8233 29.125 97.8157 29.125 97.8081C29.125 97.8005 29.125 97.7929 29.125 97.7853C29.125 97.7777 29.125 97.77 29.125 97.7624C29.125 97.7548 29.125 97.7472 29.125 97.7396C29.125 97.7319 29.125 97.7243 29.125 97.7167C29.125 97.709 29.125 97.7014 29.125 97.6938C29.125 97.6861 29.125 97.6785 29.125 97.6709C29.125 97.6632 29.125 97.6556 29.125 97.6479C29.125 97.6403 29.125 97.6326 29.125 97.625H27.125C27.125 97.6326 27.125 97.6403 27.125 97.6479C27.125 97.6556 27.125 97.6632 27.125 97.6709C27.125 97.6785 27.125 97.6861 27.125 97.6938C27.125 97.7014 27.125 97.709 27.125 97.7167C27.125 97.7243 27.125 97.7319 27.125 97.7396C27.125 97.7472 27.125 97.7548 27.125 97.7624C27.125 97.77 27.125 97.7777 27.125 97.7853C27.125 97.7929 27.125 97.8005 27.125 97.8081C27.125 97.8157 27.125 97.8233 27.125 97.8309C27.125 97.8385 27.125 97.8461 27.125 97.8537C27.125 97.8613 27.125 97.8689 27.125 97.8765C27.125 97.8841 27.125 97.8917 27.125 97.8993C27.125 97.9069 27.125 97.9145 27.125 97.9221C27.125 97.9296 27.125 97.9372 27.125 97.9448C27.125 97.9524 27.125 97.9599 27.125 97.9675C27.125 97.9751 27.125 97.9827 27.125 97.9902C27.125 97.9978 27.125 98.0054 27.125 98.0129C27.125 98.0205 27.125 98.0281 27.125 98.0356C27.125 98.0432 27.125 98.0507 27.125 98.0583C27.125 98.0658 27.125 98.0734 27.125 98.0809C27.125 98.0885 27.125 98.096 27.125 98.1036C27.125 98.1111 27.125 98.1187 27.125 98.1262C27.125 98.1337 27.125 98.1413 27.125 98.1488C27.125 98.1563 27.125 98.1639 27.125 98.1714C27.125 98.1789 27.125 98.1864 27.125 98.194C27.125 98.2015 27.125 98.209 27.125 98.2165C27.125 98.224 27.125 98.2316 27.125 98.2391C27.125 98.2466 27.125 98.2541 27.125 98.2616C27.125 98.2691 27.125 98.2766 27.125 98.2841C27.125 98.2916 27.125 98.2991 27.125 98.3066C27.125 98.3141 27.125 98.3216 27.125 98.3291C27.125 98.3366 27.125 98.3441 27.125 98.3516C27.125 98.359 27.125 98.3665 27.125 98.374C27.125 98.3815 27.125 98.389 27.125 98.3965C27.125 98.4039 27.125 98.4114 27.125 98.4189C27.125 98.4263 27.125 98.4338 27.125 98.4413C27.125 98.4488 27.125 98.4562 27.125 98.4637C27.125 98.4711 27.125 98.4786 27.125 98.4861C27.125 98.4935 27.125 98.501 27.125 98.5084C27.125 98.5159 27.125 98.5233 27.125 98.5308C27.125 98.5382 27.125 98.5457 27.125 98.5531C27.125 98.5605 27.125 98.568 27.125 98.5754C27.125 98.5828 27.125 98.5903 27.125 98.5977C27.125 98.6051 27.125 98.6126 27.125 98.62C27.125 98.6274 27.125 98.6348 27.125 98.6423C27.125 98.6497 27.125 98.6571 27.125 98.6645C27.125 98.6719 27.125 98.6793 27.125 98.6868C27.125 98.6942 27.125 98.7016 27.125 98.709C27.125 98.7164 27.125 98.7238 27.125 98.7312C27.125 98.7386 27.125 98.746 27.125 98.7534C27.125 98.7608 27.125 98.7682 27.125 98.7756C27.125 98.783 27.125 98.7903 27.125 98.7977C27.125 98.8051 27.125 98.8125 27.125 98.8199C27.125 98.8273 27.125 98.8346 27.125 98.842C27.125 98.8494 27.125 98.8568 27.125 98.8641C27.125 98.8715 27.125 98.8789 27.125 98.8862C27.125 98.8936 27.125 98.901 27.125 98.9083C27.125 98.9157 27.125 98.923 27.125 98.9304C27.125 98.9377 27.125 98.9451 27.125 98.9524C27.125 98.9598 27.125 98.9671 27.125 98.9745C27.125 98.9818 27.125 98.9892 27.125 98.9965C27.125 99.0039 27.125 99.0112 27.125 99.0185C27.125 99.0259 27.125 99.0332 27.125 99.0405C27.125 99.0478 27.125 99.0552 27.125 99.0625C27.125 99.0698 27.125 99.0771 27.125 99.0845C27.125 99.0918 27.125 99.0991 27.125 99.1064C27.125 99.1137 27.125 99.121 27.125 99.1283C27.125 99.1357 27.125 99.143 27.125 99.1503C27.125 99.1576 27.125 99.1649 27.125 99.1722C27.125 99.1795 27.125 99.1868 27.125 99.1941C27.125 99.2014 27.125 99.2086 27.125 99.2159C27.125 99.2232 27.125 99.2305 27.125 99.2378C27.125 99.2451 27.125 99.2524 27.125 99.2596C27.125 99.2669 27.125 99.2742 27.125 99.2815C27.125 99.2887 27.125 99.296 27.125 99.3033C27.125 99.3105 27.125 99.3178 27.125 99.3251C27.125 99.3323 27.125 99.3396 27.125 99.3469C27.125 99.3541 27.125 99.3614 27.125 99.3686C27.125 99.3759 27.125 99.3831 27.125 99.3904C27.125 99.3976 27.125 99.4049 27.125 99.4121C27.125 99.4194 27.125 99.4266 27.125 99.4338C27.125 99.4411 27.125 99.4483 27.125 99.4555C27.125 99.4628 27.125 99.47 27.125 99.4772C27.125 99.4845 27.125 99.4917 27.125 99.4989C27.125 99.5061 27.125 99.5133 27.125 99.5206C27.125 99.5278 27.125 99.535 27.125 99.5422C27.125 99.5494 27.125 99.5566 27.125 99.5638C27.125 99.571 27.125 99.5782 27.125 99.5854C27.125 99.5927 27.125 99.5999 27.125 99.607C27.125 99.6142 27.125 99.6214 27.125 99.6286C27.125 99.6358 27.125 99.643 27.125 99.6502C27.125 99.6574 27.125 99.6646 27.125 99.6718C27.125 99.6789 27.125 99.6861 27.125 99.6933C27.125 99.7005 27.125 99.7076 27.125 99.7148C27.125 99.722 27.125 99.7292 27.125 99.7363C27.125 99.7435 27.125 99.7507 27.125 99.7578C27.125 99.765 27.125 99.7721 27.125 99.7793C27.125 99.7864 27.125 99.7936 27.125 99.8008C27.125 99.8079 27.125 99.8151 27.125 99.8222C27.125 99.8293 27.125 99.8365 27.125 99.8436C27.125 99.8508 27.125 99.8579 27.125 99.865C27.125 99.8722 27.125 99.8793 27.125 99.8864C27.125 99.8936 27.125 99.9007 27.125 99.9078C27.125 99.915 27.125 99.9221 27.125 99.9292C27.125 99.9363 27.125 99.9434 27.125 99.9506C27.125 99.9577 27.125 99.9648 27.125 99.9719C27.125 99.979 27.125 99.9861 27.125 99.9932C27.125 100 27.125 100.007 27.125 100.015C27.125 100.022 27.125 100.029 27.125 100.036C27.125 100.043 27.125 100.05 27.125 100.057C27.125 100.064 27.125 100.071 27.125 100.078C27.125 100.085 27.125 100.093 27.125 100.1C27.125 100.107 27.125 100.114 27.125 100.121C27.125 100.128 27.125 100.135 27.125 100.142C27.125 100.149 27.125 100.156 27.125 100.163C27.125 100.17 27.125 100.177 27.125 100.184C27.125 100.192 27.125 100.199 27.125 100.206C27.125 100.213 27.125 100.22 27.125 100.227C27.125 100.234 27.125 100.241 27.125 100.248C27.125 100.255 27.125 100.262 27.125 100.269C27.125 100.276 27.125 100.283 27.125 100.29C27.125 100.297 27.125 100.304 27.125 100.311C27.125 100.318 27.125 100.325 27.125 100.332C27.125 100.339 27.125 100.346 27.125 100.353C27.125 100.36 27.125 100.367 27.125 100.374C27.125 100.381 27.125 100.388 27.125 100.395C27.125 100.402 27.125 100.409 27.125 100.416C27.125 100.424 27.125 100.431 27.125 100.438C27.125 100.444 27.125 100.451 27.125 100.458C27.125 100.465 27.125 100.472 27.125 100.479C27.125 100.486 27.125 100.493 27.125 100.5C27.125 100.507 27.125 100.514 27.125 100.521C27.125 100.528 27.125 100.535 27.125 100.542C27.125 100.549 27.125 100.556 27.125 100.563C27.125 100.57 27.125 100.577 27.125 100.584C27.125 100.591 27.125 100.598 27.125 100.605C27.125 100.612 27.125 100.619 27.125 100.626C27.125 100.633 27.125 100.64 27.125 100.647C27.125 100.654 27.125 100.661 27.125 100.668C27.125 100.674 27.125 100.681 27.125 100.688C27.125 100.695 27.125 100.702 27.125 100.709C27.125 100.716 27.125 100.723 27.125 100.73C27.125 100.737 27.125 100.744 27.125 100.751C27.125 100.758 27.125 100.765 27.125 100.771C27.125 100.778 27.125 100.785 27.125 100.792C27.125 100.799 27.125 100.806 27.125 100.813C27.125 100.82 27.125 100.827 27.125 100.834C27.125 100.841 27.125 100.847 27.125 100.854C27.125 100.861 27.125 100.868 27.125 100.875C27.125 100.882 27.125 100.889 27.125 100.896C27.125 100.903 27.125 100.909 27.125 100.916C27.125 100.923 27.125 100.93 27.125 100.937C27.125 100.944 27.125 100.951 27.125 100.958C27.125 100.965 27.125 100.971 27.125 100.978C27.125 100.985 27.125 100.992 27.125 100.999C27.125 101.006 27.125 101.013 27.125 101.019C27.125 101.026 27.125 101.033 27.125 101.04C27.125 101.047 27.125 101.054 27.125 101.061C27.125 101.067 27.125 101.074 27.125 101.081C27.125 101.088 27.125 101.095 27.125 101.102C27.125 101.108 27.125 101.115 27.125 101.122C27.125 101.129 27.125 101.136 27.125 101.143C27.125 101.149 27.125 101.156 27.125 101.163C27.125 101.17 27.125 101.177 27.125 101.183C27.125 101.19 27.125 101.197 27.125 101.204C27.125 101.211 27.125 101.218 27.125 101.224C27.125 101.231 27.125 101.238 27.125 101.245C27.125 101.252 27.125 101.258 27.125 101.265C27.125 101.272 27.125 101.279 27.125 101.286C27.125 101.292 27.125 101.299 27.125 101.306C27.125 101.313 27.125 101.319 27.125 101.326C27.125 101.333 27.125 101.34 27.125 101.347C27.125 101.353 27.125 101.36 27.125 101.367C27.125 101.374 27.125 101.38 27.125 101.387C27.125 101.394 27.125 101.401 27.125 101.407C27.125 101.414 27.125 101.421 27.125 101.428C27.125 101.434 27.125 101.441 27.125 101.448C27.125 101.455 27.125 101.461 27.125 101.468C27.125 101.475 27.125 101.482 27.125 101.488C27.125 101.495 27.125 101.502 27.125 101.509C27.125 101.515 27.125 101.522 27.125 101.529C27.125 101.536 27.125 101.542 27.125 101.549C27.125 101.556 27.125 101.562 27.125 101.569C27.125 101.576 27.125 101.583 27.125 101.589C27.125 101.596 27.125 101.603 27.125 101.609C27.125 101.616 27.125 101.623 27.125 101.63C27.125 101.636 27.125 101.643 27.125 101.65C27.125 101.656 27.125 101.663 27.125 101.67C27.125 101.676 27.125 101.683 27.125 101.69C27.125 101.697 27.125 101.703 27.125 101.71C27.125 101.717 27.125 101.723 27.125 101.73C27.125 101.737 27.125 101.743 27.125 101.75C27.125 101.757 27.125 101.763 27.125 101.77C27.125 101.777 27.125 101.783 27.125 101.79C27.125 101.797 27.125 101.803 27.125 101.81C27.125 101.817 27.125 101.823 27.125 101.83C27.125 101.837 27.125 101.843 27.125 101.85C27.125 101.857 27.125 101.863 27.125 101.87C27.125 101.876 27.125 101.883 27.125 101.89C27.125 101.896 27.125 101.903 27.125 101.91C27.125 101.916 27.125 101.923 27.125 101.93C27.125 101.936 27.125 101.943 27.125 101.949C27.125 101.956 27.125 101.963 27.125 101.969C27.125 101.976 27.125 101.983 27.125 101.989C27.125 101.996 27.125 102.002 27.125 102.009C27.125 102.016 27.125 102.022 27.125 102.029C27.125 102.035 27.125 102.042 27.125 102.049C27.125 102.055 27.125 102.062 27.125 102.068C27.125 102.075 27.125 102.082 27.125 102.088C27.125 102.095 27.125 102.101 27.125 102.108C27.125 102.114 27.125 102.121 27.125 102.128C27.125 102.134 27.125 102.141 27.125 102.147C27.125 102.154 27.125 102.16 27.125 102.167C27.125 102.174 27.125 102.18 27.125 102.187C27.125 102.193 27.125 102.2 27.125 102.206C27.125 102.213 27.125 102.22 27.125 102.226C27.125 102.233 27.125 102.239 27.125 102.246C27.125 102.252 27.125 102.259 27.125 102.265C27.125 102.272 27.125 102.278 27.125 102.285C27.125 102.292 27.125 102.298 27.125 102.305C27.125 102.311 27.125 102.318 27.125 102.324C27.125 102.331 27.125 102.337 27.125 102.344C27.125 102.35 27.125 102.357 27.125 102.363C27.125 102.37 27.125 102.376 27.125 102.383C27.125 102.389 27.125 102.396 27.125 102.402C27.125 102.409 27.125 102.415 27.125 102.422C27.125 102.428 27.125 102.435 27.125 102.441C27.125 102.448 27.125 102.454 27.125 102.461C27.125 102.467 27.125 102.474 27.125 102.48C27.125 102.487 27.125 102.493 27.125 102.5C27.125 102.506 27.125 102.513 27.125 102.519C27.125 102.526 27.125 102.532 27.125 102.539C27.125 102.545 27.125 102.552 27.125 102.558C27.125 102.564 27.125 102.571 27.125 102.577C27.125 102.584 27.125 102.59 27.125 102.597C27.125 102.603 27.125 102.61 27.125 102.616C27.125 102.623 27.125 102.629 27.125 102.635C27.125 102.642 27.125 102.648 27.125 102.655C27.125 102.661 27.125 102.668 27.125 102.674C27.125 102.68 27.125 102.687 27.125 102.693C27.125 102.7 27.125 102.706 27.125 102.713C27.125 102.719 27.125 102.725 27.125 102.732C27.125 102.738 27.125 102.745 27.125 102.751C27.125 102.758 27.125 102.764 27.125 102.77C27.125 102.777 27.125 102.783 27.125 102.79C27.125 102.796 27.125 102.802 27.125 102.809C27.125 102.815 27.125 102.822 27.125 102.828C27.125 102.834 27.125 102.841 27.125 102.847C27.125 102.854 27.125 102.86 27.125 102.866C27.125 102.873 27.125 102.879 27.125 102.885C27.125 102.892 27.125 102.898 27.125 102.905C27.125 102.911 27.125 102.917 27.125 102.924C27.125 102.93 27.125 102.936 27.125 102.943C27.125 102.949 27.125 102.956 27.125 102.962C27.125 102.968 27.125 102.975 27.125 102.981C27.125 102.987 27.125 102.994 27.125 103C27.125 103.006 27.125 103.013 27.125 103.019C27.125 103.025 27.125 103.032 27.125 103.038C27.125 103.044 27.125 103.051 27.125 103.057C27.125 103.063 27.125 103.07 27.125 103.076C27.125 103.082 27.125 103.089 27.125 103.095C27.125 103.101 27.125 103.108 27.125 103.114C27.125 103.12 27.125 103.127 27.125 103.133C27.125 103.139 27.125 103.146 27.125 103.152C27.125 103.158 27.125 103.164 27.125 103.171C27.125 103.177 27.125 103.183 27.125 103.19C27.125 103.196 27.125 103.202 27.125 103.209C27.125 103.215 27.125 103.221 27.125 103.227C27.125 103.234 27.125 103.24 27.125 103.246C27.125 103.253 27.125 103.259 27.125 103.265C27.125 103.271 27.125 103.278 27.125 103.284C27.125 103.29 27.125 103.296 27.125 103.303C27.125 103.309 27.125 103.315 27.125 103.322C27.125 103.328 27.125 103.334 27.125 103.34C27.125 103.347 27.125 103.353 27.125 103.359C27.125 103.365 27.125 103.372 27.125 103.378C27.125 103.384 27.125 103.39 27.125 103.397C27.125 103.403 27.125 103.409 27.125 103.415C27.125 103.421 27.125 103.428 27.125 103.434C27.125 103.44 27.125 103.446 27.125 103.453C27.125 103.459 27.125 103.465 27.125 103.471C27.125 103.478 27.125 103.484 27.125 103.49C27.125 103.496 27.125 103.502 27.125 103.509C27.125 103.515 27.125 103.521 27.125 103.527C27.125 103.533 27.125 103.54 27.125 103.546C27.125 103.552 27.125 103.558 27.125 103.564C27.125 103.571 27.125 103.577 27.125 103.583C27.125 103.589 27.125 103.595 27.125 103.602C27.125 103.608 27.125 103.614 27.125 103.62C27.125 103.626 27.125 103.632 27.125 103.639C27.125 103.645 27.125 103.651 27.125 103.657C27.125 103.663 27.125 103.669 27.125 103.676C27.125 103.682 27.125 103.688 27.125 103.694C27.125 103.7 27.125 103.706 27.125 103.713C27.125 103.719 27.125 103.725 27.125 103.731C27.125 103.737 27.125 103.743 27.125 103.75C27.125 103.756 27.125 103.762 27.125 103.768C27.125 103.774 27.125 103.78 27.125 103.786C27.125 103.792 27.125 103.799 27.125 103.805C27.125 103.811 27.125 103.817 27.125 103.823C27.125 103.829 27.125 103.835 27.125 103.841C27.125 103.848 27.125 103.854 27.125 103.86C27.125 103.866 27.125 103.872 27.125 103.878C27.125 103.884 27.125 103.89 27.125 103.896C27.125 103.903 27.125 103.909 27.125 103.915C27.125 103.921 27.125 103.927 27.125 103.933C27.125 103.939 27.125 103.945 27.125 103.951C27.125 103.957 27.125 103.964 27.125 103.97C27.125 103.976 27.125 103.982 27.125 103.988C27.125 103.994 27.125 104 27.125 104.006C27.125 104.012 27.125 104.018 27.125 104.024C27.125 104.03 27.125 104.036 27.125 104.042C27.125 104.049 27.125 104.055 27.125 104.061C27.125 104.067 27.125 104.073 27.125 104.079C27.125 104.085 27.125 104.091 27.125 104.097C27.125 104.103 27.125 104.109 27.125 104.115C27.125 104.121 27.125 104.127 27.125 104.133C27.125 104.139 27.125 104.145 27.125 104.151C27.125 104.157 27.125 104.163 27.125 104.169C27.125 104.175 27.125 104.181 27.125 104.188C27.125 104.194 27.125 104.2 27.125 104.206C27.125 104.212 27.125 104.218 27.125 104.224C27.125 104.23 27.125 104.236 27.125 104.242C27.125 104.248 27.125 104.254 27.125 104.26C27.125 104.266 27.125 104.272 27.125 104.278C27.125 104.284 27.125 104.29 27.125 104.296C27.125 104.302 27.125 104.308 27.125 104.314C27.125 104.32 27.125 104.326 27.125 104.332C27.125 104.338 27.125 104.344 27.125 104.349C27.125 104.355 27.125 104.361 27.125 104.367C27.125 104.373 27.125 104.379 27.125 104.385C27.125 104.391 27.125 104.397 27.125 104.403C27.125 104.409 27.125 104.415 27.125 104.421C27.125 104.427 27.125 104.433 27.125 104.439C27.125 104.445 27.125 104.451 27.125 104.457C27.125 104.463 27.125 104.469 27.125 104.475C27.125 104.481 27.125 104.486 27.125 104.492C27.125 104.498 27.125 104.504 27.125 104.51C27.125 104.516 27.125 104.522 27.125 104.528C27.125 104.534 27.125 104.54 27.125 104.546C27.125 104.552 27.125 104.558 27.125 104.564C27.125 104.569 27.125 104.575 27.125 104.581C27.125 104.587 27.125 104.593 27.125 104.599C27.125 104.605 27.125 104.611 27.125 104.617C27.125 104.623 27.125 104.628 27.125 104.634C27.125 104.64 27.125 104.646 27.125 104.652C27.125 104.658 27.125 104.664 27.125 104.67C27.125 104.676 27.125 104.681 27.125 104.687C27.125 104.693 27.125 104.699 27.125 104.705C27.125 104.711 27.125 104.717 27.125 104.723C27.125 104.728 27.125 104.734 27.125 104.74C27.125 104.746 27.125 104.752 27.125 104.758C27.125 104.764 27.125 104.77 27.125 104.775C27.125 104.781 27.125 104.787 27.125 104.793C27.125 104.799 27.125 104.805 27.125 104.81C27.125 104.816 27.125 104.822 27.125 104.828C27.125 104.834 27.125 104.84 27.125 104.846C27.125 104.851 27.125 104.857 27.125 104.863C27.125 104.869 27.125 104.875 27.125 104.88C27.125 104.886 27.125 104.892 27.125 104.898C27.125 104.904 27.125 104.91 27.125 104.915C27.125 104.921 27.125 104.927 27.125 104.933C27.125 104.939 27.125 104.944 27.125 104.95C27.125 104.956 27.125 104.962 27.125 104.968C27.125 104.973 27.125 104.979 27.125 104.985C27.125 104.991 27.125 104.997 27.125 105.002C27.125 105.008 27.125 105.014 27.125 105.02C27.125 105.026 27.125 105.031 27.125 105.037C27.125 105.043 27.125 105.049 27.125 105.054C27.125 105.06 27.125 105.066 27.125 105.072C27.125 105.078 27.125 105.083 27.125 105.089C27.125 105.095 27.125 105.101 27.125 105.106C27.125 105.112 27.125 105.118 27.125 105.124C27.125 105.129 27.125 105.135 27.125 105.141C27.125 105.147 27.125 105.152 27.125 105.158C27.125 105.164 27.125 105.17 27.125 105.175C27.125 105.181 27.125 105.187 27.125 105.192C27.125 105.198 27.125 105.204 27.125 105.21C27.125 105.215 27.125 105.221 27.125 105.227C27.125 105.233 27.125 105.238 27.125 105.244C27.125 105.25 27.125 105.255 27.125 105.261C27.125 105.267 27.125 105.273 27.125 105.278C27.125 105.284 27.125 105.29 27.125 105.295C27.125 105.301 27.125 105.307 27.125 105.312C27.125 105.318 27.125 105.324 27.125 105.33C27.125 105.335 27.125 105.341 27.125 105.347C27.125 105.352 27.125 105.358 27.125 105.364C27.125 105.369 27.125 105.375 27.125 105.381C27.125 105.386 27.125 105.392 27.125 105.398C27.125 105.403 27.125 105.409 27.125 105.415C27.125 105.42 27.125 105.426 27.125 105.432C27.125 105.437 27.125 105.443 27.125 105.449C27.125 105.454 27.125 105.46 27.125 105.466C27.125 105.471 27.125 105.477 27.125 105.483C27.125 105.488 27.125 105.494 27.125 105.5C27.125 105.505 27.125 105.511 27.125 105.516C27.125 105.522 27.125 105.528 27.125 105.533C27.125 105.539 27.125 105.545 27.125 105.55C27.125 105.556 27.125 105.562 27.125 105.567C27.125 105.573 27.125 105.578 27.125 105.584C27.125 105.59 27.125 105.595 27.125 105.601C27.125 105.606 27.125 105.612 27.125 105.618C27.125 105.623 27.125 105.629 27.125 105.634C27.125 105.64 27.125 105.646 27.125 105.651C27.125 105.657 27.125 105.662 27.125 105.668C27.125 105.674 27.125 105.679 27.125 105.685C27.125 105.69 27.125 105.696 27.125 105.702C27.125 105.707 27.125 105.713 27.125 105.718C27.125 105.724 27.125 105.729 27.125 105.735C27.125 105.741 27.125 105.746 27.125 105.752C27.125 105.757 27.125 105.763 27.125 105.768C27.125 105.774 27.125 105.779 27.125 105.785C27.125 105.791 27.125 105.796 27.125 105.802C27.125 105.807 27.125 105.813 27.125 105.818C27.125 105.824 27.125 105.829 27.125 105.835C27.125 105.84 27.125 105.846 27.125 105.852C27.125 105.857 27.125 105.863 27.125 105.868C27.125 105.874 27.125 105.879 27.125 105.885C27.125 105.89 27.125 105.896 27.125 105.901C27.125 105.907 27.125 105.912 27.125 105.918C27.125 105.923 27.125 105.929 27.125 105.934C27.125 105.94 27.125 105.945 27.125 105.951C27.125 105.956 27.125 105.962 27.125 105.967C27.125 105.973 27.125 105.978 27.125 105.984C27.125 105.989 27.125 105.995 27.125 106C27.125 106.006 27.125 106.011 27.125 106.017C27.125 106.022 27.125 106.028 27.125 106.033C27.125 106.039 27.125 106.044 27.125 106.05C27.125 106.055 27.125 106.061 27.125 106.066C27.125 106.072 27.125 106.077 27.125 106.082C27.125 106.088 27.125 106.093 27.125 106.099C27.125 106.104 27.125 106.11 27.125 106.115C27.125 106.121 27.125 106.126 27.125 106.132C27.125 106.137 27.125 106.142 27.125 106.148C27.125 106.153 27.125 106.159 27.125 106.164C27.125 106.17 27.125 106.175 27.125 106.181C27.125 106.186 27.125 106.191 27.125 106.197C27.125 106.202 27.125 106.208 27.125 106.213C27.125 106.219 27.125 106.224 27.125 106.229C27.125 106.235 27.125 106.24 27.125 106.246C27.125 106.251 27.125 106.256 27.125 106.262C27.125 106.267 27.125 106.273 27.125 106.278C27.125 106.283 27.125 106.289 27.125 106.294C27.125 106.3 27.125 106.305 27.125 106.31C27.125 106.316 27.125 106.321 27.125 106.327C27.125 106.332 27.125 106.337 27.125 106.343C27.125 106.348 27.125 106.354 27.125 106.359C27.125 106.364 27.125 106.37 27.125 106.375C27.125 106.38 27.125 106.386 27.125 106.391C27.125 106.396 27.125 106.402 27.125 106.407C27.125 106.413 27.125 106.418 27.125 106.423C27.125 106.429 27.125 106.434 27.125 106.439C27.125 106.445 27.125 106.45 27.125 106.455C27.125 106.461 27.125 106.466 27.125 106.471C27.125 106.477 27.125 106.482 27.125 106.487C27.125 106.493 27.125 106.498 27.125 106.503C27.125 106.509 27.125 106.514 27.125 106.519C27.125 106.525 27.125 106.53 27.125 106.535C27.125 106.541 27.125 106.546 27.125 106.551C27.125 106.557 27.125 106.562 27.125 106.567C27.125 106.573 27.125 106.578 27.125 106.583C27.125 106.588 27.125 106.594 27.125 106.599C27.125 106.604 27.125 106.61 27.125 106.615C27.125 106.62 27.125 106.626 27.125 106.631C27.125 106.636 27.125 106.641 27.125 106.647C27.125 106.652 27.125 106.657 27.125 106.663C27.125 106.668 27.125 106.673 27.125 106.678C27.125 106.684 27.125 106.689 27.125 106.694C27.125 106.699 27.125 106.705 27.125 106.71C27.125 106.715 27.125 106.721 27.125 106.726C27.125 106.731 27.125 106.736 27.125 106.742C27.125 106.747 27.125 106.752 27.125 106.757C27.125 106.763 27.125 106.768 27.125 106.773C27.125 106.778 27.125 106.784 27.125 106.789C27.125 106.794 27.125 106.799 27.125 106.804C27.125 106.81 27.125 106.815 27.125 106.82C27.125 106.825 27.125 106.831 27.125 106.836C27.125 106.841 27.125 106.846 27.125 106.852C27.125 106.857 27.125 106.862 27.125 106.867C27.125 106.872 27.125 106.878 27.125 106.883C27.125 106.888 27.125 106.893 27.125 106.898C27.125 106.904 27.125 106.909 27.125 106.914C27.125 106.919 27.125 106.924 27.125 106.93C27.125 106.935 27.125 106.94 27.125 106.945C27.125 106.95 27.125 106.956 27.125 106.961C27.125 106.966 27.125 106.971 27.125 106.976C27.125 106.981 27.125 106.987 27.125 106.992C27.125 106.997 27.125 107.002 27.125 107.007C27.125 107.012 27.125 107.018 27.125 107.023C27.125 107.028 27.125 107.033 27.125 107.038C27.125 107.043 27.125 107.049 27.125 107.054C27.125 107.059 27.125 107.064 27.125 107.069C27.125 107.074 27.125 107.08 27.125 107.085C27.125 107.09 27.125 107.095 27.125 107.1C27.125 107.105 27.125 107.11 27.125 107.115C27.125 107.121 27.125 107.126 27.125 107.131C27.125 107.136 27.125 107.141 27.125 107.146C27.125 107.151 27.125 107.156 27.125 107.162C27.125 107.167 27.125 107.172 27.125 107.177C27.125 107.182 27.125 107.187 27.125 107.192C27.125 107.197 27.125 107.202 27.125 107.208C27.125 107.213 27.125 107.218 27.125 107.223C27.125 107.228 27.125 107.233 27.125 107.238C27.125 107.243 27.125 107.248 27.125 107.253C27.125 107.259 27.125 107.264 27.125 107.269C27.125 107.274 27.125 107.279 27.125 107.284C27.125 107.289 27.125 107.294 27.125 107.299C27.125 107.304 27.125 107.309 27.125 107.314C27.125 107.319 27.125 107.324 27.125 107.33C27.125 107.335 27.125 107.34 27.125 107.345C27.125 107.35 27.125 107.355 27.125 107.36C27.125 107.365 27.125 107.37 27.125 107.375H29.125ZM29.1248 97.6463C29.2081 93.728 29.2915 89.3516 29.3749 84.5172L27.3751 84.4828C27.2918 89.315 27.2085 93.6887 27.1252 97.6037L29.1248 97.6463ZM29.3744 84.5339C29.5413 79.6114 29.6664 74.6473 29.7499 69.6417L27.7501 69.6083C27.6669 74.6027 27.542 79.5553 27.3756 84.4661L29.3744 84.5339ZM29.7495 69.6578C29.9161 64.5751 30.0827 59.6592 30.2494 54.9101L28.2506 54.8399C28.0839 59.5908 27.9172 64.5082 27.7505 69.5922L29.7495 69.6578ZM30.2494 54.9095C30.4162 50.0731 30.5413 45.7773 30.6248 42.0222L28.6252 41.9778C28.542 45.7227 28.4172 50.0102 28.2506 54.8405L30.2494 54.9095ZM30.624 42.0444C30.7907 38.293 30.9159 35.2481 30.9994 32.9107L29.0006 32.8393C28.9175 35.1685 28.7926 38.207 28.626 41.9556L30.624 42.0444ZM30.9994 32.9095C31.041 31.7042 31.0822 30.7889 31.1229 30.1581C31.1434 29.8413 31.163 29.6076 31.181 29.4495C31.1902 29.3694 31.1975 29.3216 31.2019 29.2981C31.2128 29.2396 31.2038 29.3284 31.1444 29.4472L29.3556 28.5528C29.2753 28.7133 29.2456 28.8789 29.2356 28.9323C29.2192 29.0208 29.2057 29.1202 29.194 29.2224C29.1704 29.4288 29.1483 29.7004 29.1271 30.0294C29.0844 30.6903 29.0424 31.6292 29.0006 32.8405L30.9994 32.9095ZM31.2201 29.2425C31.2373 29.174 31.3153 28.9584 31.5057 28.5354C31.6852 28.1363 31.9389 27.6083 32.2694 26.9472L30.4806 26.0528C30.1444 26.7251 29.8773 27.2803 29.6818 27.7146C29.4972 28.1249 29.3461 28.4927 29.2799 28.7575L31.2201 29.2425ZM32.2694 26.9472C32.925 25.6361 33.664 24.2811 34.4869 22.882L32.7631 21.868C31.9194 23.3023 31.1584 24.6972 30.4806 26.0528L32.2694 26.9472ZM34.4783 22.8965C35.3742 21.4303 36.2615 20.1822 37.1384 19.1459L35.6116 17.8541C34.6551 18.9845 33.7091 20.3197 32.7717 21.8535L34.4783 22.8965ZM37.1613 19.1178C37.5872 18.5758 37.9419 18.235 38.2209 18.0441C38.5006 17.8527 38.6208 17.8666 38.626 17.8673L38.874 15.8827C38.2125 15.8 37.6036 16.0431 37.0916 16.3934C36.579 16.7442 36.0795 17.2575 35.5887 17.8822L37.1613 19.1178ZM38.4338 17.8237C38.2238 17.7537 38.0979 17.6299 38.0421 17.5657C37.9838 17.4987 37.9552 17.4433 37.9474 17.4277C37.9324 17.3978 37.941 17.4063 37.9623 17.4877C38.0028 17.6422 38.0511 17.9083 38.1015 18.3115C38.201 19.1077 38.2933 20.3075 38.3763 21.9262L40.3737 21.8238C40.29 20.1925 40.1948 18.934 40.086 18.0635C40.0323 17.6334 39.9712 17.264 39.8971 16.981C39.8611 16.8437 39.8111 16.6829 39.7362 16.5333C39.6931 16.447 39.5079 16.0735 39.0662 15.9263L38.4338 17.8237ZM38.3781 21.9537C38.6264 25.0993 38.8341 29.1659 39.0006 34.1583L40.9994 34.0917C40.8325 29.0841 40.6236 24.9841 40.3719 21.7963L38.3781 21.9537ZM39.0012 34.1749C39.2505 39.1606 39.4169 44.69 39.5001 50.7637L41.4999 50.7363C41.4164 44.6433 41.2495 39.0894 40.9988 34.0751L39.0012 34.1749ZM39.5004 50.7778C39.6669 56.7735 39.7918 62.6441 39.8751 68.3895L41.8749 68.3605C41.7915 62.6059 41.6664 56.7265 41.4996 50.7222L39.5004 50.7778ZM39.8754 68.4044C40.042 74.068 40.1669 79.2307 40.2502 83.8929L42.2498 83.8571C42.1664 79.1859 42.0413 74.0153 41.8746 68.3456L39.8754 68.4044ZM40.2502 83.8932C40.3335 88.4776 40.417 91.8611 40.5007 94.0384L42.4993 93.9616C42.4163 91.8056 42.3331 88.4391 42.2498 83.8568L40.2502 83.8932ZM41.4067 94.9956C44.0836 95.2466 46.7606 95.4557 49.4376 95.6231L49.5624 93.6269C46.9061 93.4609 44.2497 93.2534 41.5933 93.0044L41.4067 94.9956ZM49.4395 95.6232C52.1759 95.789 54.6157 95.9959 56.7604 96.2434L56.9896 94.2566C54.801 94.0041 52.3241 93.7943 49.5605 93.6268L49.4395 95.6232ZM56.7983 96.2471C58.9575 96.4131 60.6899 96.5784 62.001 96.7423L62.249 94.7577C60.8934 94.5883 59.1258 94.4202 56.9517 94.2529L56.7983 96.2471ZM62.0082 96.7432C62.7118 96.8259 63.2346 96.8966 63.5856 96.9551C63.7635 96.9848 63.879 97.0083 63.945 97.0248C63.9795 97.0335 63.9803 97.0352 63.9614 97.0281C63.9517 97.0245 63.9222 97.0131 63.8824 96.992C63.8511 96.9754 63.762 96.9262 63.6679 96.8321L65.0821 95.4179C64.9057 95.2414 64.701 95.1695 64.6636 95.1555C64.5822 95.1249 64.4997 95.102 64.43 95.0845C64.2877 95.049 64.1115 95.0152 63.9144 94.9824C63.5154 94.9159 62.9549 94.8407 62.2418 94.7568L62.0082 96.7432ZM63.575 96.725C63.6225 96.7884 63.7298 96.9744 63.8909 97.3568C64.0439 97.7201 64.2223 98.2042 64.4263 98.8162L66.3237 98.1838C66.111 97.5458 65.9145 97.009 65.7341 96.5807C65.5618 96.1715 65.3775 95.795 65.175 95.525L63.575 96.725ZM64.4559 98.8939C64.938 100.019 65.3834 101.273 65.7906 102.657L67.7094 102.093C67.2833 100.644 66.812 99.3145 66.2941 98.1061L64.4559 98.8939ZM65.7955 102.673C66.199 103.964 66.4772 105.162 66.6351 106.266L68.6149 105.984C68.4395 104.755 68.1343 103.452 67.7045 102.077L65.7955 102.673ZM66.6472 106.335C66.7643 106.881 66.7961 107.249 66.783 107.473C66.7677 107.732 66.7088 107.593 66.9 107.45L68.1 109.05C68.6245 108.657 68.7531 108.039 68.7795 107.59C68.808 107.105 68.7357 106.536 68.6028 105.915L66.6472 106.335ZM67.3204 107.266C57.7443 109.015 50.3547 110.177 45.1396 110.756L45.3604 112.744C50.6453 112.157 58.089 110.985 67.6796 109.234L67.3204 107.266ZM45.1396 110.756C39.8953 111.339 36.0664 111.625 33.625 111.625V113.625C36.1836 113.625 40.1047 113.328 45.3604 112.744L45.1396 110.756ZM33.625 111.625C32.1878 111.625 31.0743 111.563 30.2664 111.448C29.8626 111.39 29.5574 111.322 29.3373 111.251C29.2284 111.216 29.1498 111.183 29.0957 111.156C29.0406 111.129 29.0224 111.113 29.0258 111.116L27.7242 112.634C28.0132 112.882 28.3736 113.042 28.7252 113.155C29.0884 113.272 29.5124 113.36 29.9836 113.427C30.9257 113.562 32.1455 113.625 33.625 113.625V111.625Z" fill="black" mask="url(#path-2-outside-1_0_1)"/>
</g>
<g filter="url(#filter1_d_0_1)">
<mask id="path-4-outside-2_0_1" maskUnits="userSpaceOnUse" x="52" y="12" width="52" height="102" fill="black">
<rect fill="white" x="52" y="12" width="52" height="102"/>
<path d="M70.625 96C69.0417 90.5833 67.3333 84.2083 65.5 76.875C63.9167 70.625 62.0833 63 60 54C57.9167 45 55.7083 34.6667 53.375 23C53.375 22.1667 53.8333 21.2083 54.75 20.125C55.6667 18.9583 56.75 17.875 58 16.875C59.3333 15.875 60.7083 15 62.125 14.25C63.5417 13.5 64.75 13.125 65.75 13.125C66.3333 13.7917 67.125 16.625 68.125 21.625C68.5417 23.7917 69.0417 26.5 69.625 29.75C70.2917 33 71 37.0417 71.75 41.875C72.5 46.625 73.3333 52.2083 74.25 58.625C75.1667 65.0417 76.2083 72.5 77.375 81C78.2083 75.25 79.0417 69.8333 79.875 64.75C80.7083 59.5833 81.4583 55 82.125 51C82.9583 46.4167 83.7083 42.1667 84.375 38.25C84.7083 35.8333 85.0833 33.2917 85.5 30.625C86 27.875 86.5 25.375 87 23.125C87.5 20.875 88 19 88.5 17.5C89.0833 16 89.7083 15.25 90.375 15.25C90.9583 15.1667 91.9167 15.25 93.25 15.5C94.6667 15.75 96.0417 16.125 97.375 16.625C98.7083 17.0417 99.875 17.5417 100.875 18.125C101.958 18.7083 102.5 19.2917 102.5 19.875C102.5 20.2083 102.167 21.7917 101.5 24.625C100.917 27.4583 100.042 31.0833 98.875 35.5C97.7917 39.8333 96.5417 44.75 95.125 50.25C93.7917 55.75 92.3333 61.375 90.75 67.125C89.25 72.7917 87.75 78.3333 86.25 83.75C84.75 89.1667 83.375 94 82.125 98.25C80.875 102.417 79.7917 105.792 78.875 108.375C78.0417 110.958 77.4583 112.25 77.125 112.25C76.7917 112.25 75.9167 110.792 74.5 107.875C73.0833 104.875 71.7917 100.917 70.625 96Z"/>
</mask>
<path d="M70.625 96C69.0417 90.5833 67.3333 84.2083 65.5 76.875C63.9167 70.625 62.0833 63 60 54C57.9167 45 55.7083 34.6667 53.375 23C53.375 22.1667 53.8333 21.2083 54.75 20.125C55.6667 18.9583 56.75 17.875 58 16.875C59.3333 15.875 60.7083 15 62.125 14.25C63.5417 13.5 64.75 13.125 65.75 13.125C66.3333 13.7917 67.125 16.625 68.125 21.625C68.5417 23.7917 69.0417 26.5 69.625 29.75C70.2917 33 71 37.0417 71.75 41.875C72.5 46.625 73.3333 52.2083 74.25 58.625C75.1667 65.0417 76.2083 72.5 77.375 81C78.2083 75.25 79.0417 69.8333 79.875 64.75C80.7083 59.5833 81.4583 55 82.125 51C82.9583 46.4167 83.7083 42.1667 84.375 38.25C84.7083 35.8333 85.0833 33.2917 85.5 30.625C86 27.875 86.5 25.375 87 23.125C87.5 20.875 88 19 88.5 17.5C89.0833 16 89.7083 15.25 90.375 15.25C90.9583 15.1667 91.9167 15.25 93.25 15.5C94.6667 15.75 96.0417 16.125 97.375 16.625C98.7083 17.0417 99.875 17.5417 100.875 18.125C101.958 18.7083 102.5 19.2917 102.5 19.875C102.5 20.2083 102.167 21.7917 101.5 24.625C100.917 27.4583 100.042 31.0833 98.875 35.5C97.7917 39.8333 96.5417 44.75 95.125 50.25C93.7917 55.75 92.3333 61.375 90.75 67.125C89.25 72.7917 87.75 78.3333 86.25 83.75C84.75 89.1667 83.375 94 82.125 98.25C80.875 102.417 79.7917 105.792 78.875 108.375C78.0417 110.958 77.4583 112.25 77.125 112.25C76.7917 112.25 75.9167 110.792 74.5 107.875C73.0833 104.875 71.7917 100.917 70.625 96Z" fill="#F8E53C"/>
<path d="M70.625 96L71.598 95.7691L71.592 95.7441L71.5848 95.7194L70.625 96ZM65.5 76.875L66.4701 76.6325L66.4694 76.6294L65.5 76.875ZM60 54L59.0258 54.2255L60 54ZM53.375 23H52.375V23.099L52.3944 23.1961L53.375 23ZM54.75 20.125L55.5134 20.7709L55.5251 20.7571L55.5363 20.7428L54.75 20.125ZM58 16.875L57.4 16.075L57.3875 16.0844L57.3753 16.0941L58 16.875ZM65.75 13.125L66.5026 12.4665L66.2038 12.125H65.75V13.125ZM68.125 21.625L69.107 21.4361L69.1056 21.4289L68.125 21.625ZM69.625 29.75L68.6407 29.9267L68.6429 29.9388L68.6454 29.9509L69.625 29.75ZM71.75 41.875L70.7618 42.0283L70.7622 42.031L71.75 41.875ZM77.375 81L76.3843 81.136L78.3647 81.1434L77.375 81ZM79.875 64.75L80.8618 64.9118L80.8622 64.9092L79.875 64.75ZM82.125 51L81.1411 50.8211L81.1398 50.8283L81.1386 50.8356L82.125 51ZM84.375 38.25L85.3608 38.4178L85.3635 38.4023L85.3656 38.3866L84.375 38.25ZM85.5 30.625L84.5161 30.4461L84.5139 30.4583L84.512 30.4706L85.5 30.625ZM88.5 17.5L87.568 17.1376L87.5591 17.1605L87.5513 17.1838L88.5 17.5ZM90.375 15.25V16.25H90.4461L90.5164 16.2399L90.375 15.25ZM93.25 15.5L93.0657 16.4829L93.0762 16.4848L93.25 15.5ZM97.375 16.625L97.0239 17.5613L97.05 17.5711L97.0767 17.5795L97.375 16.625ZM100.875 18.125L100.371 18.9888L100.386 18.9974L100.401 19.0055L100.875 18.125ZM101.5 24.625L100.527 24.396L100.523 24.4096L100.521 24.4233L101.5 24.625ZM98.875 35.5L97.9081 35.2446L97.9049 35.2575L98.875 35.5ZM95.125 50.25L94.1566 50.0006L94.1548 50.0075L94.1531 50.0144L95.125 50.25ZM90.75 67.125L89.7858 66.8595L89.7833 66.8691L90.75 67.125ZM82.125 98.25L83.0828 98.5374L83.0844 98.5322L82.125 98.25ZM78.875 108.375L77.9326 108.041L77.9277 108.054L77.9233 108.068L78.875 108.375ZM74.5 107.875L73.5957 108.302L73.6005 108.312L74.5 107.875ZM71.5848 95.7194C70.0062 90.3188 68.3013 83.957 66.4701 76.6325L64.5299 77.1175C66.3654 84.4596 68.0772 90.8479 69.6652 96.2806L71.5848 95.7194ZM66.4694 76.6294C64.8883 70.3883 63.0566 62.7704 60.9742 53.7745L59.0258 54.2255C61.11 63.2296 62.9451 70.8617 64.5306 77.1206L66.4694 76.6294ZM60.9742 53.7745C58.8937 44.7866 56.6875 34.4633 54.3556 22.8039L52.3944 23.1961C54.7292 34.87 56.9396 45.2134 59.0258 54.2255L60.9742 53.7745ZM54.375 23C54.375 22.5204 54.6512 21.7899 55.5134 20.7709L53.9866 19.4791C53.0154 20.6268 52.375 21.813 52.375 23H54.375ZM55.5363 20.7428C56.402 19.6411 57.43 18.6117 58.6247 17.6559L57.3753 16.0941C56.07 17.1383 54.9314 18.2756 53.9637 19.5072L55.5363 20.7428ZM58.6 17.675C59.8932 16.7051 61.2242 15.8584 62.5929 15.1338L61.6571 13.3662C60.1925 14.1416 58.7735 15.0449 57.4 16.075L58.6 17.675ZM62.5929 15.1338C63.9432 14.4189 64.9829 14.125 65.75 14.125V12.125C64.5171 12.125 63.1401 12.5811 61.6571 13.3662L62.5929 15.1338ZM64.9974 13.7835C64.9957 13.7816 65.0048 13.7918 65.0234 13.8204C65.0415 13.8483 65.065 13.888 65.0934 13.942C65.1508 14.0511 65.2187 14.2005 65.2958 14.3969C65.4504 14.7904 65.6249 15.3275 65.8181 16.0191C66.2041 17.4005 66.6463 19.3307 67.1444 21.8211L69.1056 21.4289C68.6037 18.9193 68.1501 16.9329 67.7444 15.4809C67.5418 14.7559 67.3465 14.1471 67.1573 13.6656C66.9798 13.2137 66.7699 12.772 66.5026 12.4665L64.9974 13.7835ZM67.143 21.8138C67.5586 23.975 68.0578 26.679 68.6407 29.9267L70.6093 29.5733C70.0255 26.321 69.5247 23.6083 69.107 21.4362L67.143 21.8138ZM68.6454 29.9509C69.3077 33.1797 70.0133 37.2042 70.7618 42.0283L72.7382 41.7217C71.9867 36.8791 71.2756 32.8203 70.6046 29.5491L68.6454 29.9509ZM70.7622 42.031C71.5113 46.7748 72.3439 52.3531 73.2601 58.7664L75.2399 58.4836C74.3228 52.0636 73.4887 46.4752 72.7378 41.719L70.7622 42.031ZM73.2601 58.7664C74.1764 65.1808 75.2178 72.6373 76.3843 81.136L78.3657 80.864C77.1989 72.3627 76.1569 64.9025 75.2399 58.4836L73.2601 58.7664ZM78.3647 81.1434C79.1972 75.3988 80.0296 69.9883 80.8618 64.9118L78.8882 64.5882C78.0537 69.6784 77.2195 75.1012 76.3853 80.8566L78.3647 81.1434ZM80.8622 64.9092C81.6954 59.7438 82.4451 55.1623 83.1114 51.1644L81.1386 50.8356C80.4716 54.8377 79.7213 59.4228 78.8878 64.5908L80.8622 64.9092ZM83.1089 51.1789C83.9428 46.5925 84.6934 42.3387 85.3608 38.4178L83.3892 38.0822C82.7232 41.9946 81.9739 46.2409 81.1411 50.8211L83.1089 51.1789ZM85.3656 38.3866C85.6981 35.9765 86.0722 33.4407 86.488 30.7794L84.512 30.4706C84.0945 33.1426 83.7186 35.6902 83.3844 38.1134L85.3656 38.3866ZM86.4839 30.8039C86.982 28.0641 87.4795 25.577 87.9762 23.3419L86.0238 22.9081C85.5205 25.173 85.018 27.6859 84.5161 30.4461L86.4839 30.8039ZM87.9762 23.3419C88.4718 21.1118 88.9632 19.2726 89.4487 17.8162L87.5513 17.1838C87.0368 18.7274 86.5282 20.6382 86.0238 22.9081L87.9762 23.3419ZM89.432 17.8624C89.7064 17.1568 89.9616 16.7082 90.1745 16.4527C90.3876 16.1969 90.4557 16.25 90.375 16.25V14.25C89.6276 14.25 89.0499 14.6781 88.638 15.1723C88.2259 15.6668 87.8769 16.3432 87.568 17.1376L89.432 17.8624ZM90.5164 16.2399C90.9217 16.182 91.7365 16.2337 93.0657 16.4829L93.4343 14.5171C92.0968 14.2663 90.9949 14.1513 90.2336 14.2601L90.5164 16.2399ZM93.0762 16.4848C94.433 16.7242 95.7486 17.0831 97.0239 17.5613L97.7261 15.6887C96.3347 15.1669 94.9003 14.7758 93.4238 14.5152L93.0762 16.4848ZM97.0767 17.5795C98.3525 17.9782 99.4477 18.4501 100.371 18.9888L101.379 17.2612C100.302 16.6332 99.0641 16.1052 97.6733 15.6705L97.0767 17.5795ZM100.401 19.0055C100.893 19.2703 101.194 19.5006 101.361 19.6805C101.523 19.8555 101.5 19.9157 101.5 19.875H103.5C103.5 19.251 103.206 18.7278 102.827 18.3195C102.452 17.9161 101.941 17.563 101.349 17.2445L100.401 19.0055ZM101.5 19.875C101.5 19.8582 101.496 19.9358 101.452 20.188C101.414 20.411 101.354 20.7157 101.271 21.1065C101.107 21.8867 100.859 22.982 100.527 24.396L102.473 24.854C102.807 23.4347 103.059 22.3216 103.229 21.5185C103.313 21.1176 103.378 20.787 103.423 20.5307C103.462 20.3038 103.5 20.0584 103.5 19.875H101.5ZM100.521 24.4233C99.9424 27.2315 99.0725 30.8368 97.9082 35.2446L99.8418 35.7554C101.011 31.3298 101.891 27.6852 102.479 24.8267L100.521 24.4233ZM97.9049 35.2575C96.8222 39.588 95.5728 44.5023 94.1566 50.0006L96.0934 50.4994C97.5105 44.9977 98.7611 40.0787 99.8451 35.7425L97.9049 35.2575ZM94.1531 50.0144C92.8224 55.5039 91.3666 61.1189 89.7859 66.8595L91.7141 67.3905C93.3 61.6311 94.761 55.9961 96.0969 50.4856L94.1531 50.0144ZM89.7833 66.8691C88.2842 72.5323 86.7852 78.0703 85.2863 83.4831L87.2137 84.0169C88.7148 78.5964 90.2158 73.0511 91.7167 67.3809L89.7833 66.8691ZM85.2863 83.4831C83.7873 88.896 82.4138 93.7241 81.1656 97.9678L83.0844 98.5322C84.3362 94.2759 85.7127 89.4374 87.2137 84.0169L85.2863 83.4831ZM81.1672 97.9627C79.9195 102.121 78.8415 105.479 77.9326 108.041L79.8174 108.709C80.7418 106.104 81.8305 102.712 83.0828 98.5373L81.1672 97.9627ZM77.9233 108.068C77.5097 109.35 77.1692 110.276 76.9011 110.87C76.7646 111.172 76.6655 111.346 76.6064 111.429C76.5759 111.472 76.5822 111.453 76.6296 111.415C76.6681 111.383 76.8417 111.25 77.125 111.25V113.25C77.4916 113.25 77.7564 113.076 77.8938 112.964C78.0402 112.845 78.1533 112.705 78.2374 112.587C78.4075 112.347 78.5688 112.036 78.7239 111.693C79.0391 110.995 79.4069 109.983 79.8267 108.682L77.9233 108.068ZM77.125 111.25C77.285 111.25 77.4049 111.293 77.47 111.323C77.5359 111.352 77.576 111.382 77.5885 111.392C77.6108 111.41 77.5965 111.403 77.5435 111.339C77.4405 111.214 77.286 110.991 77.0762 110.642C76.6619 109.951 76.1043 108.889 75.3995 107.438L73.6005 108.312C74.3124 109.778 74.9006 110.903 75.3613 111.671C75.589 112.05 75.8043 112.374 76.0034 112.615C76.1014 112.733 76.2212 112.863 76.3607 112.971C76.4731 113.058 76.7447 113.25 77.125 113.25V111.25ZM75.4042 107.448C74.0284 104.534 72.756 100.649 71.598 95.7691L69.652 96.2309C70.8273 101.184 72.1383 105.216 73.5958 108.302L75.4042 107.448Z" fill="black" mask="url(#path-4-outside-2_0_1)"/>
</g>
<defs>
<filter id="filter0_d_0_1" x="24.125" y="16.75" width="47.875" height="103.875" filterUnits="userSpaceOnUse" color-interpolation-filters="sRGB">
<feFlood flood-opacity="0" result="BackgroundImageFix"/>
<feColorMatrix in="SourceAlpha" type="matrix" values="0 0 0 0 0 0 0 0 0 0 0 0 0 0 0 0 0 0 127 0" result="hardAlpha"/>
<feOffset dy="4"/>
<feGaussianBlur stdDeviation="2"/>
<feComposite in2="hardAlpha" operator="out"/>
<feColorMatrix type="matrix" values="0 0 0 0 0 0 0 0 0 0 0 0 0 0 0 0 0 0 0.3 0"/>
<feBlend mode="normal" in2="BackgroundImageFix" result="effect1_dropShadow_0_1"/>
<feBlend mode="normal" in="SourceGraphic" in2="effect1_dropShadow_0_1" result="shape"/>
</filter>
<filter id="filter1_d_0_1" x="49.375" y="13.125" width="57.125" height="107.125" filterUnits="userSpaceOnUse" color-interpolation-filters="sRGB">
<feFlood flood-opacity="0" result="BackgroundImageFix"/>
<feColorMatrix in="SourceAlpha" type="matrix" values="0 0 0 0 0 0 0 0 0 0 0 0 0 0 0 0 0 0 127 0" result="hardAlpha"/>
<feOffset dy="4"/>
<feGaussianBlur stdDeviation="2"/>
<feComposite in2="hardAlpha" operator="out"/>
<feColorMatrix type="matrix" values="0 0 0 0 0 0 0 0 0 0 0 0 0 0 0 0 0 0 0.3 0"/>
<feBlend mode="normal" in2="BackgroundImageFix" result="effect1_dropShadow_0_1"/>
<feBlend mode="normal" in="SourceGraphic" in2="effect1_dropShadow_0_1" result="shape"/>
</filter>
</defs>
</svg>
