<svg width="513" height="680" viewBox="0 0 513 680" fill="none" xmlns="http://www.w3.org/2000/svg">
<g filter="url(#filter0_d_0_1)">
<rect x="4" width="505" height="672" fill="#E2E1E0"/>
<rect x="4.5" y="0.5" width="504" height="671" stroke="#1C1C8C"/>
</g>
<path d="M482 105V107" stroke="#3C3B3B" stroke-width="3" stroke-linecap="round"/>
<path d="M482 98V101" stroke="#3C3B3B" stroke-width="3" stroke-linecap="round"/>
<path d="M482 88V92" stroke="#3C3B3B" stroke-width="3" stroke-linecap="round"/>
<path d="M482 78V82" stroke="#3C3B3B" stroke-width="3" stroke-linecap="round"/>
<path d="M214 643H218" stroke="#3C3B3B" stroke-width="3" stroke-linecap="round"/>
<path d="M201 643H206" stroke="#3C3B3B" stroke-width="3" stroke-linecap="round"/>
<path d="M182 643H189" stroke="#3C3B3B" stroke-width="3" stroke-linecap="round"/>
<path d="M164 643H171" stroke="#3C3B3B" stroke-width="3" stroke-linecap="round"/>
<path d="M35 509V512" stroke="#3C3B3B" stroke-width="3" stroke-linecap="round"/>
<path d="M35 499V503" stroke="#3C3B3B" stroke-width="3" stroke-linecap="round"/>
<path d="M35 485V490.296" stroke="#3C3B3B" stroke-width="3" stroke-linecap="round"/>
<path d="M35 471V476.296" stroke="#3C3B3B" stroke-width="3" stroke-linecap="round"/>
<path d="M307 28H311" stroke="#3C3B3B" stroke-width="3" stroke-linecap="round"/>
<path d="M296 28H300" stroke="#3C3B3B" stroke-width="3" stroke-linecap="round"/>
<path d="M279 28H286" stroke="#3C3B3B" stroke-width="3" stroke-linecap="round"/>
<path d="M263 28H269" stroke="#3C3B3B" stroke-width="3" stroke-linecap="round"/>
<path d="M256 28.2065C207.441 28.2065 158.883 28.2065 110.324 28.2065C99.2581 28.2065 87.3938 26.7158 76.7657 31.7443C61.3176 39.0534 48.0289 62.3792 41.2458 81.4198C22.226 134.809 30.2978 193.657 33.1829 250.346C36.8263 321.935 34.3815 394.288 34.3815 466" stroke="#3C3B3B" stroke-width="3" stroke-linecap="round"/>
<path d="M225.337 645.069C257.652 645.069 289.866 643.262 322.233 645.831C362.735 649.046 404.909 651.173 445.205 644.579C458.341 642.429 471.449 632.583 475.634 619.593C483.778 594.318 481.027 563.96 481.078 537.83C481.129 511.991 481.078 486.152 481.078 460.313C481.078 344.831 483.828 229.483 481.078 113.99" stroke="#3C3B3B" stroke-width="3" stroke-linecap="round"/>
<path d="M357.752 19.95C358.132 19.95 358.472 20.05 358.772 20.25C359.092 20.45 359.282 20.8 359.342 21.3C359.582 22.88 359.732 24.46 359.792 26.04C359.872 27.6 359.912 29.37 359.912 31.35C359.912 32.19 359.842 33.72 359.702 35.94C360.582 36.02 361.262 36.06 361.742 36.06C362.082 36.06 362.852 36.01 364.052 35.91C364.752 35.81 365.362 35.76 365.882 35.76C366.362 35.76 366.802 35.81 367.202 35.91C367.602 35.99 368.012 36.13 368.432 36.33C368.852 36.57 369.062 36.94 369.062 37.44C369.062 37.84 368.932 38.2 368.672 38.52C368.432 38.84 368.142 39 367.802 39C367.562 39 367.182 38.96 366.662 38.88C365.722 38.74 364.822 38.67 363.962 38.67C363.682 38.67 363.362 38.69 363.002 38.73C362.662 38.75 362.412 38.76 362.252 38.76C361.772 38.82 361.292 38.85 360.812 38.85C359.832 38.85 358.952 38.8 358.172 38.7C357.772 38.66 357.372 38.51 356.972 38.25C356.572 37.97 356.372 37.57 356.372 37.05C356.372 36.75 356.412 35.98 356.492 34.74C356.632 32.68 356.702 31.11 356.702 30.03C356.702 29.19 356.662 28.31 356.582 27.39C356.502 26.47 356.452 25.89 356.432 25.65C356.252 23.95 356.162 22.55 356.162 21.45C356.162 20.93 356.282 20.55 356.522 20.31C356.782 20.07 357.192 19.95 357.752 19.95ZM370.558 32.64C370.558 31.88 370.698 31.12 370.978 30.36C371.258 29.58 371.628 28.87 372.088 28.23C372.548 27.59 373.278 27.07 374.278 26.67C375.278 26.25 376.168 26.04 376.948 26.04C377.748 26.04 378.558 26.15 379.378 26.37C380.218 26.59 380.798 26.93 381.118 27.39C381.858 28.43 382.228 29.45 382.228 30.45C382.228 30.99 382.108 31.45 381.868 31.83C381.648 32.21 381.328 32.62 380.908 33.06C380.568 33.42 380.028 33.66 379.288 33.78C378.568 33.9 377.848 33.96 377.128 33.96C376.668 33.96 376.108 33.92 375.448 33.84C374.788 33.74 374.148 33.62 373.528 33.48C373.568 33.88 373.668 34.27 373.828 34.65C373.988 35.03 374.178 35.32 374.398 35.52C374.798 35.9 375.208 36.14 375.628 36.24C376.068 36.34 376.628 36.39 377.308 36.39C378.028 36.39 378.698 36.27 379.318 36.03C379.818 35.85 380.228 35.76 380.548 35.76C380.928 35.76 381.218 35.88 381.418 36.12C381.618 36.34 381.718 36.63 381.718 36.99C381.718 37.49 381.428 37.9 380.848 38.22C380.268 38.54 379.598 38.78 378.838 38.94C378.098 39.08 377.498 39.15 377.038 39.15C376.098 39.15 375.188 38.98 374.308 38.64C373.428 38.3 372.698 37.82 372.118 37.2C371.638 36.64 371.258 35.97 370.978 35.19C370.698 34.39 370.558 33.54 370.558 32.64ZM377.098 28.59C376.658 28.59 376.218 28.68 375.778 28.86C375.338 29.02 374.978 29.25 374.698 29.55C374.338 29.93 374.088 30.24 373.948 30.48C373.828 30.7 373.748 31.01 373.708 31.41C374.208 31.57 375.248 31.65 376.828 31.65C377.688 31.65 378.348 31.52 378.808 31.26C379.288 31 379.528 30.66 379.528 30.24C379.528 29.82 379.268 29.44 378.748 29.1C378.228 28.76 377.678 28.59 377.098 28.59ZM395.235 25.77C395.635 25.77 395.945 25.87 396.165 26.07C396.405 26.25 396.525 26.48 396.525 26.76C396.525 26.96 396.485 27.17 396.405 27.39C396.345 27.59 396.275 27.8 396.195 28.02C395.735 29.1 394.765 30.61 393.285 32.55C394.805 34.51 396.035 35.77 396.975 36.33C397.055 36.37 397.205 36.44 397.425 36.54C397.645 36.64 397.815 36.76 397.935 36.9C398.075 37.04 398.145 37.2 398.145 37.38C398.145 37.82 397.975 38.18 397.635 38.46C397.315 38.72 396.925 38.85 396.465 38.85C395.685 38.85 394.835 38.42 393.915 37.56C392.995 36.68 392.215 35.76 391.575 34.8C391.115 35.5 390.585 36.2 389.985 36.9C389.405 37.58 388.865 38.16 388.365 38.64C388.165 38.86 387.925 39.03 387.645 39.15C387.385 39.27 387.125 39.33 386.865 39.33C386.505 39.33 386.185 39.25 385.905 39.09C385.625 38.93 385.485 38.65 385.485 38.25C385.485 38.15 385.555 37.99 385.695 37.77C385.835 37.53 385.915 37.39 385.935 37.35C386.175 36.93 386.495 36.5 386.895 36.06C387.295 35.6 387.545 35.31 387.645 35.19C387.885 34.89 388.145 34.6 388.425 34.32C388.585 34.14 388.825 33.86 389.145 33.48C389.465 33.1 389.685 32.8 389.805 32.58L388.755 31.14C388.255 30.56 387.825 30.1 387.465 29.76C387.105 29.4 386.815 29.22 386.595 29.22C386.275 29.22 385.975 29.31 385.695 29.49C385.455 29.65 385.215 29.73 384.975 29.73C384.715 29.73 384.515 29.67 384.375 29.55C384.235 29.41 384.165 29.26 384.165 29.1C384.165 28.42 384.435 27.84 384.975 27.36C385.515 26.86 386.195 26.61 387.015 26.61C387.795 26.61 388.485 26.88 389.085 27.42C389.705 27.94 390.315 28.64 390.915 29.52C390.995 29.6 391.085 29.73 391.185 29.91C391.285 30.09 391.385 30.24 391.485 30.36C391.705 30.04 392.105 29.42 392.685 28.5C393.305 27.4 393.675 26.77 393.795 26.61C394.215 26.05 394.695 25.77 395.235 25.77ZM411.348 39.12C410.668 39.12 410.148 39.02 409.788 38.82C409.428 38.6 409.038 38.2 408.618 37.62C408.098 38.08 407.318 38.45 406.278 38.73C405.258 39.01 404.378 39.15 403.638 39.15C402.418 39.15 401.428 38.82 400.668 38.16C399.928 37.48 399.558 36.49 399.558 35.19C399.558 34.63 399.708 34.12 400.008 33.66C400.328 33.18 400.738 32.76 401.238 32.4C401.798 32.02 402.458 31.72 403.218 31.5C403.998 31.28 404.708 31.17 405.348 31.17C406.428 31.17 407.388 31.27 408.228 31.47V31.44C408.228 30.36 407.958 29.62 407.418 29.22C406.898 28.8 406.058 28.59 404.898 28.59C404.158 28.59 403.518 28.92 402.978 29.58C402.778 29.84 402.358 29.97 401.718 29.97C401.398 29.97 401.158 29.84 400.998 29.58C400.858 29.3 400.788 29.02 400.788 28.74C400.788 28.16 401.028 27.66 401.508 27.24C402.008 26.82 402.608 26.51 403.308 26.31C404.008 26.09 404.658 25.98 405.258 25.98C405.838 25.98 406.528 26.1 407.328 26.34C408.128 26.58 408.778 26.9 409.278 27.3C409.878 27.82 410.338 28.43 410.658 29.13C410.998 29.81 411.168 30.56 411.168 31.38C411.168 31.64 411.148 32.03 411.108 32.55C411.068 33.15 411.048 33.64 411.048 34.02C411.048 34.2 411.028 34.43 410.988 34.71C410.948 35.07 410.928 35.37 410.928 35.61C410.928 35.87 411.008 36.12 411.168 36.36C411.328 36.6 411.548 36.8 411.828 36.96C412.088 37.1 412.258 37.25 412.338 37.41C412.418 37.57 412.458 37.75 412.458 37.95C412.458 38.15 412.328 38.4 412.068 38.7C411.828 38.98 411.588 39.12 411.348 39.12ZM405.348 33.39C404.568 33.39 403.878 33.54 403.278 33.84C402.678 34.14 402.378 34.67 402.378 35.43C402.378 35.81 402.508 36.13 402.768 36.39C403.048 36.65 403.348 36.78 403.668 36.78C404.528 36.78 405.248 36.69 405.828 36.51C406.408 36.33 407.108 36 407.928 35.52C408.028 35.2 408.088 34.75 408.108 34.17C408.108 33.95 408.118 33.78 408.138 33.66C407.058 33.48 406.128 33.39 405.348 33.39Z" fill="#FE4646"/>
<path d="M416.964 20.85C417.704 23.05 418.544 25.47 419.484 28.11C420.424 30.73 421.284 33 422.064 34.92C422.644 33.06 423.444 30.83 424.464 28.23C425.484 25.61 426.434 23.25 427.314 21.15C427.574 20.53 428.014 20.22 428.634 20.22C429.214 20.22 429.654 20.34 429.954 20.58C430.254 20.8 430.404 21.19 430.404 21.75C430.404 21.97 430.374 22.16 430.314 22.32C430.254 22.48 430.164 22.69 430.044 22.95C429.424 24.17 428.804 25.58 428.184 27.18C427.564 28.76 426.804 30.77 425.904 33.21C425.944 33.11 425.664 33.86 425.064 35.46L424.074 38.04C423.954 38.36 423.754 38.61 423.474 38.79C423.214 38.95 422.914 39.03 422.574 39.03C422.234 39.03 421.854 38.95 421.434 38.79C421.034 38.61 420.744 38.43 420.564 38.25C419.884 36.95 419.014 35.07 417.954 32.61C416.914 30.15 416.014 27.88 415.254 25.8L414.804 24.57C414.504 23.73 414.284 23.09 414.144 22.65C414.004 22.19 413.934 21.82 413.934 21.54C413.934 21.14 414.154 20.82 414.594 20.58C415.054 20.34 415.494 20.22 415.914 20.22C416.134 20.22 416.344 20.27 416.544 20.37C416.744 20.47 416.884 20.63 416.964 20.85ZM433.85 19.74C434.55 19.8 435.15 19.99 435.65 20.31C436.17 20.61 436.43 21.07 436.43 21.69C436.43 22.15 436.22 22.52 435.8 22.8C435.38 23.06 434.86 23.19 434.24 23.19C433.66 23.19 433.26 23.04 433.04 22.74C432.82 22.44 432.71 22.13 432.71 21.81C432.71 21.23 432.78 20.74 432.92 20.34C433.06 19.92 433.37 19.72 433.85 19.74ZM433.25 32.13V31.26C433.25 30.26 433.2 29.35 433.1 28.53C433.02 27.69 432.97 27.17 432.95 26.97C432.97 26.75 433.12 26.54 433.4 26.34C433.68 26.14 433.93 26.04 434.15 26.04C434.53 26.04 434.91 26.12 435.29 26.28C435.69 26.42 435.94 26.6 436.04 26.82C436.14 27.56 436.19 28.13 436.19 28.53C436.19 29.41 436.23 30.85 436.31 32.85L436.34 34.02L436.4 35.16C436.42 35.48 436.44 35.86 436.46 36.3C436.48 36.74 436.49 37.24 436.49 37.8C436.49 38.18 436.3 38.5 435.92 38.76C435.56 39.02 435.18 39.15 434.78 39.15C434.2 39.15 433.79 39.02 433.55 38.76C433.33 38.5 433.22 38.09 433.22 37.53L433.25 32.13ZM446.957 31.29C447.017 31.13 447.227 30.55 447.587 29.55C447.967 28.55 448.317 27.79 448.637 27.27C449.157 26.45 449.617 26.04 450.017 26.04C450.577 26.04 451.007 26.15 451.307 26.37C451.607 26.57 451.757 26.86 451.757 27.24C451.757 27.42 451.677 27.67 451.517 27.99C451.377 28.31 451.297 28.5 451.277 28.56C450.477 30.32 449.757 32.21 449.117 34.23L448.487 36.57C448.247 37.33 447.837 37.95 447.257 38.43C446.677 38.89 445.997 39.12 445.217 39.12C444.517 39.12 443.867 38.8 443.267 38.16C442.907 37.6 442.527 36.89 442.127 36.03C441.747 35.17 441.417 34.33 441.137 33.51L440.087 30.36C439.867 29.74 439.687 29.21 439.547 28.77C439.427 28.33 439.367 27.93 439.367 27.57C439.347 27.15 439.467 26.81 439.727 26.55C439.987 26.29 440.347 26.16 440.807 26.16C441.327 26.16 441.697 26.27 441.917 26.49C442.137 26.69 442.337 27.01 442.517 27.45C442.597 27.91 442.817 28.85 443.177 30.27L443.387 31.11C443.567 31.79 443.797 32.48 444.077 33.18C444.357 33.88 444.637 34.55 444.917 35.19C444.877 35.09 445.017 35.42 445.337 36.18C445.537 35.6 445.767 34.89 446.027 34.05L446.957 31.29ZM467.534 37.56C467.534 38 467.294 38.37 466.814 38.67C466.354 38.97 465.924 39.12 465.524 39.12C464.764 39.12 464.154 39.03 463.694 38.85C463.254 38.65 462.844 38.29 462.464 37.77C461.944 38.23 461.234 38.58 460.334 38.82C459.434 39.04 458.604 39.15 457.844 39.15C456.604 39.15 455.584 38.82 454.784 38.16C453.984 37.48 453.584 36.49 453.584 35.19C453.584 34.63 453.734 34.12 454.034 33.66C454.334 33.18 454.744 32.76 455.264 32.4C455.844 32.02 456.504 31.73 457.244 31.53C457.984 31.31 458.754 31.2 459.554 31.2C459.974 31.2 460.474 31.28 461.054 31.44C461.634 31.6 462.084 31.77 462.404 31.95V31.47C462.404 30.39 462.144 29.65 461.624 29.25C461.104 28.83 460.264 28.62 459.104 28.62C458.764 28.62 458.424 28.69 458.084 28.83C457.764 28.97 457.394 29.16 456.974 29.4C456.414 29.7 455.884 29.85 455.384 29.85C455.204 29.85 455.034 29.73 454.874 29.49C454.714 29.23 454.634 29 454.634 28.8C454.634 28.22 454.904 27.72 455.444 27.3C456.004 26.88 456.664 26.57 457.424 26.37C458.184 26.15 458.864 26.04 459.464 26.04C460.064 26.04 460.754 26.16 461.534 26.4C462.314 26.62 462.954 26.93 463.454 27.33C464.054 27.85 464.514 28.46 464.834 29.16C465.174 29.84 465.344 30.59 465.344 31.41C465.344 31.67 465.324 32.06 465.284 32.58C465.244 33.14 465.224 33.62 465.224 34.02C465.224 34.2 465.204 34.47 465.164 34.83C465.124 35.27 465.104 35.62 465.104 35.88C465.104 36.12 465.194 36.33 465.374 36.51C465.554 36.67 465.764 36.75 466.004 36.75L466.844 36.72C467.064 36.72 467.234 36.8 467.354 36.96C467.474 37.12 467.534 37.32 467.534 37.56ZM457.874 36.78C458.734 36.78 459.454 36.69 460.034 36.51C460.614 36.33 461.314 36 462.134 35.52C462.214 35.18 462.264 34.73 462.284 34.17C461.184 33.65 460.274 33.39 459.554 33.39C458.734 33.39 458.004 33.54 457.364 33.84C456.724 34.14 456.404 34.67 456.404 35.43C456.404 35.81 456.564 36.13 456.884 36.39C457.204 36.65 457.534 36.78 457.874 36.78Z" fill="#3AF44C"/>
<circle cx="46" cy="600" r="18" fill="#F50D0D"/>
<path d="M36.3265 584.252C33.8646 586.752 31.3633 589.228 29.788 592.408C28.2506 595.511 27.8118 598.997 27.6376 602.439C27.4896 605.362 28.0886 608.129 29.4085 610.718C31.2346 614.301 34.375 617.977 38.012 619.8C41.2154 621.406 44.8974 621.486 48.3968 621.035C49.8819 620.843 51.0941 620.771 52.5022 620.126C55.3772 618.808 58.0179 616.901 60.2358 614.649C62.3599 612.491 63.5652 609.778 64.5179 606.933C65.711 603.37 66.1669 599.831 64.9671 596.241C63.583 592.1 60.8161 588.238 56.8935 586.169C51.9791 583.577 46.1709 584.014 40.9184 582.807" stroke="#3C3B3B" stroke-linecap="round"/>
<circle cx="76" cy="633" r="10" fill="#FCE514"/>
<path d="M80.5233 624.826C80.2667 624.854 80.1536 625.142 79.8755 625.188C78.6001 625.395 77.3926 625.593 76.1341 625.9C72.489 626.789 69.1594 629.503 67.9392 633.097C67.1688 635.365 67.0488 638.205 68.5112 640.235C69.5158 641.63 71.2215 642.823 72.7487 643.568C78.2937 646.271 86.728 641.649 86.2551 635.198C85.9566 631.125 84.6932 627.767 80.7101 626.11C77.221 624.659 73.3527 625.143 69.7019 625.456" stroke="#3C3B3B" stroke-linecap="round"/>
<circle cx="36.5282" cy="579.207" r="8" fill="#3AF44C"/>
<path d="M40.1643 587.336C39.9261 587.574 39.6605 587.712 39.3108 587.731C36.8781 587.865 34.1095 586.932 31.8816 586.047C29.9211 585.269 27.8757 584.005 27.2819 581.835C26.5676 579.224 27.2654 576.33 28.7598 574.129C30.6041 571.413 33.4616 570.569 36.5999 571.197C39.8876 571.855 44.0798 573.896 45.2225 577.314C47.5185 584.183 38.9176 587.034 34.3317 589.327" stroke="#3C3B3B" stroke-linecap="round"/>
<defs>
<filter id="filter0_d_0_1" x="0" y="0" width="513" height="680" filterUnits="userSpaceOnUse" color-interpolation-filters="sRGB">
<feFlood flood-opacity="0" result="BackgroundImageFix"/>
<feColorMatrix in="SourceAlpha" type="matrix" values="0 0 0 0 0 0 0 0 0 0 0 0 0 0 0 0 0 0 127 0" result="hardAlpha"/>
<feOffset dy="4"/>
<feGaussianBlur stdDeviation="2"/>
<feComposite in2="hardAlpha" operator="out"/>
<feColorMatrix type="matrix" values="0 0 0 0 0 0 0 0 0 0 0 0 0 0 0 0 0 0 0.25 0"/>
<feBlend mode="normal" in2="BackgroundImageFix" result="effect1_dropShadow_0_1"/>
<feBlend mode="normal" in="SourceGraphic" in2="effect1_dropShadow_0_1" result="shape"/>
</filter>
</defs>
</svg>
